<svg width="768" height="256" viewBox="0 0 768 256" fill="none" xmlns="http://www.w3.org/2000/svg">
<rect width="768" height="256" fill="#323232"/>
<path d="M4 8C4 5.79086 5.79086 4 8 4H56C58.2091 4 60 5.79086 60 8V64H4V8Z" fill="#C4C4C4"/>
<path d="M68 8C68 5.79086 69.7909 4 72 4H128V60C128 62.2091 126.209 64 124 64H68V8Z" fill="#C4C4C4"/>
<path d="M128 4H192V60C192 62.2091 190.209 64 188 64H132C129.791 64 128 62.2091 128 60V4Z" fill="#C4C4C4"/>
<path d="M192 4H248C250.209 4 252 5.79086 252 8V64H196C193.791 64 192 62.2091 192 60V4Z" fill="#C4C4C4"/>
<path d="M256 0H316C318.209 0 320 1.79086 320 4V60C320 62.2091 318.209 64 316 64H260C257.791 64 256 62.2091 256 60V0Z" fill="#C4C4C4"/>
<path d="M320 4H384V64H324C321.791 64 320 62.2091 320 60V4Z" fill="#C4C4C4"/>
<path d="M384 4H448V60C448 62.2091 446.209 64 444 64H384V4Z" fill="#C4C4C4"/>
<path d="M512 0H452C449.791 0 448 1.79086 448 4V60C448 62.2091 449.791 64 452 64H508C510.209 64 512 62.2091 512 60V0Z" fill="#C4C4C4"/>
<path d="M516 8C516 5.79086 517.791 4 520 4H576V64H516V8Z" fill="#C4C4C4"/>
<path d="M576 64H640V4C640 1.79086 638.209 0 636 0H580C577.791 0 576 1.79086 576 4V64Z" fill="#C4C4C4"/>
<path d="M640 64H704V4H640V64Z" fill="#C4C4C4"/>
<path d="M704 4H760C762.209 4 764 5.79086 764 8V64H704V4Z" fill="#C4C4C4"/>
<path d="M4 64H60V128H4V64Z" fill="#C4C4C4"/>
<path d="M68 64H124C126.209 64 128 65.7909 128 68V124C128 126.209 126.209 128 124 128H68V64Z" fill="#C4C4C4"/>
<path d="M128 68C128 65.7909 129.791 64 132 64H188C190.209 64 192 65.7909 192 68V124C192 126.209 190.209 128 188 128H132C129.791 128 128 126.209 128 124V68Z" fill="#C4C4C4"/>
<path d="M192 68C192 65.7909 193.791 64 196 64H252V128H196C193.791 128 192 126.209 192 124V68Z" fill="#C4C4C4"/>
<path d="M260 64H316C318.209 64 320 65.7909 320 68V128H260V64Z" fill="#C4C4C4"/>
<path d="M320 68C320 65.7909 321.791 64 324 64H384V128H320V68Z" fill="#C4C4C4"/>
<path d="M384 64H444C446.209 64 448 65.7909 448 68V128H384V64Z" fill="#C4C4C4"/>
<path d="M448 68C448 65.7909 449.791 64 452 64H508V128H448V68Z" fill="#C4C4C4"/>
<path d="M516 64H576V128H516V64Z" fill="#C4C4C4"/>
<path d="M576 68C576 65.7909 577.791 64 580 64H640V124C640 126.209 638.209 128 636 128H576V68Z" fill="#C4C4C4"/>
<path d="M704 64H764C766.209 64 768 65.7909 768 68V124C768 126.209 766.209 128 764 128H704V64Z" fill="#C4C4C4"/>
<path d="M4 128H60V184C60 186.209 58.2091 188 56 188H8C5.79086 188 4 186.209 4 184V128Z" fill="#C4C4C4"/>
<path d="M68 128H124C126.209 128 128 129.791 128 132V188H72C69.7909 188 68 186.209 68 184V128Z" fill="#C4C4C4"/>
<path d="M128 132C128 129.791 129.791 128 132 128H188C190.209 128 192 129.791 192 132V188H128V132Z" fill="#C4C4C4"/>
<path d="M192 132C192 129.791 193.791 128 196 128H252V184C252 186.209 250.209 188 248 188H192V132Z" fill="#C4C4C4"/>
<path d="M260 128H320V188C320 190.209 318.209 192 316 192H260V128Z" fill="#C4C4C4"/>
<path d="M320 128H384V192H324C321.791 192 320 190.209 320 188V128Z" fill="#C4C4C4"/>
<path d="M384 128H448V188C448 190.209 446.209 192 444 192H384V128Z" fill="#C4C4C4"/>
<path d="M448 128H508V192H452C449.791 192 448 190.209 448 188V128Z" fill="#C4C4C4"/>
<path d="M512 132C512 129.791 513.791 128 516 128H576V192H516C513.791 192 512 190.209 512 188V132Z" fill="#C4C4C4"/>
<path d="M576 128H640V192H576V128Z" fill="#C4C4C4"/>
<path d="M640 128H700C702.209 128 704 129.791 704 132V192H644C641.791 192 640 190.209 640 188V128Z" fill="#C4C4C4"/>
<path d="M704 128H764V192H704V128Z" fill="#C4C4C4"/>
<path d="M4 200C4 197.791 5.79086 196 8 196H56C58.2091 196 60 197.791 60 200V248C60 250.209 58.2091 252 56 252H8C5.79086 252 4 250.209 4 248V200Z" fill="#C4C4C4"/>
<path d="M68 200C68 197.791 69.7909 196 72 196H128V252H72C69.7909 252 68 250.209 68 248V200Z" fill="#C4C4C4"/>
<path d="M128 196H192V252H128V196Z" fill="#C4C4C4"/>
<path d="M192 196H248C250.209 196 252 197.791 252 200V248C252 250.209 250.209 252 248 252H192V196Z" fill="#C4C4C4"/>
<path d="M256 196C256 193.791 257.791 192 260 192H316C318.209 192 320 193.791 320 196V252C320 254.209 318.209 256 316 256H256V196Z" fill="#C4C4C4"/>
<path d="M320 196C320 193.791 321.791 192 324 192H384V256H320V196Z" fill="#C4C4C4"/>
<path d="M384 192H444C446.209 192 448 193.791 448 196V256H384V192Z" fill="#C4C4C4"/>
<path d="M448 196C448 193.791 449.791 192 452 192H508C510.209 192 512 193.791 512 196V256H452C449.791 256 448 254.209 448 252V196Z" fill="#C4C4C4"/>
<path d="M516 192H576V252H520C517.791 252 516 250.209 516 248V192Z" fill="#C4C4C4"/>
<path d="M576 192H640V252H576V192Z" fill="#C4C4C4"/>
<path d="M640 192H704V252C704 254.209 702.209 256 700 256H644C641.791 256 640 254.209 640 252V192Z" fill="#C4C4C4"/>
<path d="M704 192H764V248C764 250.209 762.209 252 760 252H704V192Z" fill="#C4C4C4"/>
</svg>
