<svg width="808" height="610" viewBox="0 0 808 610" fill="none" xmlns="http://www.w3.org/2000/svg">
<rect x="0.5" y="0.5" width="807" height="609" rx="4.5" stroke="#9747FF" stroke-dasharray="10 5"/>
<rect width="768" height="256" transform="translate(20 20)" fill="#323232"/>
<path d="M24 28C24 25.7909 25.7909 24 28 24H76C78.2091 24 80 25.7909 80 28V84H24V28Z" fill="#5F8537"/>
<path d="M88 28C88 25.7909 89.7909 24 92 24H148V80C148 82.2091 146.209 84 144 84H88V28Z" fill="#5F8537"/>
<path d="M148 24H212V80C212 82.2091 210.209 84 208 84H152C149.791 84 148 82.2091 148 80V24Z" fill="#5F8537"/>
<path d="M212 24H268C270.209 24 272 25.7909 272 28V84H216C213.791 84 212 82.2091 212 80V24Z" fill="#5F8537"/>
<path d="M276 20H336C338.209 20 340 21.7909 340 24V80C340 82.2091 338.209 84 336 84H280C277.791 84 276 82.2091 276 80V20Z" fill="#5F8537"/>
<path d="M340 24H404V84H344C341.791 84 340 82.2091 340 80V24Z" fill="#5F8537"/>
<path d="M404 24H468V80C468 82.2091 466.209 84 464 84H404V24Z" fill="#5F8537"/>
<path d="M532 20H472C469.791 20 468 21.7909 468 24V80C468 82.2091 469.791 84 472 84H528C530.209 84 532 82.2091 532 80V20Z" fill="#5F8537"/>
<path d="M536 28C536 25.7909 537.791 24 540 24H596V84H536V28Z" fill="#5F8537"/>
<path d="M596 84H660V24C660 21.7909 658.209 20 656 20H600C597.791 20 596 21.7909 596 24V84Z" fill="#5F8537"/>
<path d="M660 84H724V24H660V84Z" fill="#5F8537"/>
<path d="M724 24H780C782.209 24 784 25.7909 784 28V84H724V24Z" fill="#5F8537"/>
<path d="M24 84H80V148H24V84Z" fill="#5F8537"/>
<path d="M88 84H144C146.209 84 148 85.7909 148 88V144C148 146.209 146.209 148 144 148H88V84Z" fill="#5F8537"/>
<path d="M148 88C148 85.7909 149.791 84 152 84H208C210.209 84 212 85.7909 212 88V144C212 146.209 210.209 148 208 148H152C149.791 148 148 146.209 148 144V88Z" fill="#5F8537"/>
<path d="M212 88C212 85.7909 213.791 84 216 84H272V148H216C213.791 148 212 146.209 212 144V88Z" fill="#5F8537"/>
<path d="M280 84H336C338.209 84 340 85.7909 340 88V148H280V84Z" fill="#5F8537"/>
<path d="M340 88C340 85.7909 341.791 84 344 84H404V148H340V88Z" fill="#5F8537"/>
<path d="M404 84H464C466.209 84 468 85.7909 468 88V148H404V84Z" fill="#5F8537"/>
<path d="M468 88C468 85.7909 469.791 84 472 84H528V148H468V88Z" fill="#5F8537"/>
<path d="M536 84H596V148H536V84Z" fill="#5F8537"/>
<path d="M596 88C596 85.7909 597.791 84 600 84H660V144C660 146.209 658.209 148 656 148H596V88Z" fill="#5F8537"/>
<path d="M724 84H784C786.209 84 788 85.7909 788 88V144C788 146.209 786.209 148 784 148H724V84Z" fill="#5F8537"/>
<path d="M24 148H80V204C80 206.209 78.2091 208 76 208H28C25.7909 208 24 206.209 24 204V148Z" fill="#5F8537"/>
<path d="M88 148H144C146.209 148 148 149.791 148 152V208H92C89.7909 208 88 206.209 88 204V148Z" fill="#5F8537"/>
<path d="M148 152C148 149.791 149.791 148 152 148H208C210.209 148 212 149.791 212 152V208H148V152Z" fill="#5F8537"/>
<path d="M212 152C212 149.791 213.791 148 216 148H272V204C272 206.209 270.209 208 268 208H212V152Z" fill="#5F8537"/>
<path d="M280 148H340V208C340 210.209 338.209 212 336 212H280V148Z" fill="#5F8537"/>
<path d="M340 148H404V212H344C341.791 212 340 210.209 340 208V148Z" fill="#5F8537"/>
<path d="M404 148H468V208C468 210.209 466.209 212 464 212H404V148Z" fill="#5F8537"/>
<path d="M468 148H528V212H472C469.791 212 468 210.209 468 208V148Z" fill="#5F8537"/>
<path d="M532 152C532 149.791 533.791 148 536 148H596V212H536C533.791 212 532 210.209 532 208V152Z" fill="#5F8537"/>
<path d="M596 148H660V212H596V148Z" fill="#5F8537"/>
<path d="M660 148H720C722.209 148 724 149.791 724 152V212H664C661.791 212 660 210.209 660 208V148Z" fill="#5F8537"/>
<path d="M724 148H784V212H724V148Z" fill="#5F8537"/>
<path d="M24 220C24 217.791 25.7909 216 28 216H76C78.2091 216 80 217.791 80 220V268C80 270.209 78.2091 272 76 272H28C25.7909 272 24 270.209 24 268V220Z" fill="#5F8537"/>
<path d="M88 220C88 217.791 89.7909 216 92 216H148V272H92C89.7909 272 88 270.209 88 268V220Z" fill="#5F8537"/>
<path d="M148 216H212V272H148V216Z" fill="#5F8537"/>
<path d="M212 216H268C270.209 216 272 217.791 272 220V268C272 270.209 270.209 272 268 272H212V216Z" fill="#5F8537"/>
<path d="M276 216C276 213.791 277.791 212 280 212H336C338.209 212 340 213.791 340 216V272C340 274.209 338.209 276 336 276H276V216Z" fill="#5F8537"/>
<path d="M340 216C340 213.791 341.791 212 344 212H404V276H340V216Z" fill="#5F8537"/>
<path d="M404 212H464C466.209 212 468 213.791 468 216V276H404V212Z" fill="#5F8537"/>
<path d="M468 216C468 213.791 469.791 212 472 212H528C530.209 212 532 213.791 532 216V276H472C469.791 276 468 274.209 468 272V216Z" fill="#5F8537"/>
<path d="M536 212H596V272H540C537.791 272 536 270.209 536 268V212Z" fill="#5F8537"/>
<path d="M596 212H660V272H596V212Z" fill="#5F8537"/>
<path d="M660 212H724V272C724 274.209 722.209 276 720 276H664C661.791 276 660 274.209 660 272V212Z" fill="#5F8537"/>
<path d="M724 212H784V268C784 270.209 782.209 272 780 272H724V212Z" fill="#5F8537"/>
<rect width="768" height="256" transform="translate(20 334)" fill="#323232"/>
<path d="M24 342C24 339.791 25.7909 338 28 338H76C78.2091 338 80 339.791 80 342V398H24V342Z" fill="#C4C4C4"/>
<path d="M88 342C88 339.791 89.7909 338 92 338H148V394C148 396.209 146.209 398 144 398H88V342Z" fill="#C4C4C4"/>
<path d="M148 338H212V394C212 396.209 210.209 398 208 398H152C149.791 398 148 396.209 148 394V338Z" fill="#C4C4C4"/>
<path d="M212 338H268C270.209 338 272 339.791 272 342V398H216C213.791 398 212 396.209 212 394V338Z" fill="#C4C4C4"/>
<path d="M276 334H336C338.209 334 340 335.791 340 338V394C340 396.209 338.209 398 336 398H280C277.791 398 276 396.209 276 394V334Z" fill="#C4C4C4"/>
<path d="M340 338H404V398H344C341.791 398 340 396.209 340 394V338Z" fill="#C4C4C4"/>
<path d="M404 338H468V394C468 396.209 466.209 398 464 398H404V338Z" fill="#C4C4C4"/>
<path d="M532 334H472C469.791 334 468 335.791 468 338V394C468 396.209 469.791 398 472 398H528C530.209 398 532 396.209 532 394V334Z" fill="#C4C4C4"/>
<path d="M536 342C536 339.791 537.791 338 540 338H596V398H536V342Z" fill="#C4C4C4"/>
<path d="M596 398H660V338C660 335.791 658.209 334 656 334H600C597.791 334 596 335.791 596 338V398Z" fill="#C4C4C4"/>
<path d="M660 398H724V338H660V398Z" fill="#C4C4C4"/>
<path d="M724 338H780C782.209 338 784 339.791 784 342V398H724V338Z" fill="#C4C4C4"/>
<path d="M24 398H80V462H24V398Z" fill="#C4C4C4"/>
<path d="M88 398H144C146.209 398 148 399.791 148 402V458C148 460.209 146.209 462 144 462H88V398Z" fill="#C4C4C4"/>
<path d="M148 402C148 399.791 149.791 398 152 398H208C210.209 398 212 399.791 212 402V458C212 460.209 210.209 462 208 462H152C149.791 462 148 460.209 148 458V402Z" fill="#C4C4C4"/>
<path d="M212 402C212 399.791 213.791 398 216 398H272V462H216C213.791 462 212 460.209 212 458V402Z" fill="#C4C4C4"/>
<path d="M280 398H336C338.209 398 340 399.791 340 402V462H280V398Z" fill="#C4C4C4"/>
<path d="M340 402C340 399.791 341.791 398 344 398H404V462H340V402Z" fill="#C4C4C4"/>
<path d="M404 398H464C466.209 398 468 399.791 468 402V462H404V398Z" fill="#C4C4C4"/>
<path d="M468 402C468 399.791 469.791 398 472 398H528V462H468V402Z" fill="#C4C4C4"/>
<path d="M536 398H596V462H536V398Z" fill="#C4C4C4"/>
<path d="M596 402C596 399.791 597.791 398 600 398H660V458C660 460.209 658.209 462 656 462H596V402Z" fill="#C4C4C4"/>
<path d="M724 398H784C786.209 398 788 399.791 788 402V458C788 460.209 786.209 462 784 462H724V398Z" fill="#C4C4C4"/>
<path d="M24 462H80V518C80 520.209 78.2091 522 76 522H28C25.7909 522 24 520.209 24 518V462Z" fill="#C4C4C4"/>
<path d="M88 462H144C146.209 462 148 463.791 148 466V522H92C89.7909 522 88 520.209 88 518V462Z" fill="#C4C4C4"/>
<path d="M148 466C148 463.791 149.791 462 152 462H208C210.209 462 212 463.791 212 466V522H148V466Z" fill="#C4C4C4"/>
<path d="M212 466C212 463.791 213.791 462 216 462H272V518C272 520.209 270.209 522 268 522H212V466Z" fill="#C4C4C4"/>
<path d="M280 462H340V522C340 524.209 338.209 526 336 526H280V462Z" fill="#C4C4C4"/>
<path d="M340 462H404V526H344C341.791 526 340 524.209 340 522V462Z" fill="#C4C4C4"/>
<path d="M404 462H468V522C468 524.209 466.209 526 464 526H404V462Z" fill="#C4C4C4"/>
<path d="M468 462H528V526H472C469.791 526 468 524.209 468 522V462Z" fill="#C4C4C4"/>
<path d="M532 466C532 463.791 533.791 462 536 462H596V526H536C533.791 526 532 524.209 532 522V466Z" fill="#C4C4C4"/>
<path d="M596 462H660V526H596V462Z" fill="#C4C4C4"/>
<path d="M660 462H720C722.209 462 724 463.791 724 466V526H664C661.791 526 660 524.209 660 522V462Z" fill="#C4C4C4"/>
<path d="M724 462H784V526H724V462Z" fill="#C4C4C4"/>
<path d="M24 534C24 531.791 25.7909 530 28 530H76C78.2091 530 80 531.791 80 534V582C80 584.209 78.2091 586 76 586H28C25.7909 586 24 584.209 24 582V534Z" fill="#C4C4C4"/>
<path d="M88 534C88 531.791 89.7909 530 92 530H148V586H92C89.7909 586 88 584.209 88 582V534Z" fill="#C4C4C4"/>
<path d="M148 530H212V586H148V530Z" fill="#C4C4C4"/>
<path d="M212 530H268C270.209 530 272 531.791 272 534V582C272 584.209 270.209 586 268 586H212V530Z" fill="#C4C4C4"/>
<path d="M276 530C276 527.791 277.791 526 280 526H336C338.209 526 340 527.791 340 530V586C340 588.209 338.209 590 336 590H276V530Z" fill="#C4C4C4"/>
<path d="M340 530C340 527.791 341.791 526 344 526H404V590H340V530Z" fill="#C4C4C4"/>
<path d="M404 526H464C466.209 526 468 527.791 468 530V590H404V526Z" fill="#C4C4C4"/>
<path d="M468 530C468 527.791 469.791 526 472 526H528C530.209 526 532 527.791 532 530V590H472C469.791 590 468 588.209 468 586V530Z" fill="#C4C4C4"/>
<path d="M536 526H596V586H540C537.791 586 536 584.209 536 582V526Z" fill="#C4C4C4"/>
<path d="M596 526H660V586H596V526Z" fill="#C4C4C4"/>
<path d="M660 526H724V586C724 588.209 722.209 590 720 590H664C661.791 590 660 588.209 660 586V526Z" fill="#C4C4C4"/>
<path d="M724 526H784V582C784 584.209 782.209 586 780 586H724V526Z" fill="#C4C4C4"/>
</svg>
