<svg width="82" height="262" viewBox="0 0 82 262" fill="none" xmlns="http://www.w3.org/2000/svg">
<rect x="5.5022" y="5.50023" width="71" height="251" rx="35.5" stroke="#1D2942" stroke-width="11"/>
<rect x="69.0017" y="250" width="56" height="237" rx="28" transform="rotate(-180 69.0017 250)" stroke="black" stroke-opacity="0.11" stroke-width="4"/>
<path d="M51.1405 195.737C51.459 195.661 51.5437 195.917 51.7335 196.079C59.4397 202.621 63.851 215.935 61.2557 225.822C59.5447 232.342 54.0323 237.942 47.9202 240.378C48.696 239.363 49.499 238.222 49.9073 236.985C52.6787 228.577 40.8035 225.273 45.0403 216.857C44.715 216.612 42.323 218.401 41.9114 218.75C39.66 220.661 37.6525 223.454 36.7377 226.3C35.679 226.334 35.8026 224.778 35.9009 223.99C35.9466 223.63 36.3481 223.334 36.1465 223.039C31.3185 227.388 29.4957 236.331 34.8743 240.983C34.4881 241.074 33.8917 240.783 33.5224 240.636C24.9472 237.195 18.2946 227.194 20.3919 217.712C22.0741 210.113 29.3534 204.47 32.3654 197.396C34.5744 192.208 34.2543 187.041 31.8284 182C40.5697 186.25 47.0647 194.356 50.6289 203.387C51.974 203.606 52.4212 201.685 52.4924 200.627C52.6042 198.944 52.0757 197.123 51.1405 195.737Z" fill="#1D2942"/>
</svg>
