<svg width="263" height="82" viewBox="0 0 263 82" fill="none" xmlns="http://www.w3.org/2000/svg">
<rect x="257.5" y="5.50012" width="71" height="252" rx="35.5" transform="rotate(90 257.5 5.50012)" stroke="#FDFDFD" stroke-width="11"/>
<rect x="250" y="13.0001" width="56" height="237" rx="28" transform="rotate(90 250 13.0001)" stroke="black" stroke-opacity="0.11" stroke-width="4"/>
<path d="M41.5 18.0001C29.0742 18.0001 19 28.0743 19 40.5001C19 52.926 29.0742 63.0001 41.5 63.0001C53.9258 63.0001 64 52.926 64 40.5001C63.9877 28.0805 53.9217 18.0145 41.5 18.0001ZM55.8832 43.4782H38.524V27.1768C38.524 25.5316 39.8569 24.1987 41.5021 24.1987C43.1472 24.1987 44.4801 25.5316 44.4801 27.1768V37.5241H55.8832C57.5283 37.5241 58.8613 38.857 58.8613 40.5022C58.8613 42.1473 57.5283 43.4803 55.8832 43.4803V43.4782Z" fill="white"/>
</svg>
