<svg width="512" height="512" viewBox="0 0 512 512" fill="none" xmlns="http://www.w3.org/2000/svg">
<g clip-path="url(#clip0_911_326)">
<mask id="mask0_911_326" style="mask-type:luminance" maskUnits="userSpaceOnUse" x="0" y="0" width="512" height="512">
<path d="M512 0H0V512H512V0Z" fill="white"/>
</mask>
<g mask="url(#mask0_911_326)">
<path d="M164.027 130.853C165.268 130.847 165.268 130.847 166.534 130.842C169.316 130.831 172.098 130.827 174.88 130.823C176.871 130.817 178.862 130.81 180.852 130.803C186.268 130.786 191.683 130.775 197.098 130.767C200.48 130.762 203.862 130.756 207.244 130.749C217.821 130.73 228.399 130.716 238.976 130.708C251.193 130.698 263.411 130.672 275.628 130.631C285.067 130.601 294.505 130.586 303.944 130.583C309.584 130.581 315.223 130.572 320.863 130.547C326.168 130.523 331.472 130.519 336.777 130.529C338.724 130.53 340.671 130.523 342.618 130.51C345.277 130.492 347.934 130.499 350.592 130.512C351.363 130.501 352.133 130.49 352.927 130.479C358.098 130.541 361.004 131.759 365 135C369.553 140.181 369.213 145.258 369.25 151.812C369.281 153.148 369.281 153.148 369.313 154.51C369.344 159.769 368.989 163.475 366 168C361.385 171.881 359.346 172.093 353 173C353 239 353 305 353 373C355.97 373 358.94 373 362 373C361.918 371.969 361.835 370.937 361.75 369.875C362.044 365.321 363.14 363.496 366 360C370.248 356.267 374.151 355.647 379.649 355.719C384.475 356.296 387.764 358.564 390.938 362.25C392.378 365.977 392.069 369.01 392 373C393.688 372.976 393.688 372.976 395.409 372.952C399.593 372.898 403.777 372.864 407.961 372.835C409.77 372.82 411.579 372.8 413.388 372.774C415.992 372.737 418.595 372.72 421.199 372.707C422.408 372.684 422.408 372.684 423.64 372.66C429.626 372.658 432.791 374.03 437.313 378.062C439.773 382.346 439.917 386.175 439 391C437.304 394.117 435.222 396.389 432 398C430.11 398.1 428.216 398.135 426.323 398.14C425.108 398.145 423.892 398.151 422.64 398.157C421.279 398.158 419.918 398.16 418.557 398.161C417.121 398.165 415.685 398.17 414.249 398.176C410.287 398.19 406.326 398.198 402.365 398.204C398.971 398.21 395.577 398.22 392.183 398.231C380.999 398.264 369.815 398.285 358.631 398.304C355.719 398.309 352.808 398.314 349.897 398.319C331.827 398.35 313.757 398.376 295.687 398.393C291.5 398.397 287.312 398.401 283.125 398.405C282.084 398.406 281.043 398.407 279.971 398.408C263.108 398.425 246.245 398.466 229.382 398.517C212.078 398.569 194.774 398.598 177.47 398.605C167.751 398.61 158.031 398.625 148.312 398.665C140.036 398.699 131.759 398.713 123.482 398.7C119.258 398.695 115.035 398.699 110.812 398.729C106.944 398.756 103.078 398.756 99.2104 398.733C97.8119 398.73 96.4134 398.737 95.0151 398.755C83.2764 398.898 83.2764 398.898 78.6831 395.101C75.5851 391.929 74.9403 389.543 74.8008 385.176C75.2348 380.436 76.972 377.859 80.5649 374.856C84.9187 372.503 88.0442 372.484 92.8985 372.609C93.7334 372.615 94.5684 372.621 95.4286 372.627C98.078 372.649 100.726 372.699 103.375 372.75C105.178 372.77 106.982 372.788 108.785 372.805C113.191 372.849 117.595 372.918 122 373C122.046 372.39 122.092 371.78 122.14 371.152C122.212 370.348 122.285 369.543 122.359 368.715C122.426 367.919 122.493 367.124 122.561 366.304C123.307 362.384 125.098 360.704 128 358C132.055 355.589 136.384 355.42 141 356C145.66 357.703 148.478 359.702 151 364C151.607 367.033 151.815 369.897 152 373C155.3 373 158.6 373 162 373C162 307 162 241 162 173C159.36 172.67 156.72 172.34 154 172C151.758 170.766 151.758 170.766 150.125 169.25C149.571 168.76 149.016 168.27 148.445 167.766C144.721 163.216 144.645 158.357 144.687 152.688C144.695 151.55 144.695 151.55 144.702 150.39C144.845 143.625 145.411 138.524 150.5 133.562C154.964 130.773 158.931 130.852 164.027 130.853Z" fill="#1D2942"/>
<path d="M173 173C175.97 173 178.94 173 182 173C182 178.61 182 184.22 182 190C185.96 190 189.92 190 194 190C194.228 193.092 194.456 196.185 194.684 199.277C194.704 201.911 194.704 201.911 196 203C197.781 203.087 199.565 203.107 201.348 203.098C202.427 203.094 203.507 203.091 204.619 203.088C205.755 203.08 206.892 203.071 208.062 203.062C209.203 203.058 210.343 203.053 211.518 203.049C214.345 203.037 217.173 203.019 220 203C220.33 198.71 220.66 194.42 221 190C228.59 190 236.18 190 244 190C244.495 196.435 244.495 196.435 245 203C248.979 203.027 252.958 203.047 256.938 203.062C258.642 203.075 258.642 203.075 260.381 203.088C261.46 203.091 262.54 203.094 263.652 203.098C264.653 203.103 265.653 203.108 266.683 203.113C268.962 203.262 268.962 203.262 270 202C270.154 199.216 270.232 196.473 270.25 193.688C270.271 192.915 270.291 192.142 270.312 191.346C270.344 186.788 270.071 184.552 267 181C267.33 180.01 267.66 179.02 268 178C269.32 178 270.64 178 272 178C272 177.01 272 176.02 272 175C279.05 174.071 285.929 173.868 293.035 173.902C294.154 173.904 295.274 173.905 296.427 173.907C299.972 173.912 303.517 173.925 307.062 173.938C309.479 173.943 311.895 173.947 314.311 173.951C320.207 173.962 326.104 173.979 332 174C332 178.62 332 183.24 332 188C328.37 188 324.74 188 321 188C320.01 186.02 320.01 186.02 319 184C310.75 184 302.5 184 294 184C293.979 186.949 293.959 189.899 293.938 192.938C293.928 193.868 293.919 194.799 293.91 195.758C293.907 196.486 293.905 197.214 293.902 197.965C293.894 199.088 293.894 199.088 293.886 200.234C293.807 202.027 293.807 202.027 295 203C296.781 203.087 298.565 203.107 300.348 203.098C301.427 203.094 302.507 203.091 303.619 203.088C304.755 203.08 305.892 203.071 307.062 203.062C308.203 203.058 309.343 203.053 310.518 203.049C313.345 203.037 316.173 203.021 319 203C320.284 200.431 320.33 198.234 320.562 195.375C320.707 193.601 320.851 191.827 321 190C324.96 190 328.92 190 333 190C333.33 212.44 333.66 234.88 334 258C334.66 258 335.32 258 336 258C335.514 257.018 335.514 257.018 335.019 256.016C333.74 252.231 333.694 248.69 333.699 244.742C333.695 243.957 333.691 243.173 333.686 242.364C333.681 240.712 333.68 239.059 333.684 237.407C333.688 234.876 333.664 232.347 333.639 229.816C333.636 228.208 333.636 226.6 333.637 224.992C333.628 224.236 333.618 223.48 333.609 222.7C333.655 217.472 333.655 217.472 335.46 215.001C337 214 337 214 338 214C338.061 212.686 338.121 211.373 338.184 210.02C338.268 208.284 338.353 206.548 338.438 204.812C338.477 203.948 338.516 203.084 338.557 202.193C338.763 198.041 339.001 194.055 340 190C340.33 190 340.66 190 341 190C341 250.39 341 310.78 341 373C323.84 373 306.68 373 289 373C288.688 351.438 288.688 351.438 288.612 344.67C288.58 342.883 288.546 341.096 288.512 339.309C288.505 338.394 288.499 337.48 288.493 336.538C288.368 330.972 287.837 326.849 285 322C280.68 317.975 275.42 318.566 269.844 318.602C268.864 318.599 267.884 318.596 266.874 318.593C264.807 318.591 262.739 318.596 260.671 318.609C257.511 318.625 254.352 318.609 251.191 318.59C249.18 318.592 247.168 318.596 245.156 318.602C244.213 318.595 243.271 318.589 242.299 318.583C235.634 318.65 235.634 318.65 230 322C226.006 326.549 226.525 331.808 226.488 337.551C226.472 338.45 226.455 339.349 226.438 340.276C226.38 343.621 226.348 346.967 226.312 350.312C226.209 357.799 226.106 365.286 226 373C208.51 373 191.02 373 173 373C173 307 173 241 173 173Z" fill="#F3E7E4"/>
<path d="M239.288 317.886C240.149 317.887 241.009 317.887 241.896 317.887C242.821 317.892 243.746 317.897 244.699 317.902C245.649 317.904 246.6 317.905 247.579 317.907C250.615 317.912 253.651 317.925 256.688 317.938C258.745 317.943 260.803 317.947 262.861 317.951C267.908 317.962 272.954 317.979 278 318C277.34 318.66 276.68 319.32 276 320C276 320.99 276 321.98 276 323C276.99 322.34 277.98 321.68 279 321C279.99 321 280.98 321 282 321C283.049 322.636 284.049 324.305 285 326C285.99 326.495 285.99 326.495 287 327C287 342.51 287 358.02 287 374C289.31 374.66 291.62 375.32 294 376C294.33 376.66 294.66 377.32 295 378C298.029 378.658 298.029 378.658 301 379C301 379.33 301 379.66 301 380C299.35 380 297.7 380 296 380C296 380.66 296 381.32 296 382C289.73 382 283.46 382 277 382C277 381.67 277 381.34 277 381C270.4 380.67 263.8 380.34 257 380C257 379.34 257 378.68 257 378C257.782 377.951 258.565 377.902 259.371 377.852C260.383 377.777 261.395 377.702 262.438 377.625C263.952 377.521 263.952 377.521 265.496 377.414C266.322 377.277 267.149 377.141 268 377C268.33 376.34 268.66 375.68 269 375C268.229 375.084 267.458 375.168 266.664 375.254C265.16 375.407 265.16 375.407 263.625 375.563C262.128 375.719 262.128 375.719 260.602 375.879C258 376 258 376 256 375C253.586 374.876 251.167 374.824 248.75 374.813C247.445 374.798 246.141 374.784 244.797 374.77C241.152 374.991 238.381 375.672 235 377C235.33 377.99 235.66 378.98 236 380C239.068 381.534 242.317 381.38 245.692 381.543C246.556 381.585 247.42 381.626 248.311 381.669C263.578 382.316 278.875 382.234 294.154 382.303C298.837 382.325 303.52 382.353 308.203 382.379C317.039 382.429 325.874 382.474 334.71 382.517C344.783 382.567 354.856 382.622 364.929 382.677C385.619 382.79 406.309 382.897 427 383C427.66 384.32 428.32 385.64 429 387C427 389 427 389 424.58 389.25C423.552 389.249 422.524 389.249 421.465 389.249C420.282 389.254 419.098 389.258 417.878 389.263C416.567 389.258 415.255 389.253 413.903 389.247C412.505 389.249 411.106 389.251 409.707 389.255C405.851 389.261 401.994 389.255 398.137 389.247C393.983 389.24 389.829 389.245 385.675 389.249C377.532 389.254 369.388 389.248 361.245 389.239C351.771 389.228 342.296 389.229 332.822 389.229C315.922 389.23 299.022 389.22 282.123 389.206C265.708 389.192 249.292 389.185 232.877 389.185C231.361 389.185 231.361 389.185 229.814 389.185C228.3 389.186 228.3 389.186 226.756 389.186C208.092 389.186 189.428 389.18 170.765 389.171C164.154 389.168 157.543 389.167 150.932 389.167C142.88 389.166 134.828 389.162 126.776 389.153C122.665 389.148 118.553 389.145 114.442 389.146C110.683 389.147 106.924 389.144 103.165 389.137C101.151 389.134 99.1361 389.136 97.1215 389.138C95.3461 389.134 95.3461 389.134 93.5348 389.129C91.9929 389.128 91.9929 389.128 90.4198 389.127C88 389 88 389 86 388C86 386.68 86 385.36 86 384C88.9769 382.512 91.6986 382.834 95.02 382.795C95.7421 382.785 96.4641 382.775 97.2081 382.765C99.5996 382.733 101.991 382.708 104.383 382.684C106.039 382.663 107.695 382.642 109.352 382.621C113.715 382.565 118.078 382.516 122.441 382.468C126.892 382.418 131.342 382.362 135.793 382.307C144.529 382.199 153.264 382.098 162 382C162.66 380.68 163.32 379.36 164 378C164.66 378 165.32 378 166 378C166.121 377.374 166.242 376.747 166.367 376.102C166.535 375.284 166.702 374.467 166.875 373.625C167.037 372.813 167.2 372.001 167.367 371.164C168 369 168 369 170 367C170.99 367 171.98 367 173 367C173 368.98 173 370.96 173 373C190.49 373 207.98 373 226 373C225.881 358.086 225.881 358.086 225.73 343.173C225.721 341.299 225.713 339.425 225.707 337.551C225.684 336.099 225.684 336.099 225.661 334.619C225.658 328.445 226.41 325.022 230.5 320.25C233.23 317.975 235.893 317.877 239.288 317.886Z" fill="#1C2841"/>
<path d="M166.781 141.619C167.582 141.614 168.383 141.61 169.208 141.605C171.901 141.593 174.593 141.602 177.285 141.612C179.212 141.608 181.138 141.602 183.065 141.596C188.304 141.582 193.544 141.588 198.783 141.597C204.259 141.605 209.735 141.598 215.211 141.593C224.408 141.587 233.605 141.595 242.802 141.609C253.444 141.625 264.086 141.62 274.728 141.603C283.855 141.59 292.982 141.588 302.109 141.596C307.565 141.6 313.021 141.601 318.476 141.591C323.605 141.582 328.733 141.588 333.861 141.606C335.746 141.61 337.632 141.609 339.517 141.602C342.085 141.594 344.651 141.604 347.219 141.619C348.346 141.609 348.346 141.609 349.497 141.599C352.425 141.632 354.491 141.657 356.959 143.321C358.687 146.109 358.434 148.773 358.438 152C358.457 153.238 358.476 154.475 358.496 155.75C358 159 358 159 356.458 160.679C353.065 162.503 349.937 162.418 346.181 162.388C345.388 162.393 344.595 162.398 343.779 162.404C341.119 162.418 338.46 162.411 335.801 162.404C333.896 162.41 331.99 162.417 330.085 162.425C324.907 162.443 319.73 162.442 314.552 162.436C310.233 162.433 305.913 162.439 301.594 162.445C291.407 162.459 281.22 162.457 271.032 162.446C260.515 162.435 249.997 162.449 239.479 162.475C230.455 162.498 221.43 162.504 212.406 162.498C207.013 162.495 201.621 162.498 196.229 162.515C191.159 162.53 186.09 162.526 181.021 162.507C179.159 162.504 177.296 162.507 175.434 162.517C172.895 162.53 170.358 162.519 167.819 162.501C166.708 162.516 166.708 162.516 165.575 162.53C162.163 162.481 160.309 162.231 157.542 160.164C155.416 157.18 155.5 155.069 155.562 151.438C155.564 149.734 155.564 149.734 155.566 147.996C156 145 156 145 157.041 143.337C160.078 141.264 163.231 141.587 166.781 141.619Z" fill="#CFBCCD"/>
<path d="M182 173C234.47 173 286.94 173 341 173C341 190 341 190 340 195C339.905 196.511 339.847 198.025 339.824 199.539C339.8 200.367 339.777 201.194 339.752 202.047C339.709 203.773 339.678 205.5 339.658 207.227C339.617 208.464 339.617 208.464 339.574 209.727C339.56 210.475 339.545 211.223 339.53 211.995C339 214 339 214 336.991 215.268C334.605 216.957 334.605 216.958 334.53 220.566C334.524 222.041 334.54 223.517 334.574 224.992C334.577 225.775 334.581 226.558 334.584 227.365C334.6 229.869 334.644 232.371 334.688 234.875C334.699 236.553 334.709 238.232 334.717 239.91C334.73 241.521 334.745 243.132 334.762 244.742C334.769 245.494 334.776 246.247 334.784 247.022C334.852 250.794 335.103 254.33 336 258C335.34 258 334.68 258 334 258C333.67 258.99 333.34 259.98 333 261C333 237.57 333 214.14 333 190C329.04 190 325.08 190 321 190C321.041 191.753 321.083 193.506 321.125 195.312C321.25 200.625 321.25 200.625 319 204C316.602 204.372 316.602 204.372 313.625 204.363C312.558 204.363 311.49 204.362 310.391 204.361C309.272 204.345 308.153 204.329 307 204.312C305.322 204.317 305.322 204.317 303.609 204.322C295.267 204.267 295.267 204.267 293 202C292.757 200.136 292.757 200.136 292.77 197.902C292.771 197.101 292.773 196.3 292.775 195.475C292.788 194.637 292.8 193.8 292.812 192.938C292.813 191.676 292.813 191.676 292.814 190.389C292.86 184.14 292.86 184.14 294 183C298.14 182.747 302.291 182.815 306.438 182.812C307.609 182.8 308.78 182.788 309.986 182.775C311.103 182.773 312.22 182.772 313.371 182.77C314.402 182.765 315.432 182.761 316.494 182.757C319 183 319 183 321 185C321 185.99 321 186.98 321 188C321.626 187.916 322.253 187.832 322.898 187.746C323.716 187.644 324.533 187.542 325.375 187.438C326.187 187.333 326.999 187.229 327.836 187.121C330 187 330 187 332 188C332 183.38 332 178.76 332 174C312.2 174.33 292.4 174.66 272 175C272 175.99 272 176.98 272 178C271.01 178 270.02 178 269 178C268.67 178.99 268.34 179.98 268 181C268.702 181.816 268.702 181.816 269.418 182.648C271.794 186.179 271.4 189.469 271.312 193.625C271.316 194.401 271.319 195.177 271.322 195.977C271.267 201.733 271.267 201.733 269 204C266.586 204.243 266.586 204.243 263.59 204.23C262.518 204.228 261.446 204.227 260.342 204.225C259.218 204.212 258.095 204.2 256.938 204.188C255.247 204.187 255.247 204.187 253.521 204.186C245.14 204.14 245.14 204.14 244 203C243.856 198.665 243.958 194.338 244 190C236.41 190 228.82 190 221 190C221.021 192.124 221.041 194.249 221.062 196.438C221.084 198.625 221.073 200.814 221 203C218.467 205.533 211.47 204.186 208.062 204.188C206.939 204.2 205.816 204.212 204.658 204.225C203.586 204.226 202.515 204.228 201.41 204.23C199.927 204.237 199.927 204.237 198.414 204.243C196 204 196 204 194 202C193.722 197.988 193.914 194.025 194 190C190.04 190 186.08 190 182 190C182 184.39 182 178.78 182 173Z" fill="#BC98A7"/>
<path d="M174 190C176.64 190 179.28 190 182 190C182.33 236.2 182.66 282.4 183 330C183.33 330 183.66 330 184 330C184.495 329.01 184.495 329.01 185 328C185.99 327.67 186.98 327.34 188 327C188.733 324.985 188.733 324.985 189 323C190.65 323 192.3 323 194 323C193.505 323.577 193.01 324.155 192.5 324.75C190.63 327.104 190.63 327.104 191 331C195.372 330.516 197.037 329.297 199.875 326C202.648 323.091 203.832 322.056 207.75 320.75C211 321 211 321 213.438 322.5C215.641 326.026 215.695 327.9 215 332C213.59 333.887 212.037 335.527 210.402 337.223C208.173 340.048 208.144 342.467 208 346C208.763 345.814 209.526 345.629 210.312 345.438C213 345 213 345 216 346C216.33 345.01 216.66 344.02 217 343C217.619 342.897 218.237 342.794 218.875 342.688C221.375 342.142 221.375 342.142 222.75 338.938C223.162 337.968 223.575 336.999 224 336C224.33 336 224.66 336 225 336C225 347.55 225 359.1 225 371C199.755 371.495 199.755 371.495 174 372C174 311.94 174 251.88 174 190Z" fill="#FBF6F4"/>
<path d="M325 272C326.98 272.33 328.96 272.66 331 273C332.224 277.765 332.134 282.406 332.113 287.288C332.114 288.216 332.114 289.143 332.114 290.098C332.113 293.155 332.105 296.213 332.098 299.27C332.096 301.392 332.094 303.515 332.093 305.638C332.09 311.219 332.08 316.8 332.069 322.382C332.057 329.082 332.052 335.781 332.046 342.481C332.037 352.654 332.017 362.827 332 373C317.81 373 303.62 373 289 373C289 361.12 289 349.24 289 337C289.33 337.66 289.66 338.32 290 339C290.66 339 291.32 339 292 339C292 340.32 292 341.64 292 343C293.485 342.505 293.485 342.505 295 342C295.99 342.66 296.98 343.32 298 344C298 345.32 298 346.64 298 348C298.66 348 299.32 348 300 348C300 348.66 300 349.32 300 350C302.31 350 304.62 350 307 350C307 349.34 307 348.68 307 348C308.98 347.01 308.98 347.01 311 346C310.34 345.67 309.68 345.34 309 345C308.037 343.307 307.078 341.611 306.148 339.898C305.017 338.029 303.785 336.546 302.312 334.938C299.773 331.712 298.825 330.104 299 326C301.191 323.036 302.639 321.262 306.332 320.551C310.708 321.288 312.99 324.434 315.982 327.533C317.521 329.099 317.521 329.099 320 331C322.295 330.955 322.295 330.955 324 330C324 328.68 324 327.36 324 326C324.66 326 325.32 326 326 326C325.67 325.01 325.34 324.02 325 323C324.381 322.897 323.763 322.794 323.125 322.688C321 322 321 322 319.438 319.125C318.963 318.094 318.489 317.062 318 316C317.464 315.464 316.927 314.928 316.375 314.375C315 313 315 313 314.5 310.875C314.335 310.256 314.17 309.638 314 309C312.515 308.505 312.515 308.505 311 308C312.65 307.34 314.3 306.68 316 306C316.082 302.623 315.932 299.539 315.438 296.188C315.293 295.136 315.149 294.084 315 293C315.33 292.67 315.66 292.34 316 292C315.67 291.34 315.34 290.68 315 290C315.99 290 316.98 290 318 290C318 288.02 318 286.04 318 284C318.639 283.814 319.279 283.629 319.938 283.438C322.403 282.079 322.403 282.079 322.625 278.562C322.811 276.799 322.811 276.799 323 275C323.66 274.01 324.32 273.02 325 272Z" fill="#FAEFEB"/>
<path d="M93.5404 382.877C94.7252 382.875 95.9101 382.873 97.1308 382.871C98.4441 382.874 99.7573 382.877 101.11 382.88C102.51 382.879 103.91 382.878 105.31 382.877C109.171 382.875 113.032 382.879 116.892 382.884C121.05 382.888 125.208 382.887 129.367 382.886C136.575 382.886 143.784 382.889 150.993 382.894C161.416 382.902 171.838 382.905 182.261 382.906C199.17 382.908 216.079 382.915 232.987 382.925C249.416 382.934 265.845 382.941 282.273 382.945C283.286 382.945 284.298 382.946 285.34 382.946C290.417 382.947 295.494 382.948 300.571 382.95C342.714 382.96 384.857 382.978 427 383C427.66 384.32 428.32 385.64 429 387C427 389 427 389 424.58 389.25C423.552 389.249 422.524 389.249 421.465 389.249C420.282 389.254 419.098 389.258 417.878 389.263C415.911 389.255 415.911 389.255 413.903 389.247C412.505 389.249 411.106 389.251 409.707 389.255C405.851 389.261 401.994 389.255 398.137 389.247C393.983 389.24 389.829 389.245 385.675 389.249C377.532 389.254 369.388 389.248 361.245 389.239C351.771 389.228 342.296 389.229 332.822 389.229C315.922 389.23 299.022 389.22 282.123 389.206C265.708 389.192 249.292 389.185 232.877 389.185C231.361 389.185 231.361 389.185 229.814 389.185C228.3 389.185 228.3 389.186 226.756 389.186C208.092 389.186 189.428 389.18 170.765 389.171C164.154 389.168 157.543 389.167 150.932 389.167C142.88 389.166 134.828 389.162 126.776 389.153C122.665 389.148 118.553 389.145 114.442 389.146C110.683 389.147 106.924 389.144 103.165 389.136C101.151 389.134 99.1361 389.136 97.1215 389.138C95.3461 389.134 95.3461 389.134 93.5348 389.129C91.9929 389.128 91.9929 389.128 90.4198 389.127C88 389 88 389 86 388C86 386.68 86 385.36 86 384C88.6354 382.682 90.5875 382.876 93.5404 382.877Z" fill="#9F98AD"/>
<path d="M238 329C250.87 329 263.74 329 277 329C277 343.52 277 358.04 277 373C264.13 373 251.26 373 238 373C238 358.48 238 343.96 238 329Z" fill="#986F90"/>
<path d="M164.388 141.742C165.145 141.748 165.902 141.753 166.681 141.759C167.885 141.757 167.885 141.757 169.112 141.754C171.814 141.751 174.517 141.762 177.219 141.773C179.15 141.773 181.082 141.773 183.013 141.772C188.269 141.771 193.525 141.783 198.781 141.797C204.269 141.81 209.757 141.811 215.245 141.813C225.643 141.819 236.041 141.836 246.439 141.856C258.274 141.878 270.11 141.889 281.945 141.899C306.297 141.92 330.648 141.955 355 142C354.125 145.875 354.125 145.875 353 147C350.566 147.108 348.16 147.15 345.725 147.151C344.569 147.158 344.569 147.158 343.39 147.164C340.788 147.177 338.186 147.183 335.584 147.189C333.727 147.197 331.87 147.206 330.012 147.215C326.003 147.233 321.993 147.248 317.984 147.26C311.648 147.281 305.313 147.308 298.978 147.337C285.527 147.397 272.076 147.449 258.625 147.5C244.113 147.555 229.601 147.611 215.089 147.678C208.787 147.706 202.484 147.73 196.182 147.749C192.265 147.763 188.348 147.78 184.431 147.799C182.61 147.807 180.789 147.813 178.968 147.817C176.488 147.823 174.009 147.835 171.529 147.848C170.44 147.849 170.44 147.849 169.329 147.849C166.276 147.872 163.921 148.026 161 149C160.01 148.67 159.02 148.34 158 148C157.188 146.062 157.188 146.062 157 144C159.499 141.501 160.979 141.762 164.388 141.742Z" fill="#FBFAFD"/>
<path d="M89 385C131.753 384.931 174.507 384.878 217.26 384.847C222.303 384.843 227.347 384.839 232.39 384.835C233.394 384.834 234.398 384.834 235.432 384.833C251.707 384.82 267.981 384.796 284.255 384.769C300.944 384.741 317.633 384.724 334.323 384.718C344.627 384.714 354.932 384.701 365.236 384.676C372.295 384.66 379.354 384.656 386.413 384.659C390.49 384.661 394.567 384.658 398.644 384.642C402.373 384.628 406.102 384.627 409.831 384.637C411.827 384.639 413.823 384.626 415.819 384.613C416.995 384.619 418.171 384.625 419.383 384.631C420.403 384.63 421.423 384.629 422.473 384.627C425.357 385.053 426.239 385.736 428 388C386.98 388.023 345.959 388.041 304.939 388.051C300.091 388.052 295.244 388.054 290.396 388.055C288.949 388.055 288.949 388.055 287.472 388.056C271.865 388.06 256.259 388.068 240.652 388.077C224.628 388.086 208.603 388.092 192.578 388.094C182.697 388.095 172.817 388.1 162.936 388.108C156.152 388.113 149.368 388.115 142.583 388.113C138.675 388.113 134.766 388.114 130.858 388.119C127.269 388.124 123.68 388.124 120.091 388.121C118.2 388.12 116.308 388.125 114.416 388.129C105.903 388.114 97.4847 387.653 89 387C89 386.34 89 385.68 89 385Z" fill="#D3BBD1"/>
<path d="M215 259C219.197 261.313 221.544 264.244 224 268.313C225.628 274.317 225.112 278.856 222.25 284.375C218.773 288.431 215.851 290.032 210.625 290.875C205.263 291.284 201.455 290.051 197.27 286.555C193.592 282.799 192.063 279.461 191.84 274.199C192.241 268.689 194.491 265.201 198.5 261.625C203.694 257.365 208.652 257.449 215 259Z" fill="#1C293E"/>
<path d="M313.813 260.25C316.9 262.72 319.229 265.458 321 269C321.406 273.847 321.673 278.419 319.75 282.937C318.884 283.958 318.884 283.958 318 285C317.423 285.722 316.845 286.444 316.25 287.187C312.165 290.478 308.214 290.981 303.063 291.062C297.83 290.216 294.445 286.823 291 283C288.392 279.14 288.703 275.074 289.262 270.574C290.819 265.146 294.758 261.475 299.375 258.437C304.429 257.595 309.135 258.171 313.813 260.25Z" fill="#1E2C42"/>
<path d="M264.188 275.125C268.072 277.715 270.887 280.773 273 285C273.403 289.807 273.534 294.399 272 299C267.776 303.224 262.697 304.173 256.938 304.375C251.049 304.167 247.084 302.817 242.563 298.875C240.012 294.182 240.169 289.902 241.625 284.816C243.63 280.082 246.359 277.316 250.852 274.844C255.548 272.999 259.421 273.443 264.188 275.125Z" fill="#1E293E"/>
<path d="M293.035 173.902C294.154 173.904 295.274 173.905 296.427 173.907C299.972 173.912 303.517 173.925 307.062 173.938C309.479 173.943 311.894 173.947 314.31 173.951C320.207 173.962 326.104 173.979 332 174C332 178.62 332 183.24 332 188C328.37 188 324.74 188 321 188C320.34 186.68 319.68 185.36 319 184C310.75 184 302.5 184 294 184C293.67 185.98 293.34 187.96 293 190C285.74 190 278.48 190 271 190C270.34 188.02 269.68 186.04 269 184C268.34 183.01 267.68 182.02 267 181C267.33 180.01 267.66 179.02 268 178C269.32 178 270.64 178 272 178C272 177.01 272 176.02 272 175C279.05 174.071 285.929 173.868 293.035 173.902Z" fill="#C099A8"/>
<path d="M250.375 182.734C251.442 182.732 252.51 182.729 253.609 182.727C255.288 182.738 255.288 182.738 257 182.75C258.119 182.742 259.238 182.735 260.391 182.727C261.458 182.729 262.525 182.732 263.625 182.734C264.607 182.737 265.59 182.739 266.602 182.741C269 183 269 183 271 185C271.199 187.873 271.278 190.629 271.25 193.5C271.258 194.285 271.265 195.07 271.273 195.879C271.253 201.747 271.253 201.747 269 204C266.586 204.243 266.586 204.243 263.59 204.23C262.518 204.229 261.446 204.227 260.342 204.225C259.218 204.212 258.095 204.2 256.937 204.188C255.247 204.187 255.247 204.187 253.521 204.186C245.14 204.14 245.14 204.14 244 203C243.709 200.014 243.485 197.055 243.312 194.063C243.253 193.225 243.193 192.388 243.131 191.525C243.084 190.724 243.037 189.923 242.988 189.098C242.942 188.36 242.896 187.623 242.849 186.863C243.219 182.304 246.711 182.743 250.375 182.734Z" fill="#212C43"/>
<path d="M299.531 182.867C300.651 182.866 301.772 182.865 302.926 182.863C304.105 182.867 305.285 182.871 306.5 182.875C308.269 182.869 308.269 182.869 310.074 182.863C311.755 182.865 311.755 182.865 313.469 182.867C314.505 182.868 315.54 182.869 316.607 182.871C319 183 319 183 320 184C320.099 185.403 320.131 186.812 320.133 188.219C320.135 189.493 320.135 189.493 320.137 190.793C320.133 191.686 320.129 192.58 320.125 193.5C320.131 194.84 320.131 194.84 320.137 196.207C320.135 197.056 320.134 197.906 320.133 198.781C320.132 199.566 320.131 200.35 320.129 201.158C320 203 320 203 319 204C315.027 204.253 311.042 204.185 307.062 204.187C305.939 204.2 304.816 204.212 303.658 204.225C302.586 204.227 301.515 204.228 300.41 204.23C298.927 204.237 298.927 204.237 297.414 204.243C295 204 295 204 293 202C292.757 200.136 292.757 200.136 292.77 197.902C292.771 197.101 292.773 196.3 292.775 195.475C292.788 194.637 292.8 193.8 292.813 192.937C292.813 192.096 292.814 191.255 292.814 190.389C292.869 182.874 292.869 182.874 299.531 182.867Z" fill="#1F2B42"/>
<path d="M198.414 182.757C199.897 182.763 199.897 182.763 201.41 182.77C202.482 182.771 203.554 182.773 204.658 182.775C205.782 182.788 206.905 182.8 208.062 182.812C209.753 182.813 209.753 182.813 211.479 182.814C219.86 182.86 219.86 182.86 221 184C221.099 185.403 221.131 186.812 221.133 188.219C221.135 189.493 221.135 189.493 221.137 190.793C221.133 191.686 221.129 192.58 221.125 193.5C221.131 194.84 221.131 194.84 221.137 196.207C221.135 197.056 221.134 197.906 221.133 198.781C221.132 199.566 221.131 200.35 221.129 201.158C221 203 221 203 220 204C216.027 204.253 212.042 204.185 208.062 204.187C206.939 204.2 205.816 204.212 204.658 204.225C203.586 204.227 202.514 204.228 201.41 204.23C199.927 204.237 199.927 204.237 198.414 204.243C196 204 196 204 194 202C193.801 199.127 193.722 196.371 193.75 193.5C193.742 192.715 193.735 191.93 193.727 191.121C193.754 183.226 193.754 183.226 198.414 182.757Z" fill="#202B41"/>
<path d="M299.531 209.867C300.651 209.866 301.772 209.865 302.926 209.863C304.105 209.867 305.285 209.871 306.5 209.875C308.269 209.869 308.269 209.869 310.074 209.863C311.754 209.865 311.754 209.865 313.469 209.867C314.504 209.868 315.54 209.869 316.607 209.871C319 210 319 210 320 211C320.086 212.416 320.107 213.836 320.098 215.254C320.094 216.108 320.091 216.962 320.088 217.842C320.079 218.74 320.071 219.637 320.062 220.563C320.058 221.464 320.053 222.366 320.049 223.295C320.037 225.53 320.02 227.765 320 230C315.687 230.029 311.375 230.047 307.062 230.063C305.831 230.071 304.599 230.079 303.33 230.088C302.16 230.091 300.99 230.094 299.785 230.098C298.159 230.106 298.159 230.106 296.5 230.114C294 230 294 230 293 229C292.902 227.67 292.869 226.334 292.867 225C292.866 224.196 292.865 223.391 292.863 222.563C292.867 221.717 292.871 220.871 292.875 220C292.871 219.154 292.867 218.309 292.863 217.438C292.865 216.633 292.866 215.829 292.867 215C292.868 214.258 292.869 213.515 292.871 212.75C293.16 208.837 296.306 209.871 299.531 209.867Z" fill="#1B293F"/>
<path d="M250.531 209.867C251.651 209.866 252.772 209.865 253.926 209.863C255.105 209.867 256.285 209.871 257.5 209.875C259.269 209.869 259.269 209.869 261.074 209.863C262.754 209.865 262.754 209.865 264.469 209.867C265.504 209.868 266.54 209.869 267.607 209.871C270 210 270 210 271 211C271.098 212.33 271.131 213.666 271.133 215C271.135 216.207 271.135 216.207 271.137 217.437C271.133 218.283 271.129 219.129 271.125 220C271.131 221.268 271.131 221.268 271.137 222.563C271.135 223.367 271.134 224.171 271.133 225C271.132 225.743 271.131 226.485 271.129 227.25C271 229 271 229 270 230C268.073 230.087 266.143 230.107 264.215 230.098C263.045 230.094 261.875 230.091 260.67 230.088C258.822 230.075 258.822 230.075 256.937 230.063C255.084 230.056 255.084 230.056 253.193 230.049C250.129 230.037 247.064 230.021 244 230C243.971 226.854 243.953 223.708 243.938 220.563C243.929 219.665 243.921 218.767 243.912 217.842C243.909 216.988 243.906 216.134 243.902 215.254C243.894 214.068 243.894 214.068 243.886 212.858C244.132 208.837 247.191 209.871 250.531 209.867Z" fill="#1D2A41"/>
<path d="M198.414 209.757C199.897 209.763 199.897 209.763 201.41 209.77C202.482 209.771 203.554 209.773 204.658 209.775C205.782 209.788 206.905 209.8 208.062 209.812C209.753 209.813 209.753 209.813 211.478 209.814C219.86 209.86 219.86 209.86 221 211C221.098 212.33 221.131 213.666 221.133 215C221.135 216.207 221.135 216.207 221.137 217.438C221.133 218.283 221.129 219.129 221.125 220C221.131 221.268 221.131 221.268 221.137 222.562C221.135 223.367 221.134 224.171 221.133 225C221.132 225.742 221.131 226.485 221.129 227.25C221 229 221 229 220 230C218.158 230.1 216.313 230.131 214.469 230.133C213.348 230.134 212.228 230.135 211.074 230.137C209.895 230.133 208.715 230.129 207.5 230.125C205.731 230.131 205.731 230.131 203.926 230.137C202.245 230.135 202.245 230.135 200.531 230.133C199.495 230.132 198.46 230.131 197.393 230.129C195 230 195 230 194 229C193.873 226.176 193.815 223.387 193.812 220.562C193.8 219.773 193.788 218.983 193.775 218.17C193.77 216.112 193.878 214.054 194 212C196 210 196 210 198.414 209.757Z" fill="#1C2A3F"/>
<path d="M246 338C249.63 338 253.26 338 257 338C257 349.22 257 360.44 257 372C252.71 372 248.42 372 244 372C243.951 367.479 243.914 362.959 243.89 358.438C243.88 356.899 243.866 355.361 243.849 353.823C243.825 351.614 243.814 349.405 243.805 347.195C243.794 346.506 243.784 345.816 243.773 345.105C243.773 343.402 243.878 341.699 244 340C244.66 339.34 245.32 338.68 246 338Z" fill="#D4BED0"/>
<path d="M257 329C263.6 329 270.2 329 277 329C277 343.19 277 357.38 277 372C276.34 372 275.68 372 275 372C274.505 362.595 274.505 362.595 274 353C273.01 352.67 272.02 352.34 271 352C271 351.01 271 350.02 271 349C270.072 349.186 269.144 349.371 268.188 349.562C265 350 265 350 262 349C262.33 346.69 262.66 344.38 263 342C260.03 341.505 260.03 341.505 257 341C257 337.04 257 333.08 257 329Z" fill="#8B5C83"/>
<path d="M212 264C213.812 265.125 213.812 265.125 215 267C215.505 270.968 215.618 273.107 213.312 276.438C210.616 278.26 209.189 278.354 206 278C206.33 278.66 206.66 279.32 207 280C209.31 280 211.62 280 214 280C214.33 279.01 214.66 278.02 215 277C215.33 277 215.66 277 216 277C216 278.65 216 280.3 216 282C218.31 281.34 220.62 280.68 223 280C223 277.36 223 274.72 223 272C223.66 272 224.32 272 225 272C224.731 278.048 224.082 282.238 220 287C215.9 290.397 211.226 291.187 206 291C203.413 290.257 201.396 289.274 199 288C198.496 282.706 199.811 280.186 203 276C202.34 275.01 201.68 274.02 201 273C201.062 269.5 201.062 269.5 202 266C205.395 262.983 207.739 262.43 212 264Z" fill="#222F44"/>
<path d="M311 315C316.813 317.98 321.032 322.92 325 328C324.34 329.32 323.68 330.64 323 332C318.863 331.486 317.034 329.271 314.187 326.375C310.941 323.193 310.941 323.193 306.863 321.523C304.751 321.695 304.751 321.695 302 323C299.772 325.763 299.772 325.763 299.938 328.625C301.291 332.923 303.662 335.585 306.602 338.949C307.063 339.626 307.525 340.303 308 341C307.67 341.99 307.34 342.98 307 344C304.937 344.437 304.937 344.437 302 344C297.591 340.566 293.555 336.547 292.664 330.851C292.568 325.397 293.256 322.25 297 318C301.169 314.426 305.732 313.925 311 315Z" fill="#1D2B3D"/>
<path d="M216.312 316.625C219.405 319.358 220.737 321.063 222 325C222.319 332.414 219.674 336.722 215.062 342.375C212.529 344.371 211.147 344.35 208 344C207.625 341.937 207.625 341.937 208 339C209.336 337.355 209.336 337.355 211 335.625C213.547 332.867 213.975 332.169 214.562 328.25C214.194 325.114 214.194 325.114 212.938 323C210.549 321.767 208.676 321.611 206.031 322.07C202.286 323.784 199.843 327.076 197.211 330.164C195 332 195 332 192.227 331.773C191.124 331.391 191.124 331.391 190 331C190.745 324.799 194.427 321.905 199 318C204.772 314.152 210.111 313.583 216.312 316.625Z" fill="#1B2A3B"/>
<path d="M355 143C355.99 143.66 356.98 144.32 358 145C358.434 148.152 358.434 148.152 358.438 151.938C358.457 153.184 358.476 154.43 358.496 155.715C358 159 358 159 356.452 160.683C353.082 162.493 349.997 162.405 346.268 162.361C345.485 162.363 344.701 162.366 343.894 162.368C341.267 162.373 338.64 162.357 336.013 162.341C334.13 162.34 332.248 162.34 330.366 162.342C325.252 162.343 320.139 162.325 315.026 162.304C309.683 162.285 304.341 162.284 298.998 162.28C288.88 162.271 278.762 162.246 268.644 162.216C257.125 162.182 245.607 162.166 234.088 162.151C210.392 162.12 186.696 162.067 163 162C163 161.67 163 161.34 163 161C225.37 161 287.74 161 352 161C352 156.38 352 151.76 352 147C352.99 145.68 353.98 144.36 355 143Z" fill="#A295AD"/>
<path d="M313.812 260.25C316.9 262.72 319.229 265.458 321 269C321.07 270.707 321.084 272.417 321.062 274.125C321.053 275.035 321.044 275.945 321.035 276.883C321.024 277.581 321.012 278.28 321 279C318.474 276.637 317.112 275.335 316 272C315.01 272.99 314.02 273.98 313 275C312.34 274.67 311.68 274.34 311 274C311.093 272.608 311.093 272.608 311.188 271.188C311.241 268.104 311.241 268.104 309.938 266.125C306.933 264.38 304.392 264.692 301 265C298.817 266.761 298.817 266.761 298.805 268.945C298.828 269.665 298.851 270.384 298.875 271.125C298.916 272.404 298.958 273.683 299 275C297.68 275 296.36 275 295 275C295 274.34 295 273.68 295 273C294.01 273 293.02 273 292 273C292 272.34 292 271.68 292 271C291.34 271 290.68 271 290 271C290.487 266.723 291.578 264.979 294.875 262.25C295.574 261.657 296.272 261.064 296.992 260.453C302.1 256.756 308.317 257.807 313.812 260.25Z" fill="#1C283B"/>
<path d="M312 295C315.125 297.312 315.125 297.312 317 300C317.125 302.125 317.125 302.125 316 304C312.075 307.663 307.693 307.443 302.602 307.285C299.325 306.926 297.388 306.308 295 304C294.188 301.312 294.188 301.312 294 299C299.833 293.977 304.54 293.052 312 295Z" fill="#D3888D"/>
<path d="M216 295C218.211 296.482 219.354 297.86 221 300C219.532 304.65 219.532 304.65 217.262 306.145C212.07 308.108 206 307.76 200.875 305.813C198.591 303.605 198.253 302.125 198 299C204.007 293.967 208.412 293.176 216 295Z" fill="#D3878C"/>
<path d="M295 231C301.101 231.127 308.598 233.599 313 238C313.188 240.438 313.188 240.438 313 243C311 245 311 245 308.5 245.438C302.804 244.726 297.086 242.086 293 238C292.75 235.5 292.75 235.5 293 233C293.66 232.34 294.32 231.68 295 231Z" fill="#1E2A3D"/>
<path d="M220 231C220.66 231.66 221.32 232.32 222 233C221.984 235.914 221.984 235.914 221 239C218.453 240.898 218.453 240.898 215.25 242.375C214.203 242.878 213.157 243.38 212.078 243.898C209.086 244.969 207.135 245.406 204 245C202 243 202 243 201.625 240.563C202 238 202 238 203.438 236.438C214.812 230.057 214.812 230.057 220 231Z" fill="#1E2D3F"/>
<path d="M257 329C263.6 329 270.2 329 277 329C277 331.97 277 334.94 277 338C270.4 338 263.8 338 257 338C257 335.03 257 332.06 257 329Z" fill="#6A456A"/>
<path d="M138 360C139.938 361.062 139.938 361.062 142 363C142.75 366.688 142.75 366.688 143 370C144.98 369.67 146.96 369.34 149 369C149.33 368.01 149.66 367.02 150 366C149.34 366 148.68 366 148 366C148.66 364.68 149.32 363.36 150 362C151.802 365.83 152.196 368.781 152 373C154.97 373 157.94 373 161 373C157.203 374.898 156.01 375.401 152 375C151.385 374.667 150.771 374.335 150.137 373.992C147.651 372.838 146.031 372.796 143.305 372.875C142.424 372.891 141.544 372.906 140.637 372.922C139.725 372.948 138.814 372.973 137.875 373C136.06 373.051 134.245 373.093 132.43 373.125C131.227 373.16 131.227 373.16 130 373.195C128 373 128 373 126 371C127.65 370.67 129.3 370.34 131 370C131.217 369.041 131.217 369.041 131.438 368.062C132 366 132 366 133 365C134.666 364.959 136.334 364.957 138 365C138 364.34 138 363.68 138 363C137.34 362.67 136.68 362.34 136 362C136.66 361.34 137.32 360.68 138 360Z" fill="#413957"/>
<path d="M284 320C288.15 324.262 289.13 327.69 289.113 333.493C289.113 334.374 289.113 335.254 289.113 336.162C289.108 337.103 289.103 338.045 289.098 339.016C289.096 339.987 289.095 340.958 289.093 341.958C289.088 345.055 289.075 348.153 289.062 351.25C289.058 353.352 289.053 355.453 289.049 357.555C289.038 362.703 289.021 367.852 289 373C293.95 373.33 298.9 373.66 304 374C303.67 374.66 303.34 375.32 303 376C301.271 376.054 299.542 376.093 297.812 376.125C296.85 376.148 295.887 376.171 294.895 376.195C292 376 292 376 287 374C287 358.49 287 342.98 287 327C286.01 326.67 285.02 326.34 284 326C282.812 323.437 282.812 323.437 282 321C280.02 321.66 278.04 322.32 276 323C276 322.01 276 321.02 276 320C275.01 319.67 274.02 319.34 273 319C277.298 317.736 279.944 318.101 284 320Z" fill="#3D4251"/>
<path d="M212 264C213.813 265.125 213.813 265.125 215 267C215.499 270.92 215.553 273.116 213.438 276.5C211 278 211 278 207.438 278C204 277 204 277 202 275.375C200.516 271.85 200.943 269.632 202 266C205.395 262.983 207.739 262.43 212 264Z" fill="#F5F8FB"/>
<path d="M308 264C310.437 265.625 310.437 265.625 312 268C312.562 271 312.562 271 312 274C309.875 276.437 309.875 276.437 307 278C303.816 277.936 301.851 277.51 299.125 275.875C297.325 272.876 297.635 270.406 298 267C300.223 262.947 303.799 263.484 308 264Z" fill="#F7F9FB"/>
<path d="M173 173C175.97 173 178.94 173 182 173C182 178.61 182 184.22 182 190C179.03 190 176.06 190 173 190C173 184.39 173 178.78 173 173Z" fill="#E3D6E2"/>
<path d="M368 358C368.66 358.33 369.32 358.66 370 359C368.625 361 368.625 361 367 363C366.34 363 365.68 363 365 363C365 363.99 365 364.98 365 366C365.66 366 366.32 366 367 366C367 366.66 367 367.32 367 368C366.34 368 365.68 368 365 368C365 368.66 365 369.32 365 370C366.65 370.33 368.3 370.66 370 371C370.33 369.68 370.66 368.36 371 367C378.385 365.646 378.385 365.646 381.5 367.438C381.995 367.953 382.49 368.469 383 369C382.67 370.65 382.34 372.3 382 374C381.408 374.037 380.817 374.075 380.207 374.113C375.393 374.514 371.992 375.038 368 378C367.67 377.34 367.34 376.68 367 376C367.66 375.67 368.32 375.34 369 375C368.67 374.34 368.34 373.68 368 373C366.02 373.33 364.04 373.66 362 374C361.577 367.871 361.99 364.953 366 360C366.66 359.34 367.32 358.68 368 358Z" fill="#483E5A"/>
<path d="M333 173C335.64 173 338.28 173 341 173C341 178.61 341 184.22 341 190C338.36 190 335.72 190 333 190C333 184.39 333 178.78 333 173Z" fill="#9E728F"/>
<path d="M259.094 291.594C261.948 292.202 263.29 293.72 265 296C264.67 296.99 264.34 297.98 264 299C259.38 299 254.76 299 250 299C249.67 298.01 249.34 297.02 249 296C251.988 292.016 254.338 291.381 259.094 291.594Z" fill="#CC6072"/>
</g>
</g>
<defs>
<clipPath id="clip0_911_326">
<rect width="512" height="512" fill="white"/>
</clipPath>
</defs>
</svg>
