<svg width="512" height="512" viewBox="0 0 512 512" fill="none" xmlns="http://www.w3.org/2000/svg">
<path d="M182.038 159.839C182.845 159.834 183.652 159.829 184.484 159.824C187.151 159.809 189.817 159.802 192.484 159.797C194.343 159.791 196.201 159.785 198.06 159.78C201.957 159.769 205.854 159.763 209.751 159.76C214.732 159.754 219.712 159.73 224.693 159.702C228.533 159.683 232.373 159.678 236.213 159.676C238.049 159.673 239.884 159.665 241.72 159.652C244.295 159.635 246.869 159.637 249.444 159.644C250.194 159.634 250.945 159.625 251.718 159.616C257.081 159.658 261.1 160.782 266 163C270.404 167.63 271.124 170.331 271.062 176.625C271.053 177.814 271.044 179.002 271.035 180.227C271.018 181.599 271.018 181.599 271 183C271.785 182.954 272.57 182.907 273.379 182.859C282.082 182.56 286.109 183.562 292.687 189.375C297.289 194.599 299.603 199.26 301.386 205.926C301.812 207.971 301.812 207.971 303 209C303 212.3 303 215.6 303 219C323.79 219 344.58 219 366 219C365.67 217.35 365.34 215.7 365 214C361.416 212.998 363.188 206.468 363 203.5C362.615 197.412 372 195 372 195C372 195 381.5 193.5 386 196C386.33 196.33 386.66 196.66 387 197C387.125 198.621 387.175 200.249 387.187 201.875C387.201 202.759 387.216 203.644 387.23 204.555C387 207 387 207 385 210C384.34 210 383.68 210 383 210C383 212.97 383 215.94 383 219C383.887 218.897 384.773 218.794 385.687 218.688C389 219 389 219 391.671 221.063C394.596 224.752 394.61 226.63 394.58 231.297C394.582 232.013 394.585 232.729 394.587 233.467C394.589 235.015 394.58 236.563 394.561 238.111C394.531 240.562 394.532 243.011 394.541 245.462C394.555 250.663 394.53 255.862 394.5 261.063C394.465 267.094 394.445 273.123 394.468 279.154C394.468 281.568 394.439 283.98 394.409 286.393C394.411 287.873 394.415 289.353 394.42 290.833C394.411 292.123 394.403 293.414 394.394 294.744C394.701 298.178 394.701 298.178 397.474 300.323C398.307 300.877 399.141 301.43 400 302C401.516 305.032 401.249 307.88 401.312 311.25C401.35 312.555 401.387 313.859 401.426 315.203C400.933 319.596 399.833 321.646 397 325C393.546 327.628 389.966 327.203 385.75 327.125C384.486 327.107 383.223 327.089 381.922 327.071C380.957 327.047 379.993 327.024 379 327C378.873 327.925 378.747 328.849 378.617 329.801C377.622 334.959 374.695 338.422 371 342C372.809 342.038 372.809 342.038 374.656 342.076C379.116 342.17 383.575 342.27 388.035 342.373C389.968 342.416 391.901 342.458 393.834 342.498C396.607 342.555 399.38 342.619 402.152 342.684C403.022 342.701 403.892 342.717 404.788 342.735C410.886 342.886 410.886 342.886 412 344C412.04 345.667 412.042 347.334 412 349C409.526 350.237 407.901 350.126 405.134 350.126C403.582 350.13 403.582 350.13 401.999 350.134C400.281 350.131 400.281 350.131 398.529 350.127C396.714 350.13 396.714 350.13 394.863 350.132C391.494 350.135 388.126 350.134 384.758 350.131C381.129 350.129 377.501 350.132 373.872 350.135C366.76 350.14 359.648 350.139 352.536 350.136C346.758 350.133 340.981 350.133 335.203 350.134C334.382 350.134 333.561 350.134 332.715 350.135C331.048 350.135 329.38 350.135 327.713 350.136C312.062 350.138 296.411 350.135 280.761 350.13C267.317 350.125 253.874 350.126 240.43 350.131C224.836 350.136 209.241 350.138 193.646 350.135C191.985 350.135 190.324 350.134 188.663 350.134C187.845 350.134 187.028 350.134 186.186 350.134C180.411 350.133 174.637 350.134 168.863 350.137C161.831 350.139 154.8 350.139 147.768 350.133C144.177 350.131 140.586 350.13 136.995 350.133C133.112 350.137 129.228 350.132 125.344 350.127C124.197 350.13 123.049 350.132 121.867 350.134C120.835 350.132 119.803 350.129 118.74 350.126C117.842 350.126 116.945 350.126 116.02 350.126C114 350 114 350 113 349C112.875 346.5 112.875 346.5 113 344C114.557 342.444 116.079 342.837 118.244 342.795C119.145 342.775 120.046 342.755 120.974 342.735C122.443 342.71 122.443 342.71 123.941 342.684C124.939 342.663 125.936 342.642 126.964 342.621C130.163 342.555 133.363 342.497 136.562 342.438C138.726 342.395 140.889 342.351 143.053 342.307C148.368 342.2 153.684 342.098 159 342C158.583 341.463 158.166 340.927 157.736 340.373C157.191 339.662 156.647 338.952 156.086 338.219C155.545 337.517 155.004 336.815 154.447 336.092C152.675 333.531 151.753 331.012 151 328C149.915 327.986 148.829 327.972 147.711 327.957C146.266 327.91 144.82 327.862 143.375 327.813C142.662 327.807 141.949 327.801 141.215 327.795C135.53 327.561 132.918 326.159 129 322C126.968 318.346 126.703 315.148 126.687 311C126.671 309.99 126.654 308.979 126.637 307.938C127.055 304.554 127.98 302.726 130 300C131.485 299.01 131.485 299.01 133 298C133.315 295.508 133.441 293.251 133.441 290.754C133.455 290.029 133.468 289.303 133.481 288.555C133.522 286.224 133.544 283.894 133.562 281.563C133.762 262.486 133.762 262.486 136 253C134.948 253.103 133.896 253.206 132.812 253.312C129 253 129 253 126.301 251.199C122.883 246.447 123.268 242.211 123.375 236.5C123.356 235.467 123.336 234.435 123.316 233.371C123.365 225.83 123.365 225.83 126.414 221.844C130.027 219.268 131.738 218.881 136.125 218.938C137.035 218.946 137.945 218.955 138.883 218.965C139.581 218.976 140.28 218.988 141 219C141.098 217.793 141.196 216.587 141.297 215.344C141.447 213.729 141.598 212.115 141.75 210.5C141.843 209.313 141.843 209.313 141.937 208.102C142.661 200.742 144.954 194.417 150.375 189.188C150.973 188.609 151.571 188.03 152.187 187.434C154 186 154 186 157.375 184.75C160.237 183.288 160.237 183.288 160.488 180.59C160.622 178.636 160.73 176.68 160.812 174.723C161.162 169.646 163.241 166.483 166.937 163.187C171.856 159.674 176.124 159.848 182.038 159.839Z" fill="#202A31"/>
<path d="M182.165 159.886C182.985 159.886 183.805 159.886 184.65 159.886C187.355 159.887 190.06 159.894 192.766 159.902C194.643 159.904 196.521 159.906 198.398 159.907C203.337 159.91 208.275 159.92 213.214 159.931C218.254 159.942 223.295 159.946 228.336 159.951C238.224 159.962 248.112 159.979 258 160C258 160.33 258 160.66 258 161C246.78 161.33 235.56 161.66 224 162C226.31 162.33 228.62 162.66 231 163C231.495 164.98 231.495 164.98 232 167C230.923 167.009 230.923 167.009 229.825 167.018C223.056 167.076 216.288 167.148 209.52 167.236C206.041 167.28 202.562 167.32 199.082 167.346C195.08 167.377 191.079 167.432 187.078 167.488C185.83 167.495 184.582 167.501 183.296 167.508C182.135 167.527 180.974 167.547 179.778 167.568C178.246 167.584 178.246 167.584 176.683 167.601C173.601 168.059 172.18 168.791 170 171C170 171.99 170 172.98 170 174C179.24 174 188.48 174 198 174C198 176.97 198 179.94 198 183C209.88 183 221.76 183 234 183C234 180.03 234 177.06 234 174C243.9 174 253.8 174 264 174C264.33 173.01 264.66 172.02 265 171C265.33 171.99 265.66 172.98 266 174C266.66 174 267.32 174 268 174C268.219 177.842 267.726 180.547 266 184C263.286 185.357 261.151 185.112 258.117 185.098C256.95 185.094 255.784 185.091 254.582 185.088C253.358 185.079 252.135 185.071 250.875 185.062C249.644 185.058 248.413 185.053 247.144 185.049C244.096 185.037 241.048 185.02 238 185C238 185.66 238 186.32 238 187C239.073 186.989 240.147 186.979 241.253 186.968C245.273 186.932 249.293 186.909 253.313 186.89C255.047 186.88 256.78 186.866 258.513 186.849C261.018 186.825 263.522 186.813 266.027 186.805C266.79 186.794 267.553 186.784 268.339 186.773C273.784 186.772 278.735 187.629 284 189C284 189.66 284 190.32 284 191C283.237 190.839 282.474 190.677 281.688 190.511C276.773 189.83 271.938 189.836 266.981 189.823C265.881 189.816 264.781 189.81 263.648 189.803C260.018 189.783 256.388 189.772 252.758 189.762C250.894 189.756 250.894 189.756 248.993 189.749C243.099 189.731 237.204 189.716 231.309 189.708C224.524 189.698 217.74 189.672 210.955 189.631C205.061 189.597 199.168 189.586 193.274 189.582C190.774 189.577 188.275 189.565 185.775 189.546C182.276 189.522 178.777 189.523 175.278 189.53C174.25 189.517 173.222 189.504 172.163 189.491C166.073 189.535 160.85 190.03 156 194C154.023 196.527 152.445 199.139 151 202C152.787 202.005 152.787 202.005 154.611 202.011C165.838 202.048 177.065 202.106 188.291 202.184C194.063 202.223 199.835 202.256 205.607 202.271C211.177 202.286 216.746 202.32 222.316 202.368C224.441 202.383 226.567 202.391 228.692 202.392C231.669 202.394 234.644 202.421 237.62 202.454C238.939 202.447 238.939 202.447 240.285 202.439C244.336 202.508 246.496 202.695 250.03 204.837C252.811 207.89 252.888 209.892 253 214C252.733 217.194 252.228 220.321 251.672 223.477C251.522 224.365 251.372 225.253 251.218 226.168C250.9 228.037 250.577 229.904 250.249 231.77C249.751 234.621 249.274 237.474 248.801 240.328C248.488 242.149 248.174 243.969 247.859 245.789C247.648 247.063 247.648 247.063 247.433 248.362C246.369 254.29 244.75 259.001 240 263C238.119 263.381 238.119 263.381 235.963 263.392C234.735 263.408 234.735 263.408 233.482 263.425C232.587 263.422 231.693 263.419 230.771 263.416C229.353 263.429 229.353 263.429 227.907 263.442C224.779 263.467 221.651 263.471 218.523 263.476C216.355 263.49 214.187 263.506 212.019 263.523C206.308 263.565 200.598 263.59 194.887 263.611C185.738 263.647 176.589 263.707 167.44 263.769C164.235 263.788 161.03 263.8 157.826 263.811C155.874 263.821 153.922 263.831 151.97 263.842C151.072 263.843 150.173 263.844 149.247 263.845C145.308 263.479 145.308 263.479 142 265C141.84 267.446 141.741 269.867 141.684 272.316C141.663 273.047 141.642 273.778 141.621 274.531C141.555 276.875 141.496 279.218 141.437 281.562C141.394 283.147 141.351 284.733 141.307 286.318C141.199 290.212 141.098 294.106 141 298C143.31 297.67 145.62 297.339 148 297C147.505 296.525 147.01 296.051 146.5 295.562C144.275 291.761 144.182 288.298 145 284C146.719 280.931 148.807 278.596 152 277C159.02 276.424 159.02 276.424 162.875 278.687C166.2 282.305 167.025 284.572 166.937 289.5C165.832 293.625 164.219 295.275 161 298C161 297.009 161 296.02 161 295C160.01 294.67 159.02 294.339 158 294C158.33 291.03 158.66 288.06 159 285C157.009 284.618 155.007 284.286 153 284C151.685 285.106 151.685 285.106 151.687 287.875C151.664 291.096 151.664 291.096 154 292.875C154.66 293.246 155.32 293.617 156 294C155.67 294.66 155.34 295.32 155 296C153.68 296 152.36 296 151 296C150.67 298.31 150.34 300.619 150 303C149.001 303.204 148.002 303.409 146.973 303.621C145.682 303.89 144.392 304.159 143.062 304.437C141.775 304.704 140.487 304.971 139.16 305.246C136.154 305.671 136.154 305.671 135 307C134.901 308.643 134.87 310.291 134.875 311.937C134.872 312.833 134.87 313.729 134.867 314.652C134.846 317.021 134.846 317.021 136 319C138.841 319.946 140.581 320.125 143.523 320.126C144.914 320.131 144.914 320.131 146.332 320.135C147.854 320.132 147.854 320.132 149.406 320.129C151.012 320.132 151.012 320.132 152.649 320.134C156.195 320.139 159.74 320.136 163.285 320.132C165.742 320.133 168.199 320.134 170.657 320.135C175.809 320.137 180.961 320.135 186.114 320.13C192.731 320.124 199.348 320.127 205.965 320.133C211.039 320.137 216.113 320.136 221.187 320.133C223.627 320.133 226.068 320.133 228.508 320.136C231.913 320.138 235.318 320.134 238.723 320.129C240.248 320.132 240.248 320.132 241.803 320.135C242.727 320.132 243.651 320.129 244.603 320.126C245.812 320.126 245.812 320.126 247.044 320.125C249.08 320.122 249.08 320.122 251 319C251.861 316.416 252.216 314.666 252.312 312C252.368 310.979 252.368 310.979 252.426 309.937C252.159 307.841 252.159 307.841 250.271 306.41C247.7 304.813 246.233 304.584 243.234 304.488C242.345 304.452 241.455 304.417 240.539 304.38C239.158 304.347 239.158 304.347 237.75 304.312C236.814 304.278 235.878 304.244 234.914 304.208C232.609 304.126 230.305 304.057 228 304C227.67 303.339 227.34 302.679 227 302C227.66 301.67 228.32 301.339 229 301C228.34 299.02 227.68 297.039 227 295C228.32 294.67 229.64 294.339 231 294C230.67 295.32 230.34 296.64 230 298C230.66 298 231.32 298 232 298C231.938 297.236 231.876 296.473 231.812 295.687C232 293 232 293 233.562 291.5C234.037 291.005 234.511 290.509 235 290C234.769 287.345 234.769 287.345 234 285C230.528 284.25 230.528 284.25 227 284C226.67 285.98 226.34 287.96 226 290C225.67 289.339 225.34 288.679 225 288C224.34 288.33 223.68 288.66 223 289C223 290.979 223 292.96 223 295C221.5 294 221.5 294 220 292C219.144 285.476 219.144 285.476 221.054 282.179C222.828 280.007 224.475 278.262 227 277C233.813 276.318 233.813 276.318 236.824 278.046C238.988 279.828 240.738 281.476 242 284C242.379 289.024 242.003 291.915 239 296C238.67 296.33 238.34 296.66 238 297C240.97 297.33 243.94 297.66 247 298C246.988 297.082 246.977 296.164 246.965 295.218C246.861 281.124 246.861 281.124 248 276C248.664 275.485 249.327 274.971 250.011 274.441C253.167 270.566 252.559 266.411 252.562 261.562C252.593 255.236 252.716 251.465 256 246C256.538 241.576 256.436 237.111 256.439 232.66C256.53 228.26 256.59 225.677 258.91 221.844C261 220 261 220 263 220C262.876 218.969 262.752 217.937 262.625 216.875C263.069 212.288 264.148 211.161 267.394 208.164C271.65 205.079 276.994 205.559 282 206C286.293 207.735 288.014 209.873 290 214C290.299 216.843 290.444 219.46 290.433 222.301C290.439 223.096 290.444 223.891 290.449 224.71C290.456 226.389 290.454 228.067 290.446 229.746C290.437 232.294 290.466 234.84 290.498 237.389C290.499 239.026 290.499 240.663 290.496 242.301C290.507 243.053 290.518 243.805 290.53 244.581C290.458 250.113 289.066 254.368 286 259C282.197 262.253 279.091 262.336 274.187 262.187C272.445 262.146 272.445 262.146 270.668 262.105C269.787 262.07 268.907 262.035 268 262C268 260.68 268 259.36 268 258C268.66 258 269.32 258 270 258C270.33 256.68 270.66 255.36 271 254C271.939 254.052 271.939 254.052 272.898 254.105C273.715 254.132 274.533 254.16 275.375 254.187C276.593 254.24 276.593 254.24 277.836 254.293C278.55 254.196 279.264 254.1 280 254C282.558 250.163 282.253 247.055 282.195 242.613C282.192 241.796 282.189 240.979 282.186 240.137C282.175 237.529 282.15 234.921 282.125 232.312C282.115 230.544 282.106 228.775 282.097 227.006C282.075 222.67 282.041 218.335 282 214C278.7 214 275.4 214 272 214C271.01 215.98 270.02 217.96 269 220C269.887 219.876 270.773 219.752 271.687 219.625C275 220 275 220 277.676 222.394C280.972 226.612 280.666 230.909 280.5 236.062C280.502 236.947 280.505 237.832 280.508 238.744C280.435 243.597 280.211 247.114 277 251C273.345 253.436 272.013 253.12 267.875 252.488C265.527 251.877 264.346 251.019 263 249C263 248.67 263 248.34 263 248C266.63 247.67 270.26 247.34 274 247C274.06 245.964 274.121 244.927 274.183 243.859C274.268 242.49 274.352 241.12 274.437 239.75C274.477 239.068 274.516 238.386 274.556 237.684C274.766 234.355 275.019 231.197 276 228C272.419 226.465 270.542 225.877 266.687 226.75C263.883 227.715 263.883 227.715 263 230C262.34 230 261.68 230 261 230C261.33 234.95 261.66 239.9 262 245C261.34 245 260.68 245 260 245C260 246.65 260 248.3 260 250C259.34 250 258.68 250 258 250C258.33 250.66 258.66 251.32 259 252C259.293 255.41 259.278 258.829 259.312 262.25C259.341 263.192 259.37 264.134 259.4 265.105C259.456 271.261 258.47 273.849 255 279C254.383 282.549 254.395 286.029 254.437 289.625C254.413 290.566 254.39 291.507 254.365 292.476C254.303 298.155 254.303 298.155 257.535 302.648C258.348 303.094 259.162 303.54 260 304C260.536 303.113 261.072 302.226 261.625 301.312C264.723 296.665 268.829 293.196 274 291C280.33 289.976 285.787 291.261 291 295C291.66 295.99 292.32 296.979 293 298C290.03 297.009 287.06 296.02 284 295C284 294.339 284 293.679 284 293C281.03 293.33 278.06 293.66 275 294C275 294.66 275 295.32 275 296C276.98 296.33 278.96 296.66 281 297C281 297.33 281 297.66 281 298C280.229 298.17 279.458 298.34 278.664 298.515C277.661 298.757 276.658 299 275.625 299.25C274.627 299.482 273.629 299.714 272.601 299.953C269.947 300.751 269.947 300.751 268.773 302.707C267.796 305.604 266.868 308.504 266 311.437C264.83 315.38 263.589 319.205 262 323C261.01 322.67 260.02 322.339 259 322C258.312 319.937 258.312 319.937 258 318C257.34 318.33 256.68 318.66 256 319C255.34 318.67 254.68 318.339 254 318C253.67 319.649 253.34 321.3 253 323C253.66 323 254.32 323 255 323C254.67 323.99 254.34 324.979 254 326C251.03 326.33 248.06 326.66 245 327C245 327.66 245 328.32 245 329C242.525 329.99 242.525 329.99 240 331C239.67 330.009 239.34 329.02 239 328C228.77 327.67 218.54 327.339 208 327C207.505 330.96 207.505 330.96 207 335C205.02 337.31 203.04 339.619 201 342C214.86 342.33 228.72 342.66 243 343C243 343.66 243 344.32 243 345C245.97 345.33 248.94 345.66 252 346C252 346.66 252 347.32 252 348C253.32 348 254.64 348 256 348C256 347.339 256 346.679 256 346C266.489 345.02 276.513 345.104 287 346C287 345.009 287 344.02 287 343C285.927 343.185 284.855 343.371 283.75 343.562C280.48 343.943 279.006 343.898 276 343C276.796 342.624 277.593 342.249 278.414 341.863C284.213 339.062 289.307 336.431 294 332C294.33 333.32 294.66 334.64 295 336C294.01 336.33 293.02 336.66 292 337C292 338.649 292 340.3 292 342C308.83 342.494 308.83 342.494 326 343C324.02 340.03 322.04 337.06 320 334C319.125 329.937 319.125 329.937 319 327C320.333 327.666 321.666 328.333 323 329C323.33 328.009 323.66 327.02 324 326C324.99 326.33 325.98 326.66 327 327C327.041 328.01 327.082 329.021 327.125 330.062C327.732 334.088 329.371 336.644 332.101 339.621C335.422 342.032 339.001 342.062 343 342C341.02 339.524 341.02 339.524 339 337C343.42 336.676 346.037 337.474 350.011 339.316C355.274 341.125 360.391 340.744 365.375 338.437C370.111 334.039 372.61 329.001 373.238 322.554C373.411 316.318 372.521 311.753 369.875 306.093C369 304 369 304 369 301C369.33 300.339 369.66 299.679 370 299C372.25 299.062 372.25 299.062 375 300C379.793 306.923 380.161 312.766 380 321C382.31 320.67 384.62 320.339 387 320C387.33 302.839 387.66 285.68 388 268C372.414 267.711 372.414 267.711 356.829 267.431C354.849 267.393 352.87 267.355 350.89 267.316C349.894 267.299 348.897 267.283 347.87 267.266C340.882 267.124 333.959 266.654 327 266C327 264.68 327 263.36 327 262C326.34 261.67 325.68 261.339 325 261C328.96 261 332.92 261 337 261C337 258.69 337 256.38 337 254C336.34 253.67 335.68 253.34 335 253C335.66 252.34 336.32 251.68 337 251C339.679 255.019 339.156 257.242 339 262C339.99 261.339 340.98 260.68 342 260C342.33 260.33 342.66 260.66 343 261C345.862 261.073 348.7 261.092 351.562 261.062C352.772 261.055 352.772 261.055 354.006 261.048C356.004 261.037 358.002 261.019 360 261C360 259.02 360 257.04 360 255C359.01 254.67 358.02 254.34 357 254C357.66 253.34 358.32 252.68 359 252C359.33 249.69 359.66 247.38 360 245C354.39 245 348.78 245 343 245C343 246.65 343 248.3 343 250C343.99 250.33 344.98 250.66 346 251C346 251.33 346 251.66 346 252C344.35 252 342.7 252 341 252C341 250.35 341 248.7 341 247C337.158 244.432 333.186 244.773 328.75 244.875C328.005 244.884 327.26 244.893 326.492 244.902C324.661 244.926 322.83 244.962 321 245C321 246.65 321 248.3 321 250C321.99 250.33 322.98 250.66 324 251C323.01 251.66 322.02 252.32 321 253C321.33 253.99 321.66 254.98 322 256C321.835 256.969 321.67 257.939 321.5 258.937C321.031 261.806 321.068 263.307 322 266C320.68 266.33 319.36 266.66 318 267C317.67 264.03 317.34 261.06 317 258C317.66 257.67 318.32 257.34 319 257C318.34 256.67 317.68 256.34 317 256C317 251.71 317 247.42 317 243C317.66 243 318.32 243 319 243C319 242.34 319 241.68 319 241C337.15 241 355.3 241 374 241C373.67 242.32 373.34 243.64 373 245C370.69 245 368.38 245 366 245C366 246.65 366 248.3 366 250C369.3 250 372.6 250 376 250C376 251.65 376 253.3 376 255C372.526 256.158 369.639 256.069 366 256C366 257.65 366 259.3 366 261C367.98 261 369.96 261 372 261C372 261.99 372 262.98 372 264C372.66 263.67 373.32 263.339 374 263C378.95 263 383.9 263 389 263C389 251.45 389 239.9 389 228C388.34 228 387.68 228 387 228C387 227.34 387 226.68 387 226C358.95 225.67 330.9 225.34 302 225C302 223.02 302 221.04 302 219C323.12 219 344.24 219 366 219C365.67 217.35 365.34 215.7 365 214C361.416 212.998 362.5 200.5 362.5 200.5C362.5 200.5 368.936 194.635 374 194.5C379.899 194.343 387.115 192.073 387.187 201.875C387.201 202.759 387.216 203.644 387.23 204.555C387 207 387 207 385 210C384.34 210 383.68 210 383 210C383 212.97 383 215.94 383 219C383.887 218.897 384.773 218.794 385.687 218.687C389 219 389 219 391.671 221.063C394.596 224.752 394.61 226.63 394.58 231.297C394.582 232.013 394.585 232.729 394.587 233.467C394.589 235.015 394.58 236.563 394.561 238.111C394.531 240.562 394.532 243.011 394.541 245.462C394.555 250.663 394.53 255.862 394.5 261.062C394.465 267.093 394.445 273.122 394.468 279.153C394.468 281.567 394.439 283.979 394.409 286.392C394.411 287.872 394.415 289.352 394.42 290.832C394.411 292.122 394.403 293.413 394.394 294.743C394.701 298.178 394.701 298.178 397.474 300.322C398.307 300.876 399.141 301.429 400 302C401.516 305.031 401.249 307.879 401.312 311.25C401.35 312.554 401.387 313.859 401.426 315.203C400.933 319.595 399.833 321.645 397 325C393.546 327.628 389.966 327.203 385.75 327.125C384.486 327.106 383.223 327.088 381.922 327.07C380.957 327.047 379.993 327.023 379 327C378.873 327.924 378.747 328.848 378.617 329.8C377.622 334.958 374.695 338.421 371 342C372.809 342.037 372.809 342.037 374.656 342.075C379.116 342.169 383.575 342.27 388.035 342.372C389.968 342.415 391.901 342.457 393.834 342.497C396.607 342.554 399.38 342.618 402.152 342.683C403.022 342.7 403.892 342.717 404.788 342.734C410.886 342.886 410.886 342.886 412 344C412.04 345.666 412.042 347.333 412 349C409.526 350.236 407.901 350.125 405.134 350.125C403.582 350.129 403.582 350.129 401.999 350.133C400.281 350.13 400.281 350.13 398.529 350.126C396.714 350.129 396.714 350.129 394.863 350.131C391.494 350.135 388.126 350.133 384.758 350.13C381.129 350.128 377.501 350.131 373.872 350.134C366.76 350.139 359.648 350.138 352.536 350.135C346.758 350.133 340.981 350.132 335.203 350.133C334.382 350.133 333.561 350.134 332.715 350.134C331.048 350.134 329.38 350.134 327.713 350.135C312.062 350.138 296.411 350.134 280.761 350.129C267.317 350.124 253.874 350.125 240.43 350.13C224.836 350.135 209.241 350.137 193.646 350.134C191.985 350.134 190.324 350.134 188.663 350.133C187.845 350.133 187.028 350.133 186.186 350.133C180.411 350.132 174.637 350.133 168.863 350.136C161.831 350.139 154.8 350.138 147.768 350.133C144.177 350.13 140.586 350.129 136.995 350.132C133.112 350.136 129.228 350.132 125.344 350.126C124.197 350.129 123.049 350.131 121.867 350.133C120.835 350.131 119.803 350.128 118.74 350.125C117.842 350.125 116.945 350.125 116.02 350.125C114 350 114 350 113 349C112.875 346.5 112.875 346.5 113 344C114.557 342.443 116.079 342.836 118.244 342.794C119.145 342.774 120.046 342.754 120.974 342.734C122.443 342.709 122.443 342.709 123.941 342.683C124.939 342.662 125.936 342.642 126.964 342.62C130.163 342.555 133.363 342.496 136.562 342.437C138.726 342.394 140.889 342.35 143.053 342.306C148.368 342.199 153.684 342.097 159 342C158.583 341.463 158.166 340.926 157.736 340.373C157.191 339.662 156.647 338.951 156.086 338.218C155.545 337.516 155.004 336.814 154.447 336.091C152.675 333.53 151.753 331.011 151 328C149.915 327.985 148.829 327.971 147.711 327.957C146.266 327.91 144.82 327.861 143.375 327.812C142.662 327.806 141.949 327.8 141.215 327.794C135.53 327.56 132.918 326.158 129 322C126.968 318.345 126.703 315.147 126.687 311C126.671 309.989 126.654 308.978 126.637 307.937C127.055 304.553 127.98 302.725 130 300C131.485 299.009 131.485 299.009 133 298C133.315 295.507 133.441 293.25 133.441 290.753C133.455 290.028 133.468 289.302 133.481 288.554C133.522 286.223 133.544 283.893 133.562 281.562C133.762 262.485 133.762 262.485 136 253C134.948 253.103 133.896 253.206 132.812 253.312C129 253 129 253 126.301 251.199C122.883 246.447 123.268 242.211 123.375 236.5C123.356 235.467 123.336 234.435 123.316 233.371C123.365 225.83 123.365 225.83 126.414 221.844C130.027 219.268 131.738 218.881 136.125 218.937C137.035 218.946 137.945 218.956 138.883 218.965C139.581 218.976 140.28 218.988 141 219C141.098 217.793 141.196 216.587 141.297 215.344C141.447 213.729 141.598 212.114 141.75 210.5C141.843 209.313 141.843 209.313 141.937 208.102C142.661 200.742 144.954 194.417 150.375 189.187C150.973 188.609 151.571 188.03 152.187 187.434C154 186 154 186 157.375 184.75C160.237 183.288 160.237 183.288 160.488 180.59C160.622 178.636 160.73 176.68 160.812 174.723C161.162 169.646 163.241 166.483 166.937 163.187C171.902 159.642 176.198 159.859 182.165 159.886Z" fill="#12242A"/>
<path d="M168.642 188.86C169.595 188.854 170.548 188.848 171.53 188.842C172.574 188.841 173.619 188.84 174.695 188.839C176.346 188.831 176.346 188.831 178.031 188.824C181.682 188.809 185.333 188.802 188.985 188.797C191.519 188.791 194.054 188.785 196.589 188.78C201.229 188.77 205.868 188.764 210.507 188.761C217.326 188.757 224.145 188.739 230.964 188.71C236.878 188.686 242.791 188.678 248.704 188.676C251.216 188.673 253.728 188.665 256.24 188.652C259.756 188.635 263.272 188.637 266.789 188.644C267.825 188.634 268.861 188.625 269.928 188.616C277.944 188.662 284.126 190.126 290 196C291.56 198.577 292.82 201.231 294 204C294.516 205.026 294.516 205.026 295.042 206.074C296.352 210.073 296.264 213.74 296.227 217.921C296.228 218.809 296.228 219.698 296.228 220.613C296.227 223.54 296.211 226.467 296.196 229.395C296.192 231.428 296.189 233.461 296.187 235.494C296.18 240.838 296.16 246.183 296.138 251.527C296.117 256.984 296.108 262.44 296.098 267.897C296.077 278.598 296.043 289.299 296 300C295.451 299.583 294.902 299.166 294.336 298.736C293.616 298.192 292.895 297.647 292.153 297.086C291.439 296.545 290.724 296.004 289.988 295.447C285.619 292.267 281.673 291.493 276.344 291.618C271.006 292.489 267.18 295.661 263.688 299.625C263.131 300.409 262.574 301.193 262 302C261.018 303.018 260.026 304.026 259 305C256.049 302.788 254.292 301.395 253.523 297.716C253.363 294.983 253.368 292.299 253.438 289.563C253.427 288.634 253.416 287.705 253.405 286.748C253.479 279.753 253.479 279.753 256.02 276.082C259.081 271.318 258.427 266.654 258.25 261.125C258.232 260.055 258.214 258.985 258.196 257.883C258.149 255.254 258.083 252.628 258 250C258.66 250 259.32 250 260 250C259.98 249.196 259.959 248.391 259.938 247.562C260 245 260 245 261 244C261.073 241.647 261.084 239.292 261.063 236.938C261.054 235.647 261.045 234.357 261.036 233.027C261.024 232.028 261.012 231.029 261 230C261.66 230 262.32 230 263 230C263.186 229.361 263.372 228.721 263.563 228.062C265 226 265 226 268.313 225.062C272 225 272 225 277 228C276.01 234.27 275.02 240.54 274 247C270.7 247.66 267.4 248.32 264 249C264 249.66 264 250.32 264 251C265.581 251.25 267.165 251.474 268.75 251.688C269.632 251.815 270.514 251.943 271.422 252.074C274.613 251.982 275.749 251.216 278 249C279.427 244.72 279.265 240.609 279.313 236.125C279.342 235.226 279.371 234.328 279.401 233.402C279.442 229.132 279.39 226.662 277.184 222.918C274.488 220.55 272.534 220.241 269 220C269.75 215.25 269.75 215.25 272 213C279.127 212.434 279.127 212.434 281.599 214.035C283.758 217.062 283.428 220.225 283.399 223.809C283.403 224.953 283.403 224.953 283.408 226.121C283.41 227.734 283.404 229.347 283.392 230.96C283.375 233.425 283.391 235.889 283.411 238.354C283.409 239.922 283.405 241.49 283.399 243.059C283.405 243.794 283.411 244.53 283.417 245.287C283.374 248.463 283.182 250.675 281.617 253.472C280 255 280 255 277.739 255.391C276.938 255.344 276.138 255.298 275.313 255.25C274.505 255.214 273.696 255.178 272.864 255.141C272.249 255.094 271.634 255.048 271 255C270.67 255.99 270.34 256.98 270 258C269.34 258 268.68 258 268 258C268 259.32 268 260.64 268 262C270.064 261.885 272.126 261.758 274.188 261.625C275.911 261.521 275.911 261.521 277.668 261.414C280.836 261.02 283.174 260.462 286 259C287.325 256.605 287.325 256.605 288 254C288.33 253.01 288.66 252.02 289 251C289.121 248.254 289.189 245.535 289.204 242.789C289.209 241.984 289.215 241.179 289.221 240.349C289.23 238.646 289.237 236.943 289.241 235.24C289.25 232.642 289.281 230.044 289.313 227.445C289.319 225.789 289.325 224.133 289.329 222.477C289.347 221.315 289.347 221.315 289.366 220.131C289.347 215.565 288.828 212.631 286 209C281.771 206.089 276.935 206.471 272 207C269.072 208.154 269.072 208.154 267 210C266.423 210.412 265.845 210.825 265.25 211.25C263.711 213.104 263.711 213.104 263.625 216.375C263 220 263 220 260.5 222.07C256.863 226.333 257.331 230.068 257.375 235.5C257.375 241.82 257.28 245.539 254 251C253.462 255.453 253.564 259.947 253.561 264.428C253.542 265.34 253.524 266.252 253.504 267.191C253.502 268.018 253.501 268.845 253.499 269.698C253 272 253 272 251.021 273.975C248.534 276.468 248.414 277.741 248.172 281.203C248.095 282.183 248.018 283.163 247.938 284.172C247.845 285.696 247.845 285.696 247.75 287.25C247.673 288.281 247.596 289.313 247.516 290.375C247.328 292.916 247.162 295.458 247 298C243.7 298 240.4 298 237 298C237.66 296.99 238.32 295.979 239 294.938C241.143 291.15 241.65 288.386 241 284C239.205 281.247 237.948 279.474 235 278C229.187 277.466 229.187 277.466 224.063 279.875C221.988 282.013 221.051 282.983 220.903 285.945C220.914 286.665 220.926 287.384 220.938 288.125C220.958 289.404 220.979 290.683 221 292C221.33 292 221.66 292 222 292C222.495 290.02 222.495 290.02 223 288C223.66 288 224.32 288 225 288C225.206 287.361 225.413 286.721 225.625 286.062C227 284 227 284 229.938 283.062C233 283 233 283 234.938 284.062C236.5 286.911 235.75 288.935 235 292C233.515 292.495 233.515 292.495 232 293C232 294.65 232 296.3 232 298C231.34 298 230.68 298 230 298C229.67 296.68 229.34 295.36 229 294C227.792 297.624 228.457 298.642 230 302C229.01 302.495 229.01 302.495 228 303C228.58 303.01 229.16 303.019 229.757 303.029C232.401 303.083 235.044 303.166 237.688 303.25C238.6 303.265 239.512 303.279 240.452 303.293C244.7 303.448 247.382 303.644 251.118 305.797C253.686 308.803 253.547 310.322 253.301 314.098C252.936 316.406 252.37 318.098 251 320C248.644 321.179 247.239 321.129 244.611 321.134C243.688 321.138 242.766 321.143 241.815 321.147C240.8 321.147 239.785 321.146 238.739 321.146C237.139 321.151 237.139 321.151 235.507 321.156C231.965 321.165 228.424 321.167 224.883 321.168C222.429 321.172 219.975 321.175 217.522 321.178C212.372 321.184 207.222 321.186 202.072 321.186C195.465 321.186 188.858 321.199 182.252 321.216C177.182 321.228 172.112 321.23 167.042 321.229C164.606 321.23 162.17 321.235 159.734 321.242C156.329 321.252 152.925 321.249 149.52 321.243C148.509 321.249 147.498 321.255 146.456 321.26C145.064 321.254 145.064 321.254 143.644 321.248C142.839 321.248 142.034 321.249 141.205 321.249C138.716 320.968 137.117 320.325 135 319C133.141 315.282 133.442 311.051 134 307C137.432 303.095 142.848 303.445 147.77 303.114C148.874 303.058 148.874 303.058 150 303C150.33 300.69 150.66 298.38 151 296C153.475 295.01 153.475 295.01 156 294C155.041 293.536 155.041 293.536 154.063 293.063C152 292 152 292 151 291C150.813 288.063 150.813 288.062 151 285C151.99 284.01 151.99 284.01 153 283C158.568 283.568 158.568 283.568 160 285C160.263 289.032 160.294 290.559 158 294C159.32 294.33 160.64 294.66 162 295C161.01 295.495 161.01 295.495 160 296C160.99 296 161.98 296 163 296C165.075 292.597 166 290.462 166 286.438C164.769 282.205 163.61 280.535 160 278C157.193 277.354 154.809 277.37 152 278C149.19 279.794 147.491 281.019 146 284C145.445 289.439 145.535 293.525 149 298C146.36 298 143.72 298 141 298C140.951 293.337 140.914 288.674 140.89 284.011C140.88 282.424 140.867 280.837 140.849 279.25C140.825 276.971 140.814 274.693 140.805 272.414C140.795 271.703 140.784 270.991 140.774 270.258C140.773 268.504 140.878 266.75 141 265C143.68 262.32 145.718 262.756 149.36 262.732C150.701 262.738 150.701 262.738 152.068 262.745C153.478 262.739 153.478 262.739 154.916 262.734C156.962 262.727 159.008 262.724 161.053 262.726C164.289 262.726 167.525 262.714 170.761 262.697C179.962 262.65 189.164 262.626 198.365 262.619C203.989 262.614 209.613 262.59 215.237 262.554C217.383 262.544 219.529 262.542 221.674 262.547C224.674 262.554 227.674 262.537 230.674 262.514C231.563 262.522 232.453 262.531 233.369 262.539C238.313 262.499 238.313 262.499 242.536 260.094C244.072 257.898 244.679 256.45 245.125 253.824C245.273 253.007 245.42 252.19 245.572 251.348C245.713 250.47 245.855 249.592 246 248.688C246.159 247.773 246.318 246.859 246.482 245.917C246.82 243.964 247.152 242.01 247.478 240.055C248.01 236.945 248.587 233.846 249.176 230.746C249.556 228.706 249.935 226.665 250.313 224.625C250.497 223.669 250.68 222.714 250.87 221.729C251.791 216.596 252.45 212.123 251 207C249.221 204.986 247.756 204.111 245.085 203.719C242.6 203.589 240.131 203.564 237.642 203.568C236.695 203.557 235.749 203.547 234.773 203.537C231.646 203.506 228.518 203.497 225.391 203.488C223.222 203.471 221.053 203.453 218.884 203.434C213.176 203.386 207.468 203.356 201.76 203.33C195.935 203.301 190.11 203.254 184.285 203.209C172.857 203.123 161.429 203.056 150 203C150.625 201.703 151.254 200.408 151.887 199.115C152.237 198.394 152.587 197.673 152.948 196.93C154.175 194.679 155.395 193.425 157.563 192.062C158.431 191.492 158.431 191.492 159.317 190.91C162.488 189.195 165.111 188.872 168.642 188.86Z" fill="#DB3F47"/>
<path d="M157.079 209.864C158.389 209.868 158.389 209.868 159.727 209.871C160.642 209.869 161.557 209.867 162.5 209.865C165.542 209.861 168.583 209.864 171.625 209.867C173.729 209.867 175.832 209.866 177.936 209.864C182.351 209.863 186.766 209.865 191.182 209.87C196.855 209.875 202.528 209.872 208.201 209.866C212.547 209.862 216.893 209.864 221.239 209.866C223.331 209.867 225.424 209.866 227.516 209.864C230.436 209.861 233.354 209.865 236.273 209.871C237.147 209.869 238.021 209.867 238.921 209.864C244.886 209.886 244.886 209.886 246 211C245.845 219.679 244.048 228.351 242.562 236.875C242.345 238.167 242.128 239.458 241.904 240.789C241.69 242.032 241.475 243.274 241.254 244.555C241.061 245.673 240.869 246.792 240.67 247.945C240.037 250.833 239.289 253.341 238 256C234.661 257.67 230.907 257.129 227.236 257.114C226.328 257.114 225.421 257.114 224.486 257.114C221.478 257.113 218.469 257.106 215.461 257.098C213.379 257.096 211.296 257.094 209.214 257.093C203.727 257.09 198.239 257.08 192.751 257.069C187.155 257.058 181.558 257.054 175.961 257.049C164.974 257.038 153.987 257.021 143 257C143.711 248.847 144.602 240.741 145.675 232.627C145.94 230.608 146.195 228.587 146.451 226.566C146.621 225.279 146.79 223.991 146.965 222.664C147.116 221.503 147.266 220.343 147.422 219.147C148.776 211.777 149.571 209.891 157.079 209.864Z" fill="#9ED1D0"/>
<path d="M297 282C298.32 282 299.64 282 301 282C301.495 302.295 301.495 302.295 302 323C306.29 322.67 310.58 322.34 315 322C315.015 320.966 315.029 319.932 315.044 318.866C315.102 315.018 315.18 311.169 315.262 307.321C315.296 305.658 315.324 303.994 315.346 302.331C315.38 299.935 315.432 297.54 315.488 295.145C315.495 294.405 315.501 293.665 315.508 292.903C315.633 288.464 316.274 285.546 319 282C319.33 282 319.66 282 320 282C320 294.87 320 307.74 320 321C331.725 321.425 331.725 321.425 338 320C337 323 337 323 335.223 323.914C334.51 324.149 333.797 324.383 333.062 324.625C330.952 325.337 328.994 326.003 327 327C326.01 327 325.02 327 324 327C324 327.99 324 328.98 324 330C322.68 329.34 321.36 328.68 320 328C320 331.136 320.454 332.236 321.875 334.938C322.223 335.607 322.571 336.276 322.93 336.965C323.283 337.636 323.636 338.308 324 339C324.99 340.98 324.99 340.98 326 343C314.45 343 302.9 343 291 343C292 337 292 337 294 335C294 334.34 294 333.68 294 333C293.443 333.47 292.886 333.941 292.312 334.426C287.359 338.467 283.111 341.111 277 343C280.3 343 283.6 343 287 343C287 343.99 287 344.98 287 346C276.77 346 266.54 346 256 346C256 346.66 256 347.32 256 348C254.68 348 253.36 348 252 348C252 347.34 252 346.68 252 346C248.7 346 245.4 346 242 346C242.33 345.01 242.66 344.02 243 343C228.48 343 213.96 343 199 343C200.98 340.69 202.96 338.38 205 336C206.28 333.46 206.28 333.46 206.875 331.062C207.099 330.29 207.324 329.518 207.555 328.723C207.702 328.154 207.849 327.586 208 327C212.378 326.926 216.756 326.871 221.135 326.835C222.625 326.82 224.115 326.8 225.605 326.774C227.744 326.737 229.883 326.72 232.023 326.707C233.312 326.691 234.6 326.676 235.927 326.659C236.941 326.772 237.955 326.884 239 327C239.66 327.99 240.32 328.98 241 330C242.98 329.505 242.98 329.505 245 329C245 328.34 245 327.68 245 327C246.32 327 247.64 327 249 327C249.495 326.01 249.495 326.01 250 325C250.33 325 250.66 325 251 325C251.392 323.866 251.784 322.731 252.188 321.562C254 318 254 318 256.688 317.062C257.451 317.042 258.214 317.021 259 317C259.495 319.475 259.495 319.475 260 322C260.66 322 261.32 322 262 322C262.242 320.987 262.485 319.974 262.734 318.93C263.072 317.578 263.411 316.226 263.75 314.875C263.907 314.21 264.064 313.545 264.227 312.859C265.586 307.526 267.411 302.767 272.141 299.539C273.185 299.087 273.185 299.087 274.25 298.625C274.956 298.308 275.663 297.991 276.391 297.664C276.922 297.445 277.453 297.226 278 297C277.01 296.67 276.02 296.34 275 296C275 295.34 275 294.68 275 294C279.455 293.505 279.455 293.505 284 293C284 293.66 284 294.32 284 295C284.722 294.897 285.444 294.794 286.188 294.688C290.122 295.125 291.371 297.164 294 300C295.485 300.495 295.485 300.495 297 301C297.99 299.515 297.99 299.515 299 298C298.711 297.154 298.423 296.309 298.125 295.438C296.639 290.896 296.832 286.735 297 282Z" fill="#1E343C"/>
<path d="M321 268C343.11 268 365.22 268 388 268C388.021 276.559 388.041 285.119 388.062 293.938C388.072 296.643 388.081 299.349 388.09 302.137C388.093 304.267 388.096 306.397 388.098 308.527C388.103 309.645 388.108 310.763 388.113 311.914C388.113 313.498 388.113 313.498 388.113 315.113C388.116 316.035 388.118 316.956 388.12 317.906C388 320 388 320 387 321C384.667 321.041 382.333 321.042 380 321C379.914 320.082 379.827 319.164 379.738 318.219C378.671 308.9 377.083 302.459 370 296.125C364.433 292.182 359.749 291.12 353 292C347.433 293.599 343.548 296.709 340.254 301.43C337.721 306.621 336.907 312.335 336 318C335.34 318 334.68 318 334 318C334 318.66 334 319.32 334 320C329.71 320 325.42 320 321 320C321 302.84 321 285.68 321 268Z" fill="#D93941"/>
<path d="M140.548 304.739C141.506 304.732 142.463 304.725 143.45 304.718C144.504 304.72 145.558 304.723 146.644 304.725C147.752 304.72 148.859 304.715 150 304.71C153.676 304.696 157.351 304.697 161.027 304.699C163.573 304.695 166.119 304.691 168.665 304.686C174.007 304.679 179.35 304.679 184.692 304.684C190.87 304.69 197.048 304.678 203.226 304.657C209.166 304.637 215.105 304.634 221.045 304.637C223.574 304.637 226.103 304.632 228.632 304.622C232.163 304.609 235.695 304.616 239.227 304.628C240.279 304.62 241.331 304.612 242.415 304.604C243.375 304.612 244.336 304.619 245.325 304.626C246.161 304.626 246.996 304.625 247.857 304.625C250.544 305.095 251.427 305.791 253 308C253.66 316.307 253.66 316.307 251 320C248.644 321.178 247.239 321.128 244.611 321.134C243.688 321.138 242.766 321.142 241.815 321.147C240.8 321.146 239.785 321.146 238.739 321.145C237.672 321.149 236.606 321.152 235.507 321.155C231.965 321.165 228.424 321.167 224.883 321.168C222.429 321.171 219.975 321.174 217.521 321.178C212.372 321.184 207.222 321.186 202.072 321.185C195.465 321.185 188.858 321.199 182.252 321.216C177.182 321.227 172.112 321.229 167.042 321.229C164.606 321.23 162.169 321.234 159.733 321.242C156.329 321.252 152.925 321.249 149.52 321.243C148.003 321.251 148.003 321.251 146.456 321.26C145.528 321.256 144.6 321.251 143.644 321.247C142.839 321.248 142.034 321.248 141.205 321.249C138.716 320.968 137.116 320.325 135 319C133.761 316.522 133.833 314.763 133.812 312C133.798 311.113 133.784 310.226 133.77 309.312C134.216 304.837 136.658 304.749 140.548 304.739Z" fill="#7A93A3"/>
<path d="M303 226C330.72 226 358.44 226 387 226C388.506 229.012 388.122 232.113 388.098 235.414C388.096 236.144 388.095 236.873 388.093 237.625C388.088 239.958 388.075 242.292 388.062 244.625C388.058 246.206 388.053 247.787 388.049 249.367C388.038 253.245 388.021 257.122 388 261C385.36 261 382.72 261 380 261C379.975 260.399 379.95 259.799 379.924 259.18C379.808 256.474 379.686 253.768 379.562 251.062C379.523 250.117 379.484 249.171 379.443 248.197C379.401 247.298 379.36 246.399 379.316 245.473C379.28 244.64 379.243 243.807 379.205 242.949C379.206 240.997 379.206 240.997 378 240C376.067 239.906 374.13 239.883 372.195 239.887C370.954 239.887 369.713 239.887 368.434 239.887C367.069 239.892 365.705 239.897 364.34 239.902C362.951 239.904 361.563 239.906 360.174 239.907C356.513 239.911 352.852 239.92 349.19 239.931C345.457 239.942 341.724 239.946 337.99 239.951C330.66 239.962 323.33 239.979 316 240C314.854 242.293 314.803 243.799 314.684 246.352C314.642 247.202 314.6 248.053 314.557 248.93C314.517 249.819 314.478 250.709 314.438 251.625C314.394 252.522 314.351 253.419 314.307 254.344C314.2 256.562 314.1 258.781 314 261C310.37 261 306.74 261 303 261C303 249.45 303 237.9 303 226Z" fill="#E23640"/>
<path d="M214.938 209.562C216.495 209.598 218.053 209.63 219.611 209.658C223.409 209.735 227.204 209.855 231 210C227.81 213.784 224.625 217.495 221.062 220.937C218.442 223.518 215.956 226.145 213.562 228.937C210.291 232.745 206.772 236.246 203.199 239.769C200.602 242.403 198.184 245.154 195.801 247.98C195.206 248.647 194.612 249.313 194 250C193.29 251.061 192.58 252.122 191.848 253.215C188.462 256.571 184.73 256.546 180.195 256.586C177.169 256.568 174.149 256.476 171.125 256.375C169.562 256.345 168 256.317 166.438 256.293C162.624 256.227 158.812 256.124 155 256C161.16 248.709 161.16 248.709 164.438 245.562C166.872 243.171 169.154 240.715 171.375 238.125C174.671 234.297 178.21 230.772 181.805 227.227C184.368 224.626 186.754 221.912 189.102 219.117C189.728 218.419 190.354 217.72 191 217C191.387 216.411 191.774 215.822 192.173 215.216C197.916 207.721 206.413 209.228 214.938 209.562Z" fill="#A0D0D0"/>
<path d="M214 271C221.26 271 228.52 271 236 271C235.67 272.32 235.34 273.64 235 275C233.585 275.339 232.168 275.671 230.75 276C229.961 276.186 229.172 276.371 228.359 276.562C226 277 226 277 222 277C221.153 282.081 220.91 286.848 221 292C221.33 292 221.66 292 222 292C222.33 290.68 222.66 289.36 223 288C223.66 288 224.32 288 225 288C225.206 287.361 225.412 286.721 225.625 286.062C227 284 227 284 229.938 283.062C233 283 233 283 234.938 284.062C236.5 286.911 235.749 288.935 235 292C233.515 292.495 233.515 292.495 232 293C232 294.65 232 296.3 232 298C231.34 298 230.68 298 230 298C229.505 296.02 229.505 296.02 229 294C227.792 297.623 228.457 298.641 230 302C229.34 302.33 228.68 302.66 228 303C234.6 303.33 241.2 303.66 248 304C248 304.33 248 304.66 248 305C212.03 305 176.06 305 139 305C139 304.67 139 304.34 139 304C144.445 303.505 144.445 303.505 150 303C150.33 300.69 150.66 298.38 151 296C152.65 295.34 154.3 294.68 156 294C155.361 293.691 154.721 293.381 154.062 293.062C152 292 152 292 151 291C150.812 288.062 150.812 288.062 151 285C151.66 284.34 152.32 283.68 153 283C158.568 283.568 158.568 283.568 160 285C160.263 289.032 160.294 290.559 158 294C159.32 294.33 160.64 294.66 162 295C161.34 295.33 160.68 295.66 160 296C162.925 296.224 162.925 296.224 165 295C165 295.66 165 296.32 165 297C181.17 297 197.34 297 214 297C214 296.34 214 295.68 214 295C215.32 295 216.64 295 218 295C217.01 294.01 217.01 294.01 216 293C216 292.01 216 291.02 216 290C212.04 290 208.08 290 204 290C204.495 288.515 204.495 288.515 205 287C208.3 287.33 211.6 287.66 215 288C214.836 287.305 214.673 286.61 214.504 285.895C213.642 280.945 213.945 276.014 214 271Z" fill="#D83A41"/>
<path d="M272.75 200.937C274.506 200.951 274.506 200.951 276.297 200.965C277.189 200.976 278.081 200.988 279 201C279 202.65 279 204.3 279 206C278.336 206.086 277.672 206.173 276.988 206.262C272.602 206.96 269.599 207.572 265.938 210.187C263.746 212.922 263.746 212.922 263.5 216.5C263 220 263 220 260.508 222.062C256.864 226.331 257.33 230.059 257.375 235.5C257.375 241.82 257.28 245.539 254 251C253.461 255.453 253.564 259.947 253.561 264.428C253.542 265.34 253.523 266.252 253.504 267.191C253.502 268.018 253.5 268.845 253.498 269.697C253 272 253 272 251.02 273.975C248.533 276.468 248.413 277.741 248.172 281.203C248.095 282.183 248.017 283.162 247.938 284.172C247.845 285.696 247.845 285.696 247.75 287.25C247.673 288.281 247.595 289.312 247.516 290.375C247.327 292.915 247.162 295.458 247 298C243.7 298 240.4 298 237 298C237.66 296.989 238.32 295.979 239 294.937C241.142 291.15 241.65 288.386 241 284C239.204 281.247 237.947 279.474 235 278C228.736 277.478 225.902 278.079 221 282C221.33 280.35 221.66 278.7 222 277C222.927 276.818 223.854 276.636 224.809 276.449C226.006 276.198 227.204 275.946 228.438 275.687C229.633 275.444 230.827 275.2 232.059 274.949C233.029 274.636 234 274.323 235 274C235.495 272.515 235.495 272.515 236 271C235.218 271.03 234.435 271.061 233.629 271.092C230.107 271.228 226.585 271.364 223.062 271.5C221.215 271.572 221.215 271.572 219.33 271.645C217.575 271.712 217.575 271.712 215.785 271.781C214.159 271.844 214.159 271.844 212.5 271.908C210 272 210 272 209 272C209.681 272.557 210.361 273.114 211.062 273.687C213 276 213 276 212.938 278.625C212 281 212 281 209 283C205.678 282.676 204.392 282.392 202 280C202.33 277.03 202.66 274.06 203 271C196.4 271.33 189.8 271.66 183 272C183.33 272.66 183.66 273.32 184 274C184.45 279.289 184.45 279.289 182.812 281.875C180.382 283.383 178.81 283.36 176 283C175.34 282.34 174.68 281.68 174 281C174.023 278.836 174.023 278.836 174.375 276.375C174.486 275.558 174.597 274.74 174.711 273.898C174.806 273.272 174.902 272.645 175 272C179.05 270.492 182.426 269.748 186.742 269.729C187.847 269.719 188.952 269.708 190.09 269.698C191.268 269.696 192.446 269.694 193.66 269.691C196.17 269.666 198.68 269.641 201.189 269.615C205.135 269.586 209.081 269.562 213.027 269.544C216.842 269.522 220.657 269.483 224.473 269.441C225.653 269.441 226.833 269.441 228.049 269.441C229.151 269.428 230.252 269.414 231.387 269.401C232.353 269.396 233.318 269.39 234.313 269.385C238.485 268.787 241.127 266.798 244.188 264C245.919 261.135 246.372 259.722 246.898 256.52C247.065 255.541 247.232 254.562 247.404 253.553C247.601 252.381 247.797 251.208 248 250C248.974 244.418 249.974 238.841 250.977 233.264C251.285 231.538 251.591 229.811 251.893 228.084C252.335 225.558 252.789 223.035 253.246 220.512C253.377 219.746 253.509 218.98 253.644 218.191C254.83 211.751 256.775 206.275 262 202C265.547 200.75 269.021 200.9 272.75 200.937Z" fill="#AD222C"/>
<path d="M321 268C343.11 268 365.22 268 388 268C388 272.95 388 277.9 388 283C365.89 283 343.78 283 321 283C321 278.05 321 273.1 321 268Z" fill="#DB8489"/>
<path d="M242 210C243.32 210.33 244.64 210.66 246 211C245.384 219.724 244.063 228.263 242.562 236.875C242.345 238.167 242.128 239.458 241.904 240.789C241.69 242.032 241.475 243.274 241.254 244.555C241.061 245.673 240.869 246.792 240.67 247.945C240.037 250.833 239.289 253.341 238 256C234.827 257.587 231.412 257.121 227.93 257.098C226.735 257.095 226.735 257.096 225.517 257.093C222.97 257.088 220.422 257.075 217.875 257.062C216.15 257.058 214.425 257.053 212.699 257.049C208.466 257.038 204.233 257.021 200 257C200.66 255.68 201.32 254.36 202 253C202.66 253 203.32 253 204 253C204.246 252.425 204.492 251.85 204.746 251.258C206.198 248.644 207.903 246.937 210.062 244.875C212.916 242.221 212.916 242.221 215 239C215.66 239 216.32 239 217 239C217.202 238.469 217.405 237.938 217.613 237.391C219.605 233.958 222.345 231.491 225.188 228.75C231.229 222.821 236.958 216.817 242 210Z" fill="#87B6BA"/>
<path d="M182.199 166.498C183.417 166.49 183.417 166.49 184.66 166.482C187.336 166.469 190.011 166.486 192.688 166.504C194.552 166.504 196.416 166.502 198.28 166.499C202.184 166.498 206.087 166.511 209.991 166.533C214.992 166.562 219.991 166.559 224.992 166.546C228.84 166.539 232.689 166.547 236.537 166.56C238.381 166.564 240.224 166.564 242.068 166.561C244.646 166.558 247.223 166.574 249.801 166.596C250.56 166.591 251.32 166.587 252.103 166.582C256.556 166.645 259.475 167.213 263 170C263.812 172.187 263.812 172.187 264 174C260.688 174.2 257.375 174.383 254.062 174.562C252.673 174.647 252.673 174.647 251.256 174.732C245.356 175.043 239.854 174.811 234 174C234 176.97 234 179.94 234 183C222.12 183 210.24 183 198 183C198 180.03 198 177.06 198 174C188.76 174.33 179.52 174.66 170 175C169.67 173.68 169.34 172.36 169 171C173.16 166.88 176.579 166.427 182.199 166.498Z" fill="#D68A8F"/>
<path d="M168.641 188.86C169.595 188.854 170.548 188.848 171.53 188.842C172.574 188.841 173.619 188.84 174.694 188.839C175.795 188.834 176.897 188.829 178.031 188.824C181.682 188.809 185.333 188.802 188.984 188.797C191.519 188.791 194.054 188.785 196.589 188.78C201.228 188.77 205.868 188.764 210.507 188.761C217.326 188.757 224.145 188.739 230.964 188.71C236.877 188.686 242.791 188.678 248.704 188.676C251.216 188.673 253.727 188.665 256.239 188.652C259.756 188.635 263.272 188.637 266.788 188.644C267.824 188.634 268.86 188.625 269.928 188.616C278.183 188.663 283.747 190.283 290 196C290.99 197.485 290.99 197.485 292 199C291.67 199.99 291.34 200.98 291 202C290.092 201.361 289.185 200.721 288.25 200.062C284.041 197.392 281.077 196.878 276.156 196.853C275.183 196.846 274.21 196.838 273.207 196.831C272.147 196.828 271.086 196.826 269.993 196.823C268.87 196.816 267.748 196.81 266.592 196.803C262.876 196.783 259.161 196.772 255.445 196.762C254.177 196.758 252.908 196.754 251.601 196.749C245.581 196.731 239.562 196.716 233.542 196.708C226.602 196.698 219.662 196.672 212.722 196.631C206.704 196.597 200.685 196.586 194.667 196.582C192.109 196.577 189.552 196.565 186.995 196.546C183.418 196.522 179.843 196.523 176.266 196.53C174.681 196.511 174.681 196.511 173.064 196.491C167.077 196.534 163.541 196.965 159 201C158.67 201.66 158.34 202.32 158 203C155.36 203 152.72 203 150 203C152.438 196.899 155.162 193.156 161 190C163.867 189.044 165.665 188.87 168.641 188.86Z" fill="#E87E86"/>
<path d="M253 211C253.99 211.495 253.99 211.495 255 212C254.367 220.079 253.028 227.972 251.563 235.938C251.346 237.136 251.129 238.334 250.905 239.568C250.476 241.929 250.043 244.288 249.605 246.646C249.214 248.815 248.849 250.988 248.515 253.166C247.12 262.029 247.12 262.029 243.563 265.625C242.668 266.572 242.668 266.572 241.754 267.539C237.834 270.804 233.093 270.193 228.262 270.253C227.369 270.268 226.476 270.282 225.556 270.297C222.6 270.344 219.644 270.384 216.688 270.422C215.175 270.443 215.175 270.443 213.632 270.464C208.298 270.537 202.965 270.605 197.632 270.668C192.113 270.734 186.595 270.818 181.077 270.907C176.841 270.972 172.605 271.024 168.369 271.071C166.334 271.097 164.299 271.127 162.264 271.163C159.422 271.211 156.58 271.24 153.738 271.265C152.894 271.283 152.049 271.302 151.178 271.321C145.445 271.342 145.445 271.342 143.241 269.647C142 268 142 268 142.313 265.312C142.539 264.549 142.766 263.786 143 263C144.81 262.995 144.81 262.995 146.656 262.989C158.015 262.952 169.375 262.894 180.735 262.816C186.575 262.777 192.415 262.744 198.255 262.729C203.89 262.714 209.524 262.68 215.159 262.632C217.31 262.617 219.462 262.609 221.613 262.608C224.623 262.606 227.632 262.579 230.642 262.546C231.534 262.551 232.427 262.556 233.347 262.561C238.304 262.503 238.304 262.503 242.538 260.092C244.072 257.897 244.679 256.448 245.125 253.824C245.273 253.007 245.42 252.189 245.571 251.347C245.784 250.031 245.784 250.031 246 248.688C246.241 247.321 246.241 247.321 246.486 245.926C247.006 242.953 247.503 239.977 248 237C248.548 233.817 249.101 230.634 249.655 227.452C250.005 225.428 250.352 223.403 250.694 221.378C250.85 220.456 251.007 219.535 251.168 218.586C251.305 217.772 251.442 216.958 251.583 216.119C252 214 252 214 253 211Z" fill="#E2787F"/>
<path d="M138 305C174.63 305 211.26 305 249 305C249 307.31 249 309.62 249 312C234.675 312.023 220.35 312.041 206.025 312.052C199.374 312.057 192.723 312.064 186.072 312.075C179.66 312.086 173.247 312.092 166.835 312.095C164.382 312.097 161.93 312.1 159.477 312.106C156.055 312.113 152.633 312.114 149.211 312.114C147.674 312.119 147.674 312.119 146.105 312.124C145.178 312.123 144.251 312.122 143.296 312.12C142.486 312.121 141.676 312.122 140.841 312.123C139 312 139 312 138 311C138 309.02 138 307.04 138 305Z" fill="#EAF0F5"/>
<path d="M278.027 212.637C280.729 213.134 281.395 213.75 283 216C283.298 218.682 283.421 221.127 283.398 223.809C283.401 224.572 283.404 225.335 283.407 226.121C283.409 227.734 283.404 229.347 283.391 230.96C283.375 233.425 283.391 235.889 283.41 238.354C283.408 239.922 283.404 241.49 283.398 243.059C283.408 244.162 283.408 244.162 283.417 245.287C283.373 248.463 283.182 250.675 281.616 253.472C280 255 280 255 277.738 255.391C276.938 255.344 276.137 255.298 275.312 255.25C274.504 255.214 273.696 255.178 272.863 255.141C272.248 255.094 271.633 255.048 271 255C270.67 255.99 270.34 256.98 270 258C269.34 258 268.68 258 268 258C268 258.99 268 259.98 268 261C266.68 260.34 265.36 259.68 264 259C264 256.69 264 254.38 264 252C262.68 251.67 261.36 251.34 260 251C259.67 251.66 259.34 252.32 259 253C258.505 251.515 258.505 251.515 258 250C258.66 250 259.32 250 260 250C259.969 248.793 259.969 248.793 259.938 247.563C260 245 260 245 261 244C261.073 241.647 261.084 239.292 261.062 236.938C261.049 235.002 261.049 235.002 261.035 233.027C261.024 232.028 261.012 231.029 261 230C261.66 230 262.32 230 263 230C263.186 229.361 263.371 228.721 263.562 228.063C265 226 265 226 268.312 225.063C272 225 272 225 277 228C276.01 234.27 275.02 240.54 274 247C270.7 247.66 267.4 248.32 264 249C264 249.66 264 250.32 264 251C265.58 251.25 267.164 251.474 268.75 251.688C270.073 251.879 270.073 251.879 271.422 252.074C274.613 251.982 275.749 251.216 278 249C279.427 244.72 279.265 240.61 279.312 236.125C279.356 234.777 279.356 234.777 279.4 233.402C279.441 229.132 279.39 226.662 277.184 222.918C274.487 220.55 272.534 220.241 269 220C270.004 213.643 271.559 212.794 278.027 212.637Z" fill="#3A2227"/>
<path d="M208 327C218.23 327 228.46 327 239 327C240.32 329.97 241.64 332.94 243 336C245.475 339.465 245.475 339.465 248 343C231.83 343 215.66 343 199 343C200.98 340.69 202.96 338.38 205 336C205.99 333.03 206.98 330.06 208 327Z" fill="#F5F9F9"/>
<path d="M340 245C341.25 246.875 341.25 246.875 342 249C341.67 249.99 341.34 250.98 341 252C342.32 251.67 343.64 251.34 345 251C344.34 250.67 343.68 250.34 343 250C343 248.35 343 246.7 343 245C348.61 245 354.22 245 360 245C360 250.28 360 255.56 360 261C358.068 261.091 358.068 261.091 356.098 261.184C354.419 261.268 352.741 261.353 351.062 261.437C350.212 261.477 349.362 261.516 348.486 261.557C347.677 261.598 346.869 261.64 346.035 261.684C344.912 261.738 344.912 261.738 343.766 261.795C341.975 261.818 341.975 261.818 341 263C340.01 262.67 339.02 262.34 338 262C338 259.03 338 256.06 338 253C337.67 253.33 337.34 253.66 337 254C337 256.31 337 258.62 337 261C331.72 261 326.44 261 321 261C321 259.02 321 257.04 321 255C320.67 254.01 320.34 253.02 320 252C320.66 251.67 321.32 251.34 322 251C321.67 250.67 321.34 250.34 321 250C320.959 248.334 320.957 246.666 321 245C323.604 244.805 326.208 244.619 328.812 244.437C329.55 244.381 330.288 244.325 331.049 244.268C334.368 244.042 336.812 243.937 340 245Z" fill="#304851"/>
<path d="M303 268C306.63 268 310.26 268 314 268C314 285.49 314 302.98 314 321C310.37 321 306.74 321 303 321C303 303.51 303 286.02 303 268Z" fill="#9F252F"/>
<path d="M312 229C314.125 232.188 314.502 234.265 315 238C315.66 237.67 316.32 237.34 317 237C318.96 236.893 320.924 236.851 322.887 236.839C324.121 236.829 325.356 236.82 326.628 236.81C327.981 236.805 329.334 236.801 330.688 236.797C332.07 236.791 333.452 236.785 334.835 236.78C337.733 236.769 340.632 236.763 343.53 236.76C347.25 236.754 350.969 236.73 354.688 236.702C357.543 236.683 360.398 236.678 363.253 236.676C364.624 236.673 365.996 236.665 367.367 236.652C369.283 236.635 371.198 236.639 373.113 236.644C374.204 236.64 375.295 236.636 376.419 236.632C377.271 236.754 378.123 236.875 379 237C381.136 240.204 381.242 240.996 381.195 244.668C381.189 245.561 381.182 246.453 381.176 247.373C381.151 248.766 381.151 248.766 381.125 250.187C381.116 251.128 381.107 252.068 381.098 253.037C381.074 255.358 381.041 257.679 381 260C382.98 260 384.96 260 387 260C387 250.43 387 240.86 387 231C387.33 231 387.66 231 388 231C388 240.9 388 250.8 388 261C385.36 261 382.72 261 380 261C379.975 260.399 379.95 259.799 379.924 259.18C379.808 256.474 379.686 253.768 379.562 251.062C379.523 250.117 379.484 249.171 379.443 248.197C379.401 247.298 379.36 246.399 379.316 245.473C379.28 244.64 379.243 243.807 379.205 242.949C379.206 240.997 379.206 240.997 378 240C376.067 239.906 374.13 239.882 372.195 239.886C370.954 239.886 369.713 239.887 368.434 239.887C367.069 239.892 365.705 239.897 364.34 239.902C362.951 239.904 361.563 239.906 360.174 239.907C356.513 239.91 352.852 239.92 349.19 239.931C345.457 239.941 341.724 239.946 337.99 239.951C330.66 239.962 323.33 239.979 316 240C314.854 242.293 314.803 243.799 314.684 246.351C314.642 247.202 314.6 248.053 314.557 248.93C314.517 249.819 314.478 250.709 314.438 251.625C314.394 252.522 314.351 253.419 314.307 254.344C314.2 256.562 314.1 258.781 314 261C310.37 261 306.74 261 303 261C303 250.44 303 239.88 303 229C306.149 227.426 308.645 228.281 312 229Z" fill="#B02B35"/>
<path d="M254 283C267.86 283 281.72 283 296 283C296 288.61 296 294.22 296 300C294.783 299.051 293.566 298.103 292.312 297.125C287.034 293.212 282.968 291.463 276.344 291.617C271.005 292.489 267.18 295.661 263.688 299.625C263.131 300.409 262.574 301.192 262 302C261.018 303.017 260.025 304.026 259 305C257.35 303.35 255.7 301.7 254 300C254 294.39 254 288.78 254 283Z" fill="#AF2129"/>
<path d="M154.256 209.773C155.642 209.773 157.028 209.785 158.414 209.805C159.144 209.808 159.873 209.81 160.625 209.813C162.959 209.824 165.292 209.85 167.625 209.875C169.206 209.885 170.787 209.894 172.367 209.902C176.245 209.924 180.122 209.959 184 210C180.144 212.57 177.016 212.186 172.562 212.062C171.043 212.028 169.524 211.998 168.004 211.973C166.996 211.946 166.996 211.946 165.967 211.918C163.857 212.006 162.04 212.475 160 213C159.01 213 158.02 213 157 213C157.66 213.66 158.32 214.32 159 215C158.843 217.524 158.581 219.887 158.188 222.375C158.091 223.048 157.995 223.721 157.896 224.414C157.421 227.656 156.882 230.843 156 234C155.34 234 154.68 234 154 234C154.206 235.114 154.412 236.228 154.625 237.375C154.749 238.571 154.873 239.768 155 241C154.34 241.66 153.68 242.32 153 243C154.32 243 155.64 243 157 243C157.66 243 158.32 243 159 243C158.67 245.31 158.34 247.62 158 250C157.381 250.062 156.762 250.124 156.125 250.188C153.722 250.829 153.722 250.829 152.75 253.563C152.502 254.367 152.255 255.171 152 256C149.03 256 146.06 256 143 256C143.988 245.091 145.316 234.263 147 223.438C147.166 222.337 147.332 221.237 147.503 220.104C147.749 218.565 147.749 218.565 148 216.996C148.144 216.08 148.289 215.164 148.438 214.22C149.382 210.494 150.47 210.037 154.256 209.773Z" fill="#B2D8D9"/>
<path d="M136 305C136.66 305 137.32 305 138 305C138.33 306.98 138.66 308.96 139 311C193.45 311.495 193.45 311.495 249 312C249 309.69 249 307.38 249 305C249.99 305.66 250.98 306.32 252 307C251.67 309.97 251.34 312.94 251 316C214.04 316 177.08 316 139 316C138.67 314.68 138.34 313.36 138 312C136.68 312 135.36 312 134 312C133.875 309.625 133.875 309.625 134 307C134.66 306.34 135.32 305.68 136 305Z" fill="#A9B7C5"/>
<path d="M321 276C343.11 276 365.22 276 388 276C388 278.31 388 280.62 388 283C365.89 283 343.78 283 321 283C321 280.69 321 278.38 321 276Z" fill="#FEFAFB"/>
<path d="M221 210C224.3 210 227.6 210 231 210C227.823 213.813 224.6 217.455 221.062 220.938C218.442 223.518 215.956 226.145 213.562 228.938C210.291 232.745 206.772 236.246 203.199 239.77C201.15 241.848 199.219 243.978 197.312 246.188C196.748 246.831 196.183 247.474 195.602 248.137C194.565 249.342 193.557 250.574 192.586 251.832C190.311 254.545 188.995 255.859 185.402 256.367C182.905 256.374 180.483 256.265 178 256C183.009 249.991 188.409 244.523 193.99 239.049C197.972 235.113 201.738 231.074 205.39 226.832C207.591 224.327 209.925 222.016 212.312 219.688C214.891 217.172 216.998 215.003 219 212C219.66 212 220.32 212 221 212C221 211.34 221 210.68 221 210Z" fill="#F5FCFD"/>
<path d="M207 210C204.971 213.653 202.782 216.447 199.797 219.363C198.981 220.168 198.165 220.973 197.324 221.803C196.475 222.631 195.625 223.459 194.75 224.312C189.472 229.481 184.316 234.655 179.506 240.265C176.851 243.324 173.955 246.123 171.055 248.945C168.84 251.091 168.84 251.091 166.5 254.062C162.831 256.906 159.48 256.439 155 256C158.03 252.379 161.068 248.871 164.438 245.562C166.872 243.171 169.154 240.715 171.375 238.125C174.671 234.297 178.21 230.772 181.805 227.226C183.832 225.17 185.741 223.063 187.625 220.875C188.187 220.233 188.749 219.591 189.328 218.93C190.463 217.619 191.578 216.29 192.672 214.945C197.108 209.879 200.36 209.051 207 210Z" fill="#F5FDFD"/>
<path d="M303 226C330.72 226 358.44 226 387 226C387.495 228.475 387.495 228.475 388 231C378.273 231.2 368.546 231.384 358.819 231.547C354.302 231.623 349.786 231.704 345.27 231.799C340.913 231.89 336.556 231.966 332.198 232.032C330.534 232.06 328.871 232.093 327.207 232.132C324.88 232.185 322.553 232.219 320.225 232.249C319.19 232.279 319.19 232.279 318.133 232.31C313.391 232.342 313.391 232.342 311.279 230.496C310.857 230.002 310.435 229.509 310 229C306.375 228.75 306.375 228.75 303 229C303 228.01 303 227.02 303 226Z" fill="#F4A6A6"/>
<path d="M147 222C147.169 228.852 146.545 235.296 145.5 242.062C145.357 243.024 145.214 243.984 145.066 244.975C144.717 247.317 144.361 249.659 144 252C143.01 252 142.02 252 141 252C139.048 253.952 138.152 255.532 137 258C136.67 256.35 136.34 254.7 136 253C134.907 253.041 133.814 253.082 132.688 253.125C129 253 129 253 126 251C126.33 250.01 126.66 249.02 127 248C130.63 247.67 134.26 247.34 138 247C138.144 245.866 138.289 244.731 138.438 243.562C139 240 139 240 140 239C140.072 237.481 140.084 235.958 140.062 234.438C140.042 232.973 140.021 231.509 140 230C139.34 235.28 138.68 240.56 138 246C133 247 133 247 131.207 246.031C129.389 242.972 129.605 239.951 129.688 236.5C129.684 235.823 129.681 235.147 129.678 234.449C129.718 230.765 129.908 229.138 132 226C133.945 225.488 133.945 225.488 136.125 225.312C138.043 225.158 138.043 225.158 140 225C140 224.34 140 223.68 140 223C143 222 143 222 147 222Z" fill="#0E2A2E"/>
<path d="M300 327C306.27 327 312.54 327 319 327C319.944 329.767 320.888 332.534 321.832 335.301C322.959 337.905 323.969 339.108 326 341C326 341.66 326 342.32 326 343C314.45 343 302.9 343 291 343C292.98 340.36 294.96 337.72 297 335C297.99 332.36 298.98 329.72 300 327Z" fill="#F4F9F9"/>
<path d="M167.773 297.855C169.008 297.848 170.243 297.842 171.515 297.835C172.873 297.834 174.231 297.833 175.59 297.832C176.974 297.829 178.358 297.825 179.741 297.822C182.646 297.816 185.55 297.814 188.455 297.815C192.182 297.815 195.909 297.801 199.636 297.784C202.495 297.773 205.355 297.771 208.214 297.771C209.588 297.77 210.963 297.766 212.337 297.758C214.257 297.748 216.177 297.752 218.097 297.757C219.738 297.755 219.738 297.755 221.413 297.753C224 298 224 298 226 300C225.34 300.33 224.68 300.66 224 301C224 301.99 224 302.98 224 304C188.36 304.495 188.36 304.495 152 305C153.32 304.67 154.64 304.34 156 304C156.33 303.01 156.66 302.02 157 301C158.65 301.33 160.3 301.66 162 302C161.67 301.01 161.34 300.02 161 299C162.777 297.223 165.369 297.863 167.773 297.855Z" fill="#0F2025"/>
<path d="M187.281 269.773C189.112 269.773 189.112 269.773 190.98 269.773C192.935 269.789 192.935 269.789 194.93 269.805C196.289 269.808 197.648 269.811 199.007 269.813C202.568 269.821 206.129 269.84 209.689 269.863C213.329 269.883 216.969 269.892 220.609 269.902C227.74 269.924 234.87 269.958 242 270C241.67 270.577 241.34 271.155 241 271.75C239.729 274.199 239.729 274.199 240 278C240.66 277.67 241.32 277.34 242 277C243.425 282.343 244.249 289.151 241.988 294.309C241.662 294.867 241.336 295.425 241 296C242.65 296.33 244.3 296.66 246 297C246 293.04 246 289.08 246 285C246.33 285 246.66 285 247 285C247 289.29 247 293.58 247 298C243.7 298 240.4 298 237 298C237.66 296.989 238.32 295.979 239 294.938C241.142 291.15 241.65 288.386 241 284C239.204 281.247 237.947 279.474 235 278C228.736 277.478 225.902 278.079 221 282C221.33 280.35 221.66 278.7 222 277C223.39 276.727 223.39 276.727 224.809 276.449C226.006 276.198 227.204 275.946 228.438 275.687C229.633 275.444 230.827 275.2 232.059 274.949C233.029 274.636 234 274.323 235 274C235.33 273.01 235.66 272.02 236 271C235.218 271.03 234.435 271.061 233.629 271.092C230.107 271.228 226.585 271.364 223.062 271.5C221.831 271.548 220.599 271.595 219.33 271.645C217.575 271.712 217.575 271.712 215.785 271.781C214.701 271.823 213.617 271.865 212.5 271.908C210 272 210 272 209 272C210.021 272.835 210.021 272.835 211.062 273.687C213 276 213 276 212.938 278.625C212 281 212 281 209 283C205.678 282.676 204.392 282.392 202 280C202.33 277.03 202.66 274.06 203 271C196.4 271.33 189.8 271.66 183 272C183.33 272.66 183.66 273.32 184 274C184.45 279.289 184.45 279.289 182.812 281.875C180.382 283.383 178.81 283.36 176 283C175.34 282.34 174.68 281.68 174 281C174.023 278.836 174.023 278.836 174.375 276.375C174.486 275.558 174.597 274.74 174.711 273.898C174.806 273.272 174.902 272.645 175 272C179.251 270.393 182.744 269.754 187.281 269.773Z" fill="#D23E47"/>
<path d="M260 251C261.32 251.33 262.64 251.66 264 252C264.103 253.114 264.206 254.227 264.312 255.375C264.653 257.169 264.653 257.169 265 259C269.484 261.99 273.653 261.623 279 262C279 266.62 279 271.24 279 276C271.74 276 264.48 276 257 276C257.33 275.01 257.66 274.02 258 273C258.135 271.47 258.224 269.937 258.281 268.402C258.319 267.519 258.356 266.635 258.395 265.725C258.465 263.863 258.535 262.001 258.605 260.139C258.643 259.256 258.68 258.374 258.719 257.465C258.749 256.657 258.779 255.848 258.811 255.015C259 253 259 253 260 251Z" fill="#A9232C"/>
<path d="M230.062 196.937C231.132 196.939 231.132 196.939 232.223 196.94C241.149 196.952 250.075 196.972 259 197C256 199 256 199 254 199C254.495 199.99 254.495 199.99 255 201C256.32 200.67 257.64 200.34 259 200C259 200.99 259 201.98 259 203C258.34 203 257.68 203 257 203C256.67 203.99 256.34 204.98 256 206C255.01 205.67 254.02 205.34 253 205C253 204.01 253 203.02 253 202C249.51 200.404 246.846 199.679 243 200C242.67 200.33 242.34 200.66 242 201C239.536 201.095 237.099 201.126 234.635 201.113C233.864 201.114 233.093 201.114 232.299 201.114C229.74 201.113 227.18 201.105 224.621 201.098C222.851 201.096 221.082 201.094 219.312 201.093C214.644 201.089 209.977 201.08 205.31 201.069C200.551 201.058 195.792 201.054 191.033 201.049C181.689 201.038 172.344 201.021 163 201C163.33 200.01 163.66 199.02 164 198C186.017 197.012 208.028 196.911 230.062 196.937Z" fill="#E1343E"/>
<path d="M198 174C209.88 174 221.76 174 234 174C234 176.97 234 179.94 234 183C222.12 183 210.24 183 198 183C198 180.03 198 177.06 198 174Z" fill="#7B93A5"/>
<path d="M260.807 275.773C262.447 275.773 264.087 275.785 265.727 275.805C267.021 275.809 267.021 275.809 268.341 275.813C271.103 275.824 273.864 275.85 276.625 275.875C278.495 275.885 280.365 275.894 282.234 275.902C286.823 275.924 291.411 275.959 296 276C296 278.31 296 280.62 296 283C282.14 283 268.28 283 254 283C255.381 276.097 255.381 276.097 260.807 275.773Z" fill="#DED1D8"/>
<path d="M168 173C168.87 173.163 169.739 173.326 170.635 173.494C173.772 173.966 176.669 174.115 179.836 174.098C181.431 174.093 181.431 174.093 183.059 174.088C184.153 174.08 185.247 174.071 186.375 174.062C187.493 174.058 188.61 174.053 189.762 174.049C192.508 174.037 195.254 174.021 198 174C198 176.97 198 179.94 198 183C188.1 183 178.2 183 168 183C168 179.7 168 176.4 168 173Z" fill="#9B222D"/>
<path d="M234 174C243.9 174 253.8 174 264 174C264 176.97 264 179.94 264 183C254.1 183 244.2 183 234 183C234 180.03 234 177.06 234 174Z" fill="#9D1E2A"/>
<path d="M293 204C295.856 208.284 296.123 210.234 296.114 215.377C296.114 216.031 296.114 216.685 296.114 217.359C296.114 219.523 296.106 221.687 296.098 223.852C296.096 225.351 296.095 226.85 296.094 228.35C296.09 232.298 296.08 236.247 296.069 240.196C296.059 244.224 296.054 248.253 296.049 252.281C296.038 260.188 296.021 268.094 296 276C294.68 276 293.36 276 292 276C291.975 268.157 291.957 260.314 291.945 252.471C291.941 249.809 291.934 247.147 291.925 244.485C291.834 216.095 291.834 216.095 293 204Z" fill="#AF1F2C"/>
<path d="M323 271C343.79 271 364.58 271 386 271C386 271.99 386 272.98 386 274C383.275 275.362 381.132 275.12 378.082 275.114C376.84 275.113 375.599 275.113 374.32 275.113C372.961 275.108 371.602 275.103 370.242 275.098C368.855 275.096 367.468 275.094 366.081 275.093C362.428 275.09 358.775 275.08 355.122 275.069C351.395 275.058 347.668 275.054 343.941 275.049C336.628 275.038 329.314 275.021 322 275C322.33 273.68 322.66 272.36 323 271Z" fill="#DD3844"/>
<path d="M234 284C234.99 284.99 234.99 284.99 236 286C235.625 289.125 235.625 289.125 235 292C234.01 292.33 233.02 292.66 232 293C232 294.65 232 296.3 232 298C231.34 298 230.68 298 230 298C229.505 296.02 229.505 296.02 229 294C227.792 297.623 228.457 298.641 230 302C229.34 302.33 228.68 302.66 228 303C234.6 303.33 241.2 303.66 248 304C248 304.33 248 304.66 248 305C218.96 305 189.92 305 160 305C160 304.67 160 304.34 160 304C180.79 303.67 201.58 303.34 223 303C223.966 297.205 223.805 296.077 222 291C222.33 290.01 222.66 289.02 223 288C223.66 288 224.32 288 225 288C225.289 287.361 225.577 286.721 225.875 286.062C227.97 282.221 230.17 282.947 234 284Z" fill="#1A3032"/>
<path d="M278.027 212.637C280.729 213.134 281.395 213.75 283 216C283.298 218.682 283.421 221.127 283.398 223.809C283.403 224.953 283.403 224.953 283.407 226.121C283.409 227.734 283.404 229.347 283.391 230.96C283.375 233.425 283.391 235.889 283.41 238.354C283.408 239.922 283.404 241.49 283.398 243.059C283.408 244.162 283.408 244.162 283.417 245.287C283.373 248.463 283.182 250.675 281.616 253.472C280 255 280 255 277.738 255.391C276.938 255.344 276.137 255.298 275.312 255.25C274.504 255.214 273.696 255.178 272.863 255.141C272.248 255.094 271.634 255.048 271 255C270.67 254.34 270.34 253.68 270 253C271.758 252.349 273.516 251.698 275.273 251.047C277.541 249.672 277.998 248.439 279 246C279.434 242.698 279.37 239.391 279.375 236.063C279.399 235.169 279.424 234.275 279.449 233.354C279.468 229.104 279.38 226.643 277.18 222.922C274.487 220.547 272.536 220.241 269 220C270.004 213.643 271.558 212.794 278.027 212.637Z" fill="#ABD3D8"/>
<path d="M278.438 313.625C281 314 281 314 282.75 315.5C284.502 319.003 284.675 322.102 285 326C285.454 325.175 285.907 324.35 286.375 323.5C286.911 322.675 287.447 321.85 288 321C288.66 321 289.32 321 290 321C289.626 326.364 288.004 328.497 284 332C283.67 332.33 283.34 332.66 283 333C279.967 333.368 277.028 333.42 274 333C271.938 331 271.938 331 271 329C272.32 329 273.64 329 275 329C274.257 328.35 274.257 328.35 273.5 327.688C272 326 272 326 272 323C274.14 314.286 274.14 314.286 278.438 313.625Z" fill="#0F2A32"/>
<path d="M198 168C209.88 168 221.76 168 234 168C234 169.98 234 171.96 234 174C222.12 174 210.24 174 198 174C198 172.02 198 170.04 198 168Z" fill="#FCFDFC"/>
<path d="M282 308C286.347 310.512 288.649 312.85 290.125 317.687C290 321 290 321 288.562 322.812C288.047 323.204 287.531 323.596 287 324C287 324.66 287 325.32 287 326C286.34 326 285.68 326 285 326C284.795 325.29 284.59 324.579 284.379 323.848C284.109 322.929 283.84 322.009 283.562 321.062C283.295 320.146 283.029 319.229 282.754 318.285C282.21 316.06 282.21 316.06 281 315C278.542 314.667 278.542 314.667 276 315C273.81 318.285 273.002 321.207 272 325C272.99 325.66 273.98 326.32 275 327C275 327.66 275 328.32 275 329C272.625 329.187 272.625 329.187 270 329C267.305 324.957 267.334 321.748 268 317C271.188 310.852 274.722 306.716 282 308Z" fill="#0C252D"/>
<path d="M279 283C284.61 283 290.22 283 296 283C296 288.61 296 294.22 296 300C294.079 298.503 292.159 297.005 290.238 295.508C285.706 292.455 282.125 291.755 276.688 291.875C275.619 291.893 274.55 291.911 273.449 291.93C272.237 291.964 272.237 291.964 271 292C273.664 289.023 273.664 289.023 276.688 288.812C277.832 288.905 277.832 288.905 279 289C279 287.02 279 285.04 279 283Z" fill="#C9343E"/>
<path d="M308 288C308.33 292.62 308.66 297.24 309 302C309.124 300.041 309.248 298.081 309.375 296.062C309.586 292.723 309.586 292.723 310 290C310.66 289.67 311.32 289.34 312 289C312.797 299.033 313.128 308.936 313 319C310.36 319 307.72 319 305 319C305 309.1 305 299.2 305 289C307 288 307 288 308 288Z" fill="#B41928"/>
<path d="M378 241C379.175 243.349 379.2 244.951 379.316 247.57C379.379 248.914 379.379 248.914 379.443 250.285C379.483 251.222 379.522 252.16 379.562 253.125C379.606 254.07 379.649 255.015 379.693 255.988C379.8 258.325 379.902 260.663 380 263C376.04 263.495 376.04 263.495 372 264C372 263.01 372 262.02 372 261C370.02 261 368.04 261 366 261C366 259.35 366 257.7 366 256C369.3 255.67 372.6 255.34 376 255C376 253.35 376 251.7 376 250C372.7 250 369.4 250 366 250C366 248.35 366 246.7 366 245C368.31 245 370.62 245 373 245C373 244.34 373 243.68 373 243C372.34 242.67 371.68 242.34 371 242C375.75 241 375.75 241 378 241Z" fill="#4C636C"/>
<path d="M153 283C158.568 283.568 158.568 283.568 160 285C160.263 289.032 160.294 290.559 158 294C159.32 294.33 160.64 294.66 162 295C161.01 295.495 161.01 295.495 160 296C160 296.66 160 297.32 160 298C161.32 298.66 162.64 299.32 164 300C163.67 300.99 163.34 301.98 163 303C161.02 302.67 159.04 302.34 157 302C156.67 302.66 156.34 303.32 156 304C152.502 305.324 148.946 305.1 145.25 305.062C144.08 305.054 142.909 305.044 141.703 305.035C140.811 305.024 139.919 305.012 139 305C139 304.67 139 304.34 139 304C142.63 303.67 146.26 303.34 150 303C150.33 300.69 150.66 298.38 151 296C152.65 295.34 154.3 294.68 156 294C155.361 293.691 154.721 293.381 154.062 293.062C152 292 152 292 151 291C150.812 288.062 150.812 288.062 151 285C151.66 284.34 152.32 283.68 153 283Z" fill="#112C30"/>
<path d="M132 226C134.64 226 137.28 226 140 226C139.34 232.6 138.68 239.2 138 246C133 247 133 247 131.207 246.031C129.389 242.972 129.605 239.951 129.688 236.5C129.684 235.823 129.681 235.146 129.678 234.449C129.718 230.765 129.908 229.138 132 226Z" fill="#9F2833"/>
<path d="M246 261C246.33 261 246.66 261 247 261C247.206 287.177 247.206 287.177 246 297C244.02 297 242.04 297 240 297C240.495 296.072 240.495 296.072 241 295.125C242.776 289.575 242.615 283.594 241 278C240.34 278.33 239.68 278.66 239 279C238.738 275.854 238.752 274.382 240.5 271.688C240.995 271.131 241.49 270.574 242 270C240.35 270 238.7 270 237 270C237.743 269.443 238.485 268.886 239.25 268.312C241.915 266.071 243.871 263.738 246 261Z" fill="#E23740"/>
<path d="M182 271C188.93 271 195.86 271 203 271C203 271.99 203 272.98 203 274C202.34 274 201.68 274 201 274C201 276.31 201 278.62 201 281C200.01 281 199.02 281 198 281C198 280.34 198 279.68 198 279C196.025 279.348 196.025 279.348 194 280C193.67 280.66 193.34 281.32 193 282C186.125 281.125 186.125 281.125 185 280C184.959 277.667 184.958 275.333 185 273C184.01 272.67 183.02 272.34 182 272C182 271.67 182 271.34 182 271Z" fill="#E3363D"/>
<path d="M303 268C306.63 268 310.26 268 314 268C314 272.95 314 277.9 314 283C310.37 283 306.74 283 303 283C303 278.05 303 273.1 303 268Z" fill="#AB3D4C"/>
<path d="M312 229C336.75 229 361.5 229 387 229C387.495 229.99 387.495 229.99 388 231C363.25 231.33 338.5 231.66 313 232C312.67 231.01 312.34 230.02 312 229Z" fill="#ED6D75"/>
<path d="M256 325C256.22 325.944 256.22 325.944 256.445 326.906C258.144 333.389 260.629 337.936 265 343C260.968 343.504 258.362 343.788 254.793 341.723C249.876 337.7 247.707 334.081 246 328C247.29 327.496 248.582 326.997 249.875 326.5C250.954 326.082 250.954 326.082 252.055 325.656C254 325 254 325 256 325Z" fill="#2C424D"/>
<path d="M326 327C328.97 327 331.94 327 335 327C335.231 327.652 335.461 328.305 335.699 328.977C337.784 334.563 339.896 338.667 344 343C338.971 343.296 336 343.158 332 340C327.806 335.806 326.356 332.929 326 327Z" fill="#2C434D"/>
<path d="M198 174C209.88 174 221.76 174 234 174C234 175.65 234 177.3 234 179C222.12 179 210.24 179 198 179C198 177.35 198 175.7 198 174Z" fill="#B2BCC7"/>
<path d="M158 327C161.3 327 164.6 327 168 327C168.41 327.831 168.82 328.663 169.242 329.52C169.781 330.606 170.32 331.693 170.875 332.812C171.675 334.431 171.676 334.431 172.492 336.082C173.972 339.078 173.972 339.078 176 342C171.4 341.888 167.345 341.743 163.625 338.812C160.214 335.158 158 332.089 158 327Z" fill="#2B404A"/>
<path d="M267.938 225.812C271 226 271 226 273 228C273.195 231.039 273.195 231.039 273.125 234.625C273.107 235.814 273.089 237.002 273.07 238.227C273.047 239.142 273.024 240.057 273 241C270.03 241 267.06 241 264 241C263.973 238.688 263.954 236.375 263.938 234.062C263.926 232.775 263.914 231.487 263.902 230.16C264.029 226.062 264.029 226.062 267.938 225.812Z" fill="#D6525A"/>
<path d="M181 283C182.32 283 183.64 283 185 283C185 284.32 185 285.64 185 287C185.66 287 186.32 287 187 287C187.66 288.32 188.32 289.64 189 291C188.01 291.33 187.02 291.66 186 292C185.67 291.34 185.34 290.68 185 290C183.35 290 181.7 290 180 290C180 290.66 180 291.32 180 292C176.04 292 172.08 292 168 292C168.33 292.66 168.66 293.32 169 294C170.65 294 172.3 294 174 294C174 294.99 174 295.98 174 297C171.03 297 168.06 297 165 297C165.66 295.02 166.32 293.04 167 291C167.66 291 168.32 291 169 291C169.33 290.34 169.66 289.68 170 289C170.33 288.67 170.66 288.34 171 288C171.362 286.674 171.697 285.341 172 284C173.98 284 175.96 284 178 284C178.66 285.65 179.32 287.3 180 289C180.33 287.02 180.66 285.04 181 283Z" fill="#E7575D"/>
<path d="M168 173C168.87 173.163 169.739 173.326 170.635 173.494C173.772 173.966 176.669 174.115 179.836 174.098C181.431 174.093 181.431 174.093 183.059 174.088C184.153 174.08 185.247 174.071 186.375 174.062C187.493 174.058 188.61 174.053 189.762 174.049C192.508 174.037 195.254 174.021 198 174C198 175.65 198 177.3 198 179C183.15 178.505 183.15 178.505 168 178C168 176.35 168 174.7 168 173Z" fill="#CE303C"/>
<path d="M175.338 168.773C176.291 168.783 177.245 168.794 178.227 168.805C179.773 168.814 179.773 168.814 181.352 168.824C182.972 168.849 182.972 168.849 184.625 168.875C185.713 168.884 186.801 168.893 187.922 168.902C190.615 168.926 193.307 168.959 196 169C196 170.65 196 172.3 196 174C189.07 174 182.14 174 175 174C175 173.34 175 172.68 175 172C173.68 171.67 172.36 171.34 171 171C173 169 173 169 175.338 168.773Z" fill="#F18188"/>
<path d="M321 312C322.75 311.973 324.5 311.954 326.25 311.938C327.712 311.92 327.712 311.92 329.203 311.902C331.658 311.988 333.662 312.293 336 313C336 314.65 336 316.3 336 318C335.34 318 334.68 318 334 318C334 318.66 334 319.32 334 320C329.71 320 325.42 320 321 320C321 317.36 321 314.72 321 312Z" fill="#AB202B"/>
<path d="M234 174C243.57 174 253.14 174 263 174C260 178 260 178 257.365 178.454C255.817 178.423 255.817 178.423 254.238 178.391C253.12 178.378 252.002 178.365 250.85 178.352C249.682 178.318 248.515 178.285 247.312 178.25C246.134 178.232 244.955 178.214 243.74 178.195C240.826 178.148 237.913 178.082 235 178C235.33 179.65 235.66 181.3 236 183C235.34 183 234.68 183 234 183C234 180.03 234 177.06 234 174Z" fill="#C9303C"/>
<path d="M278.438 313.625C281 314 281 314 282.812 315.625C284.333 318.665 284.429 320.64 284 324C282.875 325.938 282.875 325.938 281 327C275.565 326.565 275.565 326.565 274 325C273.832 323.004 273.832 323.004 273.812 320.562C273.798 319.759 273.784 318.956 273.77 318.129C274.121 314.88 275.287 314.11 278.438 313.625Z" fill="#B5CBD4"/>
<path d="M358.062 314.062C360.401 315.194 361.594 315.779 363 318C362.875 321.562 362.875 321.562 362 325C359 327 359 327 356.438 326.812C354 326 354 326 352 323C351.625 320.562 351.625 320.562 352 318C354.97 313.969 354.97 313.969 358.062 314.062Z" fill="#B2CAD1"/>
<path d="M290 216C292.325 219.668 292.387 223.294 292.477 227.512C292.501 228.603 292.501 228.603 292.526 229.717C292.553 231.256 292.575 232.795 292.59 234.334C292.613 235.894 292.654 237.455 292.713 239.014C293.266 253.591 293.266 253.591 288.273 259.52C285.312 262.431 283.118 263.479 279 264C279 263.34 279 262.68 279 262C283.385 259 283.385 259 286 259C288.231 253.497 289.184 248.977 289.316 243.051C289.337 242.278 289.358 241.506 289.379 240.71C289.445 238.244 289.504 235.778 289.562 233.312C289.606 231.64 289.649 229.967 289.693 228.295C289.8 224.197 289.902 220.098 290 216Z" fill="#E9757A"/>
<path d="M154 214C155.65 214.33 157.3 214.66 159 215C158.692 217.459 158.379 219.917 158.062 222.375C157.975 223.074 157.888 223.772 157.799 224.492C157.113 229.773 157.113 229.773 156 232C154.35 231.67 152.7 231.34 151 231C151.114 228.916 151.242 226.833 151.375 224.75C151.445 223.59 151.514 222.43 151.586 221.234C151.962 218.293 152.477 216.501 154 214Z" fill="#F2FDFD"/>
<path d="M187 282C187.99 282.33 188.98 282.66 190 283C190.688 285.062 190.688 285.062 191 287C192.98 286.67 194.96 286.34 197 286C197 284.68 197 283.36 197 282C198.32 282.33 199.64 282.66 201 283C200.71 286.267 200.514 288.387 198.375 290.938C194.887 292.498 192.636 291.992 189 291C187 289.25 187 289.25 186 287C186.312 284.25 186.312 284.25 187 282Z" fill="#35171C"/>
<path d="M183 273C184 274 184 274 184.25 276.875C184 280 184 280 182.812 281.875C180.382 283.383 178.81 283.36 176 283C174 281 174 281 173.688 278.062C174 275 174 275 175.125 273.062C177.952 271.46 179.949 272.204 183 273Z" fill="#221A22"/>
<path d="M208.625 272.125C211 273 211 273 213 276C212.813 278.562 212.813 278.562 212 281C209 283 209 283 206.438 282.75C204 282 204 282 202 280C201.625 277.562 201.625 277.562 202 275C204.226 272.527 205.283 271.966 208.625 272.125Z" fill="#261B24"/>
<path d="M384 276C385.32 276 386.64 276 388 276C388 278.31 388 280.62 388 283C365.89 283 343.78 283 321 283C321 282.67 321 282.34 321 282C342.12 282 363.24 282 385 282C384.505 279.03 384.505 279.03 384 276Z" fill="#F8D0D2"/>
<path d="M343 256C348.61 256 354.22 256 360 256C360 257.65 360 259.3 360 261C354.39 261 348.78 261 343 261C343 259.35 343 257.7 343 256Z" fill="#9DB2BD"/>
<path d="M343 245C348.61 245 354.22 245 360 245C360 246.65 360 248.3 360 250C354.39 250 348.78 250 343 250C343 248.35 343 246.7 343 245Z" fill="#AEC4CE"/>
<path d="M133.848 225.902C135.898 225.935 137.949 225.967 140 226C139.67 227.65 139.34 229.3 139 231C137.68 231 136.36 231 135 231C135 234.3 135 237.6 135 241C133.68 241 132.36 241 131 241C130.973 238.688 130.954 236.375 130.938 234.062C130.926 232.775 130.914 231.487 130.902 230.16C131.029 226.051 131.029 226.051 133.848 225.902Z" fill="#DE6A72"/>
<path d="M234 284C234.66 284.66 235.32 285.32 236 286C235.432 291.568 235.432 291.568 234 293C231.062 293.25 231.062 293.25 228 293C226 290 226 290 226.25 286.875C226.621 285.452 226.621 285.452 227 284C229.706 282.647 231.133 283.212 234 284Z" fill="#F1F7F8"/>
<path d="M321 245C326.28 245 331.56 245 337 245C337 246.65 337 248.3 337 250C331.72 250 326.44 250 321 250C321 248.35 321 246.7 321 245Z" fill="#B2C9D4"/>
<path d="M279 276C283.29 276 287.58 276 292 276C292 277.98 292 279.96 292 282C287.71 282 283.42 282 279 282C279 280.02 279 278.04 279 276Z" fill="#FDF8F9"/>
<path d="M153 283C158.568 283.568 158.568 283.568 160 285C160.188 287.938 160.188 287.938 160 291C158 293 158 293 155.5 293.25C153 293 153 293 151 291C150.75 288 150.75 288 151 285C151.66 284.34 152.32 283.68 153 283Z" fill="#F0F7F6"/>
<path d="M303 276C306.63 276 310.26 276 314 276C314 278.31 314 280.62 314 283C310.37 283 306.74 283 303 283C303 280.69 303 278.38 303 276Z" fill="#DED1D5"/>
<path d="M279 226C279.33 226 279.66 226 280 226C280.087 229.229 280.141 232.458 280.188 235.688C280.225 237.056 280.225 237.056 280.264 238.451C280.357 247.032 280.357 247.032 277 251C274 253 274 253 271.812 252.625C270.915 252.316 270.915 252.316 270 252C270.99 251.67 271.98 251.34 273 251C275.151 247.176 275.368 243.28 275.656 238.988C276 237 276 237 278 235C278.46 232.797 278.46 232.797 278.625 230.375C278.7 229.558 278.775 228.74 278.852 227.898C278.901 227.272 278.95 226.645 279 226Z" fill="#194042"/>
</svg>
