<svg width="512" height="512" viewBox="0 0 512 512" fill="none" xmlns="http://www.w3.org/2000/svg">
<g clip-path="url(#clip0_943_5285)">
<mask id="mask0_943_5285" style="mask-type:luminance" maskUnits="userSpaceOnUse" x="0" y="0" width="512" height="512">
<path d="M512 0H0V512H512V0Z" fill="white"/>
</mask>
<g mask="url(#mask0_943_5285)">
</g>
<g clip-path="url(#clip1_943_5285)">
<path d="M182.132 160.223C182.939 160.218 183.746 160.213 184.577 160.208C187.244 160.194 189.911 160.187 192.578 160.181C194.436 160.175 196.295 160.17 198.153 160.164C202.05 160.153 205.948 160.148 209.845 160.144C214.826 160.139 219.806 160.115 224.787 160.086C228.627 160.067 232.467 160.062 236.307 160.061C238.143 160.058 239.978 160.05 241.814 160.037C244.389 160.019 246.963 160.021 249.538 160.028C250.288 160.019 251.039 160.009 251.812 160C257.175 160.042 261.194 161.166 266.094 163.384C270.498 168.015 271.218 170.716 271.156 177.009C271.147 178.198 271.138 179.386 271.129 180.611C271.112 181.984 271.112 181.984 271.094 183.384C271.879 183.338 272.664 183.292 273.473 183.244C282.176 182.945 286.203 183.946 292.781 189.759C297.383 194.983 299.697 199.644 301.48 206.31C301.906 208.355 301.906 208.355 303.094 209.384C303.094 212.684 303.094 215.984 303.094 219.384C323.884 219.384 344.674 219.384 366.094 219.384C365.764 217.734 365.434 216.084 365.094 214.384C361.51 213.382 361.51 213.382 358.094 214.384C356.06 214.503 354.022 214.564 351.984 214.595C350.755 214.624 349.525 214.652 348.258 214.681C345.664 214.733 343.07 214.777 340.477 214.814C338.624 214.861 338.624 214.861 336.734 214.908C335.605 214.928 334.477 214.947 333.313 214.968C329.702 215.435 327.268 216.645 324.094 218.384C319.543 219.226 316.013 218.826 311.844 216.822C306.903 212.443 303.417 208.213 302.957 201.431C303.344 195.642 305.961 190.402 310.094 186.384C314.892 183.759 318.645 182.79 324.094 183.384C325.023 183.882 325.952 184.379 326.909 184.892C330.434 186.544 332.618 186.721 336.48 186.642C338.258 186.621 338.258 186.621 340.072 186.599C341.296 186.57 342.52 186.54 343.781 186.509C346.223 186.466 348.664 186.427 351.105 186.392C352.721 186.356 352.721 186.356 354.37 186.318C357.094 186.384 357.094 186.384 360.094 187.384C362.342 187.537 364.593 187.658 366.844 187.759C375.452 188.344 380.173 189.767 386.094 196.384C386.424 196.714 386.754 197.044 387.094 197.384C387.219 199.006 387.269 200.633 387.281 202.259C387.295 203.144 387.31 204.028 387.324 204.939C387.094 207.384 387.094 207.384 385.094 210.384C384.434 210.384 383.774 210.384 383.094 210.384C383.094 213.354 383.094 216.324 383.094 219.384C383.981 219.281 384.867 219.178 385.781 219.072C389.094 219.384 389.094 219.384 391.765 221.448C394.69 225.136 394.704 227.015 394.674 231.682C394.676 232.398 394.679 233.114 394.681 233.851C394.683 235.399 394.674 236.947 394.655 238.495C394.625 240.946 394.626 243.396 394.635 245.847C394.649 251.047 394.624 256.247 394.594 261.447C394.559 267.478 394.539 273.507 394.562 279.538C394.562 281.952 394.533 284.364 394.503 286.777C394.505 288.257 394.509 289.737 394.514 291.217C394.505 292.507 394.497 293.798 394.488 295.128C394.795 298.562 394.795 298.562 397.568 300.707C398.401 301.261 399.235 301.814 400.094 302.384C401.61 305.416 401.343 308.264 401.406 311.634C401.444 312.939 401.481 314.243 401.52 315.587C401.027 319.98 399.927 322.03 397.094 325.384C393.64 328.012 390.06 327.587 385.844 327.509C384.58 327.491 383.317 327.473 382.016 327.455C381.051 327.431 380.087 327.408 379.094 327.384C378.967 328.309 378.841 329.233 378.711 330.185C377.716 335.343 374.789 338.806 371.094 342.384C372.903 342.422 372.903 342.422 374.75 342.46C379.21 342.554 383.669 342.654 388.129 342.757C390.062 342.8 391.995 342.842 393.928 342.882C396.701 342.939 399.474 343.003 402.246 343.068C403.116 343.085 403.986 343.101 404.882 343.119C410.98 343.27 410.98 343.27 412.094 344.384C412.134 346.051 412.136 347.718 412.094 349.384C409.62 350.621 407.995 350.51 405.228 350.51C403.676 350.514 403.676 350.514 402.093 350.518C400.375 350.515 400.375 350.515 398.623 350.511C396.808 350.514 396.808 350.514 394.957 350.516C391.588 350.519 388.22 350.518 384.852 350.515C381.223 350.513 377.595 350.516 373.966 350.519C366.854 350.524 359.742 350.523 352.63 350.52C346.852 350.517 341.075 350.517 335.297 350.518C334.476 350.518 333.655 350.518 332.809 350.519C331.142 350.519 329.474 350.519 327.807 350.52C312.156 350.522 296.505 350.519 280.855 350.514C267.411 350.509 253.968 350.51 240.524 350.515C224.93 350.52 209.335 350.522 193.74 350.519C192.079 350.519 190.418 350.518 188.757 350.518C187.939 350.518 187.122 350.518 186.279 350.518C180.505 350.517 174.731 350.518 168.956 350.521C161.925 350.523 154.893 350.523 147.862 350.517C144.271 350.515 140.68 350.514 137.089 350.517C133.205 350.521 129.322 350.516 125.438 350.511C124.29 350.514 123.143 350.516 121.961 350.518C120.929 350.516 119.897 350.513 118.834 350.51C117.936 350.51 117.039 350.51 116.114 350.51C114.094 350.384 114.094 350.384 113.094 349.384C112.969 346.884 112.969 346.884 113.094 344.384C114.65 342.828 116.172 343.221 118.338 343.179C119.239 343.159 120.14 343.139 121.068 343.119C122.537 343.094 122.537 343.094 124.035 343.068C125.033 343.047 126.03 343.026 127.058 343.005C130.257 342.939 133.457 342.881 136.656 342.822C138.82 342.779 140.983 342.735 143.146 342.691C148.462 342.584 153.778 342.482 159.094 342.384C158.677 341.847 158.259 341.311 157.83 340.757C157.285 340.046 156.741 339.336 156.18 338.603C155.639 337.901 155.098 337.199 154.54 336.476C152.769 333.915 151.847 331.396 151.094 328.384C150.008 328.37 148.923 328.356 147.805 328.341C146.359 328.294 144.914 328.246 143.469 328.197C142.756 328.191 142.043 328.185 141.309 328.179C135.624 327.945 133.011 326.543 129.094 322.384C127.061 318.73 126.797 315.532 126.781 311.384C126.764 310.374 126.748 309.363 126.73 308.322C127.149 304.938 128.073 303.11 130.094 300.384C131.579 299.394 131.579 299.394 133.094 298.384C133.408 295.892 133.535 293.635 133.535 291.138C133.548 290.413 133.562 289.687 133.575 288.939C133.616 286.608 133.638 284.278 133.656 281.947C133.855 262.87 133.855 262.87 136.094 253.384C135.042 253.487 133.99 253.591 132.906 253.697C129.094 253.384 129.094 253.384 126.395 251.584C122.977 246.831 123.362 242.595 123.469 236.884C123.449 235.852 123.43 234.819 123.41 233.755C123.459 226.214 123.459 226.215 126.508 222.228C130.121 219.652 131.831 219.266 136.219 219.322C137.129 219.331 138.039 219.34 138.977 219.349C139.675 219.361 140.374 219.372 141.094 219.384C141.192 218.178 141.29 216.971 141.391 215.728C141.541 214.114 141.692 212.499 141.844 210.884C141.937 209.697 141.937 209.697 142.031 208.486C142.755 201.126 145.048 194.802 150.469 189.572C151.067 188.993 151.665 188.414 152.281 187.818C154.094 186.384 154.094 186.384 157.469 185.134C160.33 183.672 160.33 183.672 160.582 180.974C160.716 179.02 160.824 177.064 160.906 175.107C161.256 170.03 163.335 166.867 167.031 163.572C171.95 160.059 176.218 160.232 182.132 160.223Z" fill="#202A31"/>
<path d="M182.259 160.271C183.079 160.271 183.899 160.271 184.743 160.27C187.449 160.271 190.154 160.279 192.859 160.287C194.737 160.289 196.614 160.29 198.492 160.291C203.431 160.295 208.369 160.305 213.308 160.316C218.348 160.326 223.389 160.33 228.43 160.336C238.318 160.346 248.206 160.363 258.094 160.384C258.094 160.714 258.094 161.044 258.094 161.384C246.874 161.714 235.654 162.044 224.094 162.384C226.404 162.714 228.714 163.044 231.094 163.384C231.589 165.364 231.589 165.364 232.094 167.384C231.017 167.393 231.017 167.393 229.919 167.402C223.15 167.46 216.382 167.532 209.614 167.62C206.135 167.665 202.655 167.704 199.176 167.731C195.174 167.762 191.173 167.817 187.172 167.873C185.924 167.879 184.676 167.885 183.39 167.892C182.229 167.912 181.068 167.932 179.872 167.952C178.34 167.969 178.34 167.969 176.777 167.986C173.695 168.444 172.274 169.175 170.094 171.384C170.094 172.374 170.094 173.364 170.094 174.384C179.334 174.384 188.574 174.384 198.094 174.384C198.094 177.354 198.094 180.324 198.094 183.384C209.974 183.384 221.854 183.384 234.094 183.384C234.094 180.414 234.094 177.444 234.094 174.384C243.994 174.384 253.894 174.384 264.094 174.384C264.424 173.394 264.754 172.404 265.094 171.384C265.424 172.374 265.754 173.364 266.094 174.384C266.754 174.384 267.414 174.384 268.094 174.384C268.313 178.226 267.82 180.931 266.094 184.384C263.38 185.741 261.245 185.497 258.211 185.482C257.044 185.479 255.878 185.476 254.676 185.472C253.452 185.464 252.229 185.455 250.969 185.447C249.738 185.442 248.507 185.438 247.238 185.433C244.19 185.421 241.142 185.405 238.094 185.384C238.094 186.044 238.094 186.704 238.094 187.384C239.167 187.374 240.241 187.363 241.347 187.353C245.367 187.316 249.387 187.293 253.407 187.274C255.141 187.264 256.874 187.251 258.607 187.233C261.112 187.209 263.616 187.198 266.121 187.189C266.884 187.179 267.647 187.168 268.433 187.158C273.878 187.157 278.829 188.013 284.094 189.384C284.094 190.044 284.094 190.704 284.094 191.384C283.331 191.223 282.568 191.062 281.782 190.895C276.867 190.214 272.032 190.22 267.075 190.207C265.975 190.201 264.875 190.194 263.742 190.187C260.112 190.168 256.482 190.156 252.852 190.146C250.988 190.14 250.988 190.14 249.087 190.134C243.193 190.115 237.298 190.1 231.403 190.092C224.618 190.082 217.834 190.056 211.049 190.016C205.155 189.982 199.262 189.97 193.368 189.966C190.868 189.961 188.368 189.949 185.868 189.931C182.369 189.907 178.871 189.907 175.372 189.914C174.344 189.902 173.316 189.889 172.257 189.876C166.167 189.92 160.944 190.414 156.094 194.384C154.116 196.911 152.538 199.523 151.094 202.384C152.881 202.39 152.881 202.39 154.705 202.395C165.932 202.432 177.158 202.49 188.385 202.568C194.157 202.608 199.929 202.64 205.701 202.655C211.271 202.67 216.84 202.705 222.41 202.753C224.535 202.768 226.661 202.775 228.786 202.776C231.763 202.779 234.738 202.806 237.714 202.838C239.033 202.831 239.033 202.831 240.379 202.823C244.43 202.892 246.59 203.079 250.124 205.221C252.905 208.275 252.982 210.276 253.094 214.384C252.827 217.579 252.322 220.705 251.766 223.861C251.616 224.749 251.466 225.637 251.312 226.553C250.994 228.421 250.671 230.288 250.343 232.155C249.845 235.005 249.368 237.858 248.895 240.712C248.582 242.533 248.268 244.353 247.953 246.173C247.742 247.447 247.742 247.447 247.527 248.746C246.463 254.675 244.844 259.385 240.094 263.385C238.213 263.766 238.213 263.766 236.057 263.777C234.829 263.793 234.829 263.793 233.576 263.81C232.681 263.807 231.787 263.804 230.865 263.801C229.447 263.814 229.447 263.814 228.001 263.827C224.873 263.852 221.745 263.856 218.617 263.861C216.449 263.875 214.281 263.891 212.113 263.908C206.402 263.95 200.691 263.975 194.98 263.996C185.831 264.032 176.682 264.092 167.533 264.154C164.329 264.173 161.124 264.185 157.919 264.196C155.967 264.206 154.016 264.216 152.064 264.227C151.165 264.228 150.267 264.229 149.341 264.23C145.402 263.864 145.402 263.864 142.094 265.385C141.934 267.831 141.834 270.252 141.777 272.701C141.757 273.432 141.736 274.163 141.714 274.916C141.649 277.26 141.59 279.603 141.531 281.947C141.488 283.532 141.445 285.118 141.4 286.703C141.293 290.597 141.192 294.491 141.094 298.385C143.404 298.055 145.714 297.724 148.094 297.385C147.599 296.91 147.104 296.436 146.594 295.947C144.369 292.146 144.276 288.683 145.094 284.385C146.813 281.316 148.901 278.981 152.094 277.385C159.113 276.809 159.113 276.809 162.969 279.072C166.293 282.69 167.119 284.957 167.031 289.885C165.926 294.01 164.313 295.66 161.094 298.385C161.094 297.394 161.094 296.405 161.094 295.385C160.104 295.055 159.114 294.724 158.094 294.385C158.424 291.415 158.754 288.445 159.094 285.385C157.102 285.003 155.101 284.671 153.094 284.385C151.778 285.491 151.778 285.491 151.781 288.26C151.757 291.481 151.757 291.481 154.094 293.26C154.754 293.631 155.414 294.002 156.094 294.385C155.764 295.045 155.434 295.705 155.094 296.385C153.774 296.385 152.454 296.385 151.094 296.385C150.764 298.695 150.434 301.004 150.094 303.385C149.095 303.589 148.096 303.794 147.066 304.006C145.776 304.275 144.486 304.544 143.156 304.822C141.869 305.089 140.581 305.356 139.254 305.631C136.247 306.056 136.247 306.056 135.094 307.385C134.995 309.028 134.964 310.676 134.969 312.322C134.966 313.218 134.964 314.114 134.961 315.037C134.94 317.406 134.939 317.406 136.094 319.385C138.934 320.331 140.674 320.51 143.617 320.511C145.007 320.516 145.007 320.516 146.426 320.52C147.948 320.517 147.947 320.517 149.5 320.514C151.105 320.517 151.105 320.517 152.743 320.519C156.288 320.524 159.834 320.521 163.379 320.517C165.836 320.518 168.293 320.519 170.75 320.52C175.903 320.522 181.055 320.52 186.207 320.515C192.824 320.509 199.441 320.512 206.058 320.518C211.132 320.522 216.207 320.521 221.281 320.518C223.721 320.518 226.162 320.518 228.602 320.521C232.007 320.523 235.412 320.519 238.817 320.514C240.342 320.517 240.342 320.517 241.897 320.52C242.821 320.517 243.745 320.514 244.697 320.511C245.906 320.511 245.906 320.511 247.138 320.51C249.174 320.507 249.174 320.507 251.094 319.385C251.955 316.801 252.31 315.051 252.406 312.385C252.462 311.364 252.462 311.364 252.52 310.322C252.253 308.226 252.253 308.226 250.365 306.795C247.794 305.198 246.327 304.969 243.328 304.873C242.439 304.837 241.549 304.802 240.633 304.765C239.252 304.732 239.252 304.732 237.844 304.697C236.908 304.663 235.972 304.629 235.008 304.593C232.703 304.511 230.399 304.442 228.094 304.385C227.764 303.724 227.434 303.064 227.094 302.385C227.754 302.055 228.414 301.724 229.094 301.385C228.434 299.405 227.774 297.424 227.094 295.385C228.414 295.055 229.734 294.724 231.094 294.385C230.764 295.705 230.434 297.025 230.094 298.385C230.754 298.385 231.414 298.385 232.094 298.385C232.032 297.621 231.97 296.858 231.906 296.072C232.094 293.385 232.094 293.385 233.656 291.885C234.131 291.39 234.605 290.894 235.094 290.385C234.863 287.73 234.863 287.73 234.094 285.385C230.622 284.635 230.622 284.635 227.094 284.385C226.764 286.365 226.434 288.345 226.094 290.385C225.764 289.724 225.434 289.064 225.094 288.385C224.434 288.715 223.774 289.045 223.094 289.385C223.094 291.364 223.094 293.345 223.094 295.385C221.594 294.385 221.594 294.385 220.094 292.385C219.238 285.861 219.238 285.861 221.148 282.564C222.922 280.392 224.569 278.647 227.094 277.385C233.907 276.703 233.907 276.703 236.918 278.431C239.082 280.213 240.832 281.861 242.094 284.385C242.473 289.409 242.097 292.3 239.094 296.385C238.764 296.715 238.434 297.045 238.094 297.385C241.064 297.715 244.034 298.045 247.094 298.385C247.082 297.467 247.071 296.549 247.059 295.603C246.955 281.509 246.955 281.509 248.094 276.385C248.758 275.87 249.421 275.356 250.105 274.826C253.261 270.951 252.653 266.796 252.656 261.947C252.687 255.62 252.81 251.849 256.094 246.384C256.632 241.96 256.53 237.496 256.533 233.045C256.624 228.645 256.684 226.062 259.004 222.228C261.094 220.384 261.094 220.384 263.094 220.384C262.97 219.353 262.846 218.322 262.719 217.259C263.163 212.672 264.242 211.546 267.488 208.548C271.744 205.463 277.088 205.944 282.094 206.384C286.387 208.12 288.108 210.258 290.094 214.384C290.393 217.228 290.538 219.845 290.527 222.685C290.533 223.48 290.538 224.276 290.543 225.095C290.55 226.773 290.548 228.452 290.54 230.13C290.531 232.679 290.56 235.225 290.592 237.773C290.593 239.41 290.593 241.048 290.59 242.685C290.601 243.437 290.612 244.19 290.624 244.965C290.552 250.498 289.16 254.752 286.094 259.384C282.291 262.638 279.185 262.721 274.281 262.572C272.539 262.531 272.539 262.531 270.762 262.49C269.881 262.455 269.001 262.42 268.094 262.385C268.094 261.065 268.094 259.744 268.094 258.384C268.754 258.384 269.414 258.384 270.094 258.384C270.424 257.064 270.754 255.744 271.094 254.384C272.033 254.437 272.033 254.437 272.992 254.49C273.809 254.517 274.627 254.544 275.469 254.572C276.687 254.624 276.687 254.624 277.93 254.677C278.644 254.581 279.358 254.484 280.094 254.384C282.652 250.548 282.347 247.439 282.289 242.998C282.286 242.181 282.283 241.364 282.28 240.522C282.269 237.913 282.244 235.305 282.219 232.697C282.209 230.928 282.2 229.159 282.191 227.39C282.169 223.055 282.135 218.72 282.094 214.384C278.794 214.384 275.494 214.384 272.094 214.384C271.104 216.364 270.114 218.344 269.094 220.384C269.981 220.261 270.867 220.137 271.781 220.009C275.094 220.384 275.094 220.384 277.77 222.779C281.066 226.996 280.76 231.294 280.594 236.447C280.596 237.332 280.599 238.217 280.602 239.128C280.529 243.981 280.305 247.499 277.094 251.384C273.439 253.821 272.107 253.504 267.969 252.873C265.621 252.261 264.44 251.404 263.094 249.384C263.094 249.054 263.094 248.724 263.094 248.384C266.724 248.054 270.354 247.724 274.094 247.384C274.154 246.348 274.215 245.312 274.277 244.244C274.362 242.874 274.446 241.504 274.531 240.134C274.571 239.452 274.61 238.771 274.65 238.068C274.86 234.74 275.113 231.582 276.094 228.384C272.513 226.85 270.636 226.262 266.781 227.134C263.977 228.1 263.977 228.1 263.094 230.384C262.434 230.384 261.774 230.384 261.094 230.384C261.424 235.334 261.754 240.284 262.094 245.384C261.434 245.384 260.774 245.384 260.094 245.384C260.094 247.034 260.094 248.684 260.094 250.384C259.434 250.384 258.774 250.384 258.094 250.384C258.424 251.044 258.754 251.704 259.094 252.384C259.387 255.794 259.372 259.213 259.406 262.635C259.435 263.577 259.464 264.519 259.494 265.49C259.55 271.646 258.564 274.234 255.094 279.385C254.477 282.934 254.489 286.414 254.531 290.01C254.507 290.951 254.484 291.892 254.459 292.861C254.397 298.54 254.397 298.54 257.629 303.033C258.442 303.479 259.256 303.925 260.094 304.385C260.63 303.498 261.166 302.611 261.719 301.697C264.817 297.05 268.923 293.581 274.094 291.385C280.424 290.361 285.881 291.646 291.094 295.385C291.754 296.375 292.414 297.364 293.094 298.385C290.124 297.394 287.154 296.405 284.094 295.385C284.094 294.724 284.094 294.064 284.094 293.385C281.124 293.715 278.154 294.045 275.094 294.385C275.094 295.045 275.094 295.705 275.094 296.385C277.074 296.715 279.054 297.045 281.094 297.385C281.094 297.715 281.094 298.045 281.094 298.385C280.323 298.555 279.552 298.725 278.758 298.9C277.755 299.142 276.752 299.385 275.719 299.635C274.721 299.867 273.723 300.099 272.695 300.338C270.041 301.136 270.041 301.136 268.867 303.092C267.89 305.989 266.962 308.889 266.094 311.822C264.924 315.765 263.683 319.59 262.094 323.385C261.104 323.055 260.114 322.724 259.094 322.385C258.406 320.322 258.406 320.322 258.094 318.385C257.434 318.715 256.774 319.045 256.094 319.385C255.434 319.055 254.774 318.724 254.094 318.385C253.764 320.034 253.434 321.685 253.094 323.385C253.754 323.385 254.414 323.385 255.094 323.385C254.764 324.375 254.434 325.364 254.094 326.385C251.124 326.715 248.154 327.045 245.094 327.385C245.094 328.045 245.094 328.705 245.094 329.385C242.619 330.375 242.619 330.375 240.094 331.385C239.764 330.394 239.434 329.405 239.094 328.385C228.864 328.055 218.634 327.724 208.094 327.385C207.599 331.345 207.599 331.345 207.094 335.385C205.114 337.695 203.134 340.004 201.094 342.385C214.954 342.715 228.814 343.045 243.094 343.385C243.094 344.045 243.094 344.705 243.094 345.385C246.064 345.715 249.034 346.045 252.094 346.385C252.094 347.045 252.094 347.705 252.094 348.385C253.414 348.385 254.734 348.385 256.094 348.385C256.094 347.724 256.094 347.064 256.094 346.385C266.583 345.405 276.607 345.489 287.094 346.385C287.094 345.394 287.094 344.405 287.094 343.385C286.021 343.57 284.949 343.756 283.844 343.947C280.574 344.328 279.1 344.283 276.094 343.385C276.89 343.009 277.687 342.634 278.508 342.248C284.307 339.447 289.401 336.816 294.094 332.385C294.424 333.705 294.754 335.025 295.094 336.385C294.104 336.715 293.114 337.045 292.094 337.385C292.094 339.034 292.094 340.685 292.094 342.385C308.924 342.879 308.924 342.879 326.094 343.385C324.114 340.415 322.134 337.445 320.094 334.385C319.219 330.322 319.219 330.322 319.094 327.385C320.427 328.051 321.76 328.718 323.094 329.385C323.424 328.394 323.754 327.405 324.094 326.385C325.084 326.715 326.074 327.045 327.094 327.385C327.135 328.395 327.176 329.406 327.219 330.447C327.826 334.473 329.465 337.029 332.195 340.006C335.516 342.417 339.095 342.447 343.094 342.385C341.114 339.909 341.114 339.909 339.094 337.385C343.514 337.061 346.131 337.859 350.105 339.701C355.368 341.51 360.485 341.129 365.469 338.822C370.205 334.424 372.704 329.386 373.332 322.939C373.505 316.703 372.615 312.138 369.969 306.478C369.094 304.385 369.094 304.385 369.094 301.385C369.424 300.724 369.754 300.064 370.094 299.385C372.344 299.447 372.344 299.447 375.094 300.385C379.887 307.308 380.255 313.151 380.094 321.385C382.404 321.055 384.714 320.724 387.094 320.385C387.424 303.224 387.754 286.065 388.094 268.385C372.508 268.096 372.508 268.096 356.923 267.816C354.943 267.778 352.964 267.74 350.984 267.701C349.988 267.684 348.991 267.668 347.964 267.651C340.976 267.509 334.053 267.039 327.094 266.385C327.094 265.065 327.094 263.745 327.094 262.385C326.434 262.055 325.774 261.724 325.094 261.385C329.054 261.385 333.014 261.385 337.094 261.385C337.094 259.074 337.094 256.764 337.094 254.384C336.434 254.054 335.774 253.724 335.094 253.384C335.754 252.724 336.414 252.064 337.094 251.384C339.773 255.403 339.25 257.626 339.094 262.385C340.084 261.724 341.074 261.065 342.094 260.385C342.424 260.715 342.754 261.045 343.094 261.385C345.956 261.458 348.794 261.477 351.656 261.447C352.866 261.44 352.866 261.44 354.1 261.433C356.098 261.422 358.096 261.404 360.094 261.385C360.094 259.404 360.094 257.424 360.094 255.384C359.104 255.054 358.114 254.724 357.094 254.384C357.754 253.724 358.414 253.064 359.094 252.384C359.424 250.074 359.754 247.764 360.094 245.384C354.484 245.384 348.874 245.384 343.094 245.384C343.094 247.034 343.094 248.684 343.094 250.384C344.084 250.714 345.074 251.044 346.094 251.384C346.094 251.714 346.094 252.044 346.094 252.384C344.444 252.384 342.794 252.384 341.094 252.384C341.094 250.734 341.094 249.084 341.094 247.384C337.252 244.817 333.28 245.157 328.844 245.259C328.099 245.268 327.354 245.277 326.586 245.287C324.755 245.31 322.924 245.346 321.094 245.384C321.094 247.034 321.094 248.684 321.094 250.384C322.084 250.714 323.074 251.044 324.094 251.384C323.104 252.044 322.114 252.704 321.094 253.384C321.424 254.374 321.754 255.364 322.094 256.384C321.929 257.354 321.764 258.323 321.594 259.322C321.125 262.191 321.162 263.692 322.094 266.385C320.774 266.715 319.454 267.045 318.094 267.385C317.764 264.415 317.434 261.445 317.094 258.384C317.754 258.054 318.414 257.724 319.094 257.384C318.434 257.054 317.774 256.724 317.094 256.384C317.094 252.094 317.094 247.804 317.094 243.384C317.754 243.384 318.414 243.384 319.094 243.384C319.094 242.724 319.094 242.064 319.094 241.384C337.244 241.384 355.394 241.384 374.094 241.384C373.764 242.704 373.434 244.024 373.094 245.384C370.784 245.384 368.474 245.384 366.094 245.384C366.094 247.034 366.094 248.684 366.094 250.384C369.394 250.384 372.694 250.384 376.094 250.384C376.094 252.034 376.094 253.684 376.094 255.384C372.62 256.542 369.733 256.453 366.094 256.384C366.094 258.034 366.094 259.684 366.094 261.385C368.074 261.385 370.054 261.385 372.094 261.385C372.094 262.375 372.094 263.365 372.094 264.385C372.754 264.055 373.414 263.724 374.094 263.385C379.044 263.385 383.994 263.385 389.094 263.385C389.094 251.834 389.094 240.284 389.094 228.384C388.434 228.384 387.774 228.384 387.094 228.384C387.094 227.724 387.094 227.064 387.094 226.384C359.044 226.054 330.994 225.724 302.094 225.384C302.094 223.404 302.094 221.424 302.094 219.384C323.214 219.384 344.334 219.384 366.094 219.384C365.764 217.734 365.434 216.084 365.094 214.384C361.51 213.382 361.51 213.382 358.094 214.384C356.06 214.503 354.022 214.563 351.984 214.595C350.755 214.624 349.525 214.652 348.258 214.681C345.664 214.733 343.07 214.777 340.477 214.814C338.624 214.86 338.624 214.86 336.734 214.908C335.605 214.928 334.477 214.947 333.313 214.968C329.702 215.435 327.268 216.645 324.094 218.384C319.543 219.226 316.013 218.826 311.844 216.822C306.903 212.443 303.417 208.214 302.957 201.431C303.344 195.642 305.961 190.402 310.094 186.384C314.892 183.759 318.645 182.79 324.094 183.384C325.023 183.882 325.952 184.379 326.909 184.892C330.434 186.544 332.618 186.721 336.48 186.642C338.258 186.621 338.258 186.621 340.072 186.599C341.296 186.57 342.52 186.54 343.781 186.509C346.223 186.466 348.664 186.427 351.105 186.392C352.721 186.356 352.721 186.356 354.37 186.318C357.094 186.384 357.094 186.384 360.094 187.384C362.342 187.537 364.593 187.658 366.844 187.759C375.452 188.344 380.173 189.767 386.094 196.384C386.424 196.714 386.754 197.044 387.094 197.384C387.219 199.006 387.269 200.633 387.281 202.259C387.295 203.144 387.31 204.028 387.324 204.939C387.094 207.384 387.094 207.384 385.094 210.384C384.434 210.384 383.774 210.384 383.094 210.384C383.094 213.354 383.094 216.324 383.094 219.384C383.981 219.281 384.867 219.178 385.781 219.072C389.094 219.384 389.094 219.384 391.765 221.448C394.69 225.136 394.704 227.015 394.674 231.681C394.676 232.398 394.679 233.114 394.681 233.851C394.683 235.399 394.674 236.947 394.655 238.495C394.625 240.946 394.626 243.395 394.635 245.847C394.649 251.047 394.624 256.247 394.594 261.447C394.559 267.478 394.539 273.507 394.562 279.538C394.562 281.952 394.533 284.364 394.503 286.777C394.505 288.257 394.509 289.737 394.514 291.217C394.505 292.507 394.497 293.798 394.488 295.128C394.795 298.563 394.795 298.563 397.568 300.707C398.401 301.261 399.235 301.814 400.094 302.385C401.61 305.416 401.343 308.264 401.406 311.635C401.444 312.939 401.481 314.244 401.52 315.588C401.027 319.98 399.927 322.03 397.094 325.385C393.64 328.013 390.06 327.588 385.844 327.51C384.58 327.491 383.317 327.473 382.016 327.455C381.051 327.432 380.087 327.408 379.094 327.385C378.967 328.309 378.841 329.233 378.711 330.185C377.716 335.343 374.789 338.806 371.094 342.385C372.903 342.422 372.903 342.422 374.75 342.46C379.21 342.554 383.669 342.655 388.129 342.757C390.062 342.8 391.995 342.842 393.928 342.882C396.701 342.939 399.474 343.003 402.246 343.068C403.116 343.085 403.986 343.102 404.882 343.119C410.98 343.271 410.98 343.271 412.094 344.385C412.134 346.051 412.136 347.718 412.094 349.385C409.62 350.621 407.995 350.51 405.228 350.51C403.676 350.514 403.676 350.514 402.093 350.518C400.375 350.515 400.375 350.515 398.623 350.511C396.808 350.514 396.808 350.514 394.957 350.516C391.588 350.52 388.22 350.518 384.852 350.515C381.223 350.513 377.595 350.516 373.966 350.519C366.854 350.524 359.742 350.523 352.63 350.52C346.852 350.518 341.075 350.517 335.297 350.518C334.476 350.518 333.655 350.519 332.809 350.519C331.142 350.519 329.474 350.519 327.807 350.52C312.156 350.523 296.505 350.519 280.855 350.514C267.411 350.509 253.968 350.51 240.524 350.515C224.93 350.52 209.335 350.522 193.74 350.519C192.079 350.519 190.418 350.519 188.757 350.518C187.939 350.518 187.122 350.518 186.279 350.518C180.505 350.517 174.731 350.518 168.956 350.521C161.925 350.524 154.893 350.523 147.862 350.518C144.271 350.515 140.68 350.514 137.089 350.517C133.205 350.521 129.322 350.517 125.438 350.511C124.29 350.514 123.143 350.516 121.961 350.518C120.929 350.516 119.897 350.513 118.834 350.51C117.936 350.51 117.039 350.51 116.114 350.51C114.094 350.385 114.094 350.385 113.094 349.385C112.969 346.885 112.969 346.885 113.094 344.385C114.65 342.828 116.172 343.221 118.338 343.179C119.239 343.159 120.14 343.139 121.068 343.119C122.537 343.094 122.537 343.094 124.035 343.068C125.033 343.047 126.03 343.027 127.058 343.005C130.257 342.94 133.457 342.881 136.656 342.822C138.82 342.779 140.983 342.735 143.146 342.691C148.462 342.584 153.778 342.482 159.094 342.385C158.677 341.848 158.259 341.311 157.83 340.758C157.285 340.047 156.741 339.336 156.18 338.603C155.639 337.901 155.098 337.199 154.54 336.476C152.769 333.915 151.847 331.396 151.094 328.385C150.008 328.37 148.923 328.356 147.805 328.342C146.359 328.295 144.914 328.246 143.469 328.197C142.756 328.191 142.043 328.185 141.309 328.179C135.624 327.945 133.011 326.543 129.094 322.385C127.061 318.73 126.797 315.532 126.781 311.385C126.764 310.374 126.748 309.363 126.73 308.322C127.149 304.938 128.073 303.11 130.094 300.385C131.579 299.394 131.579 299.394 133.094 298.385C133.408 295.892 133.535 293.635 133.535 291.138C133.548 290.413 133.562 289.687 133.575 288.939C133.616 286.608 133.638 284.278 133.656 281.947C133.855 262.87 133.855 262.87 136.094 253.384C135.042 253.487 133.99 253.591 132.906 253.697C129.094 253.384 129.094 253.384 126.395 251.584C122.977 246.831 123.362 242.595 123.469 236.884C123.449 235.852 123.43 234.819 123.41 233.755C123.459 226.215 123.459 226.215 126.508 222.228C130.121 219.652 131.831 219.266 136.219 219.322C137.129 219.331 138.039 219.34 138.977 219.349C139.675 219.361 140.374 219.372 141.094 219.384C141.192 218.178 141.29 216.971 141.391 215.728C141.541 214.113 141.692 212.499 141.844 210.884C141.937 209.697 141.937 209.697 142.031 208.486C142.755 201.126 145.048 194.802 150.469 189.572C151.067 188.993 151.665 188.414 152.281 187.818C154.094 186.384 154.094 186.384 157.469 185.134C160.33 183.672 160.33 183.672 160.582 180.974C160.716 179.02 160.824 177.064 160.906 175.107C161.256 170.03 163.335 166.867 167.031 163.572C171.995 160.026 176.292 160.243 182.259 160.271Z" fill="#12242A"/>
<path d="M324.094 183.384C325.023 183.882 325.952 184.379 326.909 184.892C330.434 186.544 332.618 186.721 336.48 186.642C337.666 186.628 338.851 186.614 340.072 186.599C341.296 186.57 342.52 186.54 343.781 186.509C346.223 186.466 348.664 186.427 351.105 186.392C352.721 186.356 352.721 186.356 354.37 186.318C357.094 186.384 357.094 186.384 360.094 187.384C362.342 187.537 364.593 187.658 366.844 187.759C375.452 188.344 380.173 189.767 386.094 196.384C386.589 196.879 386.589 196.879 387.094 197.384C387.219 199.006 387.269 200.633 387.281 202.259C387.295 203.144 387.31 204.028 387.324 204.939C387.094 207.384 387.094 207.384 385.094 210.384C384.434 210.384 383.774 210.384 383.094 210.384C383.094 213.354 383.094 216.324 383.094 219.384C384.424 219.23 384.424 219.23 385.781 219.072C389.094 219.384 389.094 219.384 391.765 221.448C394.69 225.136 394.704 227.015 394.674 231.682C394.678 232.756 394.678 232.756 394.681 233.851C394.683 235.399 394.674 236.947 394.655 238.495C394.625 240.946 394.626 243.396 394.635 245.847C394.649 251.047 394.624 256.247 394.594 261.447C394.559 267.478 394.539 273.507 394.562 279.538C394.562 281.952 394.533 284.364 394.503 286.777C394.505 288.257 394.509 289.737 394.514 291.217C394.505 292.508 394.497 293.798 394.488 295.128C394.795 298.563 394.795 298.563 397.568 300.708C398.401 301.261 399.235 301.815 400.094 302.385C401.61 305.416 401.343 308.265 401.406 311.635C401.462 313.592 401.462 313.592 401.52 315.588C401.027 319.98 399.927 322.031 397.094 325.385C393.64 328.013 390.06 327.588 385.844 327.51C384.58 327.492 383.317 327.474 382.016 327.455C381.051 327.432 380.087 327.409 379.094 327.385C378.904 328.771 378.904 328.771 378.711 330.186C377.716 335.344 374.789 338.806 371.094 342.385C372.903 342.422 372.903 342.422 374.75 342.461C379.21 342.555 383.669 342.655 388.129 342.757C390.062 342.801 391.995 342.842 393.928 342.882C396.701 342.94 399.474 343.003 402.246 343.068C403.116 343.085 403.986 343.102 404.882 343.119C410.98 343.271 410.98 343.271 412.094 344.385C412.135 346.051 412.137 347.719 412.094 349.385C409.279 350.323 407.651 350.498 404.747 350.467C403.859 350.46 402.972 350.453 402.057 350.446C400.6 350.426 400.6 350.426 399.115 350.407C397.578 350.392 397.578 350.392 396.01 350.377C392.617 350.344 389.225 350.304 385.832 350.264C383.482 350.239 381.132 350.216 378.783 350.192C372.593 350.129 366.403 350.06 360.214 349.99C353.9 349.919 347.586 349.854 341.271 349.789C328.879 349.66 316.486 349.524 304.094 349.385C304.094 349.055 304.094 348.725 304.094 348.385C305.614 348.346 305.614 348.346 307.164 348.307C308.516 348.25 309.867 348.193 311.219 348.135C311.884 348.121 312.549 348.106 313.234 348.092C318.455 347.836 321.098 346.497 325.094 343.385C324.095 341.37 323.084 339.367 322.023 337.385C321.675 336.725 321.327 336.065 320.969 335.385C320.616 334.725 320.262 334.065 319.898 333.385C319.094 331.385 319.094 331.385 319.094 327.385C320.427 328.052 321.76 328.718 323.094 329.385C323.424 328.395 323.754 327.405 324.094 326.385C325.084 326.715 326.074 327.045 327.094 327.385C327.135 328.395 327.176 329.406 327.219 330.447C327.826 334.474 329.465 337.029 332.195 340.006C335.516 342.418 339.095 342.447 343.094 342.385C341.114 339.91 341.114 339.91 339.094 337.385C343.514 337.061 346.131 337.859 350.105 339.701C355.368 341.511 360.485 341.13 365.469 338.822C370.205 334.424 372.704 329.386 373.332 322.94C373.505 316.703 372.615 312.138 369.969 306.479C369.094 304.385 369.094 304.385 369.094 301.385C369.424 300.725 369.754 300.065 370.094 299.385C372.344 299.447 372.344 299.447 375.094 300.385C379.887 307.308 380.255 313.151 380.094 321.385C382.404 321.055 384.714 320.725 387.094 320.385C387.424 303.225 387.754 286.065 388.094 268.384C372.508 268.096 372.508 268.096 356.923 267.816C354.943 267.778 352.964 267.74 350.984 267.701C349.988 267.684 348.991 267.668 347.964 267.651C340.976 267.509 334.053 267.039 327.094 266.384C327.094 265.064 327.094 263.744 327.094 262.384C326.434 262.054 325.774 261.724 325.094 261.384C329.054 261.384 333.014 261.384 337.094 261.384C337.094 259.074 337.094 256.764 337.094 254.384C336.104 253.889 336.104 253.889 335.094 253.384C335.754 252.724 336.414 252.064 337.094 251.384C339.773 255.403 339.25 257.626 339.094 262.384C340.084 261.724 341.074 261.064 342.094 260.384C342.424 260.714 342.754 261.044 343.094 261.384C345.956 261.458 348.794 261.477 351.656 261.447C352.463 261.442 353.269 261.438 354.1 261.433C356.098 261.421 358.096 261.403 360.094 261.384C360.094 259.404 360.094 257.424 360.094 255.384C359.104 255.054 358.114 254.724 357.094 254.384C357.754 253.724 358.414 253.064 359.094 252.384C359.424 250.074 359.754 247.764 360.094 245.384C354.484 245.384 348.874 245.384 343.094 245.384C343.094 247.034 343.094 248.684 343.094 250.384C344.084 250.714 345.074 251.044 346.094 251.384C346.094 251.714 346.094 252.044 346.094 252.384C344.444 252.384 342.794 252.384 341.094 252.384C341.094 250.734 341.094 249.084 341.094 247.384C337.252 244.817 333.28 245.157 328.844 245.259C327.726 245.273 327.726 245.273 326.586 245.287C324.755 245.31 322.924 245.346 321.094 245.384C321.094 247.034 321.094 248.684 321.094 250.384C322.579 250.879 322.579 250.879 324.094 251.384C322.609 252.374 322.609 252.374 321.094 253.384C321.424 254.374 321.754 255.364 322.094 256.384C321.929 257.354 321.764 258.323 321.594 259.322C321.125 262.191 321.162 263.692 322.094 266.384C320.114 266.879 320.114 266.879 318.094 267.384C317.764 264.414 317.434 261.444 317.094 258.384C318.084 257.889 318.084 257.889 319.094 257.384C318.434 257.054 317.774 256.724 317.094 256.384C317.094 252.094 317.094 247.804 317.094 243.384C317.754 243.384 318.414 243.384 319.094 243.384C319.094 242.724 319.094 242.064 319.094 241.384C337.244 241.384 355.394 241.384 374.094 241.384C373.764 242.704 373.434 244.024 373.094 245.384C370.784 245.384 368.474 245.384 366.094 245.384C366.094 247.034 366.094 248.684 366.094 250.384C369.394 250.384 372.694 250.384 376.094 250.384C376.094 252.034 376.094 253.684 376.094 255.384C372.62 256.542 369.733 256.453 366.094 256.384C366.094 258.034 366.094 259.684 366.094 261.384C368.074 261.384 370.054 261.384 372.094 261.384C372.094 262.374 372.094 263.364 372.094 264.384C372.754 264.054 373.414 263.724 374.094 263.384C379.044 263.384 383.994 263.384 389.094 263.384C389.094 251.834 389.094 240.284 389.094 228.384C388.434 228.384 387.774 228.384 387.094 228.384C387.094 227.724 387.094 227.064 387.094 226.384C359.044 226.054 330.994 225.724 302.094 225.384C302.094 223.404 302.094 221.424 302.094 219.384C323.214 219.384 344.334 219.384 366.094 219.384C365.764 217.734 365.434 216.084 365.094 214.384C361.51 213.382 361.51 213.382 358.094 214.384C356.06 214.503 354.022 214.564 351.984 214.595C350.755 214.624 349.525 214.652 348.258 214.681C345.664 214.733 343.07 214.777 340.477 214.814C338.624 214.86 338.624 214.86 336.734 214.908C335.605 214.928 334.477 214.947 333.313 214.968C329.702 215.435 327.268 216.645 324.094 218.384C319.543 219.226 316.013 218.826 311.844 216.822C306.903 212.443 303.417 208.214 302.957 201.431C303.344 195.642 305.961 190.402 310.094 186.384C314.892 183.759 318.645 182.79 324.094 183.384Z" fill="#0C242A"/>
<path d="M324.094 183.384C325.023 183.882 325.952 184.379 326.909 184.892C330.434 186.544 332.618 186.721 336.48 186.642C337.666 186.628 338.851 186.614 340.072 186.599C341.296 186.57 342.52 186.54 343.781 186.509C346.223 186.466 348.664 186.427 351.105 186.392C352.721 186.356 352.721 186.356 354.37 186.318C357.094 186.384 357.094 186.384 360.094 187.384C360.094 188.044 360.094 188.704 360.094 189.384C361.414 189.714 362.734 190.044 364.094 190.384C362.114 191.044 360.134 191.704 358.094 192.384C358.094 193.044 358.094 193.704 358.094 194.384C358.589 194.879 358.589 194.879 359.094 195.384C359.192 197.028 359.223 198.676 359.219 200.322C359.223 201.666 359.223 201.666 359.227 203.037C359.094 205.384 359.094 205.384 358.094 207.384C357.106 207.35 356.119 207.315 355.102 207.279C353.18 207.238 353.18 207.238 351.219 207.197C349.943 207.162 348.666 207.127 347.352 207.091C345.739 207.236 345.739 207.236 344.094 207.384C343.434 208.374 342.774 209.364 342.094 210.384C339.124 210.054 336.154 209.724 333.094 209.384C335.292 211.582 336.269 211.843 339.219 212.509C341.137 212.943 341.137 212.943 343.094 213.384C339.781 215.593 339.067 215.549 335.281 215.322C330.657 215.208 328.22 216.277 324.094 218.384C319.476 219.114 316.074 218.856 311.844 216.822C306.903 212.443 303.417 208.214 302.957 201.431C303.344 195.642 305.961 190.402 310.094 186.384C314.892 183.759 318.645 182.79 324.094 183.384Z" fill="#10282E"/>
<path d="M310.094 186.384C310.754 187.044 311.414 187.704 312.094 188.384C314.677 188.551 314.677 188.551 317.094 188.384C317.011 189.106 316.929 189.828 316.844 190.572C316.842 193.544 316.842 193.544 319.094 195.822C321.094 198.384 321.094 198.384 321.594 201.322C320.973 205.124 319.407 207.348 317.094 210.384C319.588 211.955 320.798 212.412 323.781 212.134C324.544 211.887 325.308 211.639 326.094 211.384C326.424 210.724 326.754 210.064 327.094 209.384C328.414 209.714 329.734 210.044 331.094 210.384C331.094 211.044 331.094 211.704 331.094 212.384C330.434 212.714 329.774 213.044 329.094 213.384C328.784 214.044 328.475 214.704 328.156 215.384C327.094 217.384 327.094 217.384 324.094 218.384C319.514 218.916 316.04 218.839 311.844 216.822C306.903 212.443 303.417 208.214 302.957 201.431C303.357 195.436 306.114 190.776 310.094 186.384Z" fill="#1A3339"/>
<path d="M317.094 190.384C320.344 190.134 320.344 190.134 324.094 190.384C326.281 192.384 326.281 192.384 328.094 194.384C329.414 194.384 330.734 194.384 332.094 194.384C332.424 195.044 332.754 195.704 333.094 196.384C333.754 195.394 334.414 194.404 335.094 193.384C337.594 193.009 337.594 193.009 340.094 193.384C342.175 196.506 342.368 197.317 342.344 200.884C342.349 201.658 342.354 202.431 342.359 203.228C342.094 205.384 342.094 205.384 340.094 208.384C336.469 209.072 336.469 209.072 333.094 209.384C335.292 211.582 336.269 211.843 339.219 212.509C341.137 212.942 341.137 212.942 343.094 213.384C339.782 215.592 338.856 215.588 335.031 215.447C331.421 215.242 331.421 215.242 328.094 216.384C328.424 215.064 328.754 213.744 329.094 212.384C329.754 212.384 330.414 212.384 331.094 212.384C331.094 211.724 331.094 211.064 331.094 210.384C329.774 210.054 328.454 209.724 327.094 209.384C326.764 210.374 326.434 211.364 326.094 212.384C322.844 213.134 322.844 213.134 319.094 213.384C316.656 211.447 316.656 211.447 315.094 209.384C315.919 208.683 316.744 207.982 317.594 207.259C320.311 204.625 320.311 204.625 320.656 201.384C319.978 197.769 318.423 196.164 316.094 193.384C316.424 192.394 316.754 191.404 317.094 190.384Z" fill="#163038"/>
<path d="M374.094 193.384C374.094 194.044 374.094 194.704 374.094 195.384C374.836 195.467 375.579 195.549 376.344 195.634C379.624 196.529 380.884 197.859 383.094 200.384C383.424 200.714 383.754 201.044 384.094 201.384C384.424 200.394 384.754 199.404 385.094 198.384C385.754 198.384 386.414 198.384 387.094 198.384C387.148 199.821 387.187 201.259 387.219 202.697C387.242 203.497 387.265 204.298 387.289 205.123C387.094 207.384 387.094 207.384 385.094 210.384C384.434 210.384 383.774 210.384 383.094 210.384C383.114 211.477 383.135 212.571 383.156 213.697C383.094 217.384 383.094 217.384 382.094 220.384C381.434 220.384 380.774 220.384 380.094 220.384C380.094 221.044 380.094 221.704 380.094 222.384C380.754 222.714 381.414 223.044 382.094 223.384C381.104 223.714 380.114 224.044 379.094 224.384C378.434 222.734 377.774 221.084 377.094 219.384C375.774 219.384 374.454 219.384 373.094 219.384C372.935 218.769 372.777 218.155 372.613 217.521C371.191 212.217 371.191 212.217 367.406 208.447C366.643 208.096 365.88 207.746 365.094 207.384C365.094 206.724 365.094 206.064 365.094 205.384C371.449 205.984 371.449 205.984 373.906 207.509C375.664 210.284 376.317 213.216 377.094 216.384C379.177 214.635 379.177 214.635 381.094 212.384C381.094 211.064 381.094 209.744 381.094 208.384C380.289 208.116 379.485 207.848 378.656 207.572C377.811 207.18 376.965 206.788 376.094 206.384C375.764 205.394 375.434 204.404 375.094 203.384C374.104 203.384 373.114 203.384 372.094 203.384C372.094 202.724 372.094 202.064 372.094 201.384C369.124 201.384 366.154 201.384 363.094 201.384C362.094 197.384 362.094 197.384 362.969 195.134C366.323 192.372 369.913 193.069 374.094 193.384Z" fill="#191F22"/>
<path d="M317.094 190.384C321.224 189.979 323.456 189.991 327.031 192.197C330.042 196.85 330.088 200.992 329.094 206.384C327.031 209.572 327.031 209.572 324.094 211.384C320.406 211.822 320.406 211.822 317.094 211.384C316.434 210.724 315.774 210.064 315.094 209.384C315.919 208.683 316.744 207.982 317.594 207.259C320.311 204.625 320.311 204.625 320.656 201.384C319.978 197.769 318.423 196.164 316.094 193.384C316.424 192.394 316.754 191.404 317.094 190.384Z" fill="#BACDD5"/>
<path d="M347.094 193.384C348.718 193.33 350.344 193.292 351.969 193.259C352.874 193.236 353.779 193.213 354.711 193.189C357.094 193.384 357.094 193.384 359.094 195.384C359.324 197.697 359.324 197.697 359.281 200.384C359.272 201.715 359.272 201.715 359.262 203.072C359.094 205.384 359.094 205.384 358.094 207.384C354.794 207.384 351.494 207.384 348.094 207.384C348.126 204.91 348.159 202.436 348.191 199.963C348.102 197.603 347.763 195.639 347.094 193.384Z" fill="#B8C9D1"/>
<path d="M365.094 205.384C371.449 205.984 371.449 205.984 373.906 207.509C375.664 210.284 376.317 213.216 377.094 216.384C379.156 214.572 379.156 214.572 381.094 212.384C381.094 211.394 381.094 210.404 381.094 209.384C381.754 209.384 382.414 209.384 383.094 209.384C383.094 208.064 383.094 206.744 383.094 205.384C384.414 206.044 385.734 206.704 387.094 207.384C386.104 208.869 386.104 208.869 385.094 210.384C384.434 210.384 383.774 210.384 383.094 210.384C383.114 211.478 383.135 212.571 383.156 213.697C383.094 217.384 383.094 217.384 382.094 220.384C381.434 220.384 380.774 220.384 380.094 220.384C380.094 221.044 380.094 221.704 380.094 222.384C380.754 222.714 381.414 223.044 382.094 223.384C381.104 223.714 380.114 224.044 379.094 224.384C378.434 222.734 377.774 221.084 377.094 219.384C375.774 219.384 374.454 219.384 373.094 219.384C372.935 218.769 372.777 218.155 372.613 217.521C371.191 212.217 371.191 212.217 367.406 208.447C366.643 208.096 365.88 207.746 365.094 207.384C365.094 206.724 365.094 206.064 365.094 205.384Z" fill="#4C646D"/>
<path d="M312.094 209.384C315.094 210.384 318.094 211.384 321.094 212.384C323.705 212.146 323.705 212.146 326.094 211.384C326.424 210.724 326.754 210.064 327.094 209.384C328.414 209.714 329.734 210.044 331.094 210.384C331.094 211.044 331.094 211.704 331.094 212.384C330.104 212.879 330.104 212.879 329.094 213.384C328.784 214.044 328.475 214.704 328.156 215.384C327.094 217.384 327.094 217.384 324.094 218.384C319.704 218.878 316.255 219.131 312.469 216.697C311.094 214.384 311.094 214.384 311.344 211.634C311.591 210.892 311.839 210.149 312.094 209.384Z" fill="#0D272D"/>
<path d="M335.094 193.384C336.744 193.384 338.394 193.384 340.094 193.384C342.175 196.506 342.368 197.317 342.344 200.884C342.349 201.658 342.354 202.431 342.359 203.228C342.094 205.384 342.094 205.384 340.094 208.384C338.444 208.384 336.794 208.384 335.094 208.384C335.094 203.434 335.094 198.484 335.094 193.384Z" fill="#ACBEC6"/>
<path d="M365.094 195.384C374.578 194.826 374.578 194.826 379.094 198.384C379.754 199.044 380.414 199.704 381.094 200.384C380.719 203.009 380.719 203.009 380.094 205.384C379.434 205.384 378.774 205.384 378.094 205.384C377.557 204.766 377.021 204.147 376.469 203.509C373.185 200.571 370.386 200.243 366.094 199.384C365.764 198.064 365.434 196.744 365.094 195.384Z" fill="#B34C58"/>
</g>
</g>
<defs>
<clipPath id="clip0_943_5285">
<rect width="512" height="512" fill="white"/>
</clipPath>
<clipPath id="clip1_943_5285">
<rect width="87" height="36" fill="white" transform="translate(303 183)"/>
</clipPath>
</defs>
</svg>
