<svg width="118" height="124" viewBox="0 0 118 124" fill="none" xmlns="http://www.w3.org/2000/svg">
<path d="M0.176498 42.9088C2.86197 34.578 7.28574 26.9308 13.1228 20.4501C14.1098 19.3542 15.6584 18.9636 17.0448 19.4609L30.9943 24.4639C34.7761 25.8195 38.9375 23.8432 40.289 20.0497C40.4219 19.6767 40.5243 19.2935 40.595 18.9044L43.2525 4.2724C43.5167 2.8176 44.6307 1.66681 46.0726 1.35887C50.2917 0.458126 54.6175 0 59 0C63.3798 0 67.703 0.457609 71.9196 1.35722C73.3612 1.66484 74.475 2.81491 74.7398 4.2692L77.4049 18.9038C78.1254 22.8668 81.9119 25.4936 85.8633 24.771C86.2522 24.6999 86.6339 24.5972 87.0054 24.4641L100.955 19.4609C102.341 18.9636 103.89 19.3542 104.877 20.4501C110.714 26.9308 115.138 34.578 117.824 42.9088C118.276 44.3142 117.839 45.855 116.717 46.811L105.41 56.4399C102.349 59.0474 101.975 63.6504 104.574 66.7212C104.83 67.0231 105.11 67.3037 105.41 67.5599L116.717 77.1889C117.839 78.1449 118.276 79.6857 117.824 81.0912C115.138 89.4224 110.714 97.0696 104.877 103.55C103.89 104.645 102.341 105.036 100.955 104.539L87.0054 99.5359C83.2242 98.1808 79.0624 100.157 77.711 103.95C77.5781 104.323 77.4757 104.706 77.4047 105.097L74.7398 119.731C74.475 121.185 73.3612 122.335 71.9196 122.643C67.703 123.542 63.3798 124 59 124C54.6175 124 50.2917 123.542 46.0726 122.641C44.6307 122.333 43.5167 121.182 43.2525 119.728L40.5951 105.096C39.8745 101.133 36.0877 98.5064 32.1367 99.2289C31.7481 99.3002 31.3661 99.4026 30.9949 99.5359L17.0448 104.539C15.6584 105.036 14.1098 104.645 13.1228 103.55C7.28574 97.0696 2.86197 89.4224 0.176498 81.0912C-0.276519 79.6857 0.160284 78.1449 1.28293 77.1889L12.5894 67.56C15.6507 64.9526 16.0251 60.3495 13.4257 57.2787C13.1701 56.9768 12.8904 56.6962 12.5895 56.44L1.28293 46.811C0.160284 45.855 -0.276519 44.3142 0.176498 42.9088ZM41.0422 61.9993C41.0422 71.9898 49.0816 80.0887 58.9987 80.0887C68.9159 80.0887 76.9553 71.9898 76.9553 61.9993C76.9553 52.0088 68.9159 43.9099 58.9987 43.9099C49.0816 43.9099 41.0422 52.0088 41.0422 61.9993Z" fill="#EFF3EB"/>
</svg>
