<svg width="1863" height="768" viewBox="0 0 1863 768" fill="none" xmlns="http://www.w3.org/2000/svg">
<g filter="url(#filter0_d_922_1568)">
<mask id="path-1-outside-1_922_1568" maskUnits="userSpaceOnUse" x="233" y="218" width="1397" height="341" fill="black">
<rect fill="white" x="233" y="218" width="1397" height="341"/>
<path d="M245.122 546.904V230.548H428.638V275.32H473.902V324.52H423.718V280.24H294.814V364.372H384.358V413.08H294.814V546.904H245.122ZM568.565 546.904V502.624H523.793V230.548H573.485V497.704H702.389V230.548H752.573V502.624H707.309V546.904H568.565ZM856.847 546.904V502.624H812.075V275.32H856.847V230.548H995.591V275.32H1040.85V324.52H990.671V280.24H861.767V364.372H951.311V413.08H861.767V497.704H990.671V452.932H1040.85V502.624H995.591V546.904H856.847ZM1145.13 546.904V502.624H1100.36V275.32H1145.13V230.548H1283.87V275.32H1329.14V368.8H1278.95V280.24H1150.05V497.704H1278.95V457.852H1234.67V413.08H1189.41V364.372H1239.59V408.16H1329.14V502.624H1283.87V546.904H1145.13Z"/>
<path d="M1433.41 546.904V502.624H1388.64V275.32H1433.41V230.548H1572.15V275.32H1617.42V502.624H1572.15V546.904H1433.41ZM1438.33 497.704H1567.23V280.24H1438.33V497.704Z"/>
</mask>
<path d="M245.122 546.904V230.548H428.638V275.32H473.902V324.52H423.718V280.24H294.814V364.372H384.358V413.08H294.814V546.904H245.122ZM568.565 546.904V502.624H523.793V230.548H573.485V497.704H702.389V230.548H752.573V502.624H707.309V546.904H568.565ZM856.847 546.904V502.624H812.075V275.32H856.847V230.548H995.591V275.32H1040.85V324.52H990.671V280.24H861.767V364.372H951.311V413.08H861.767V497.704H990.671V452.932H1040.85V502.624H995.591V546.904H856.847ZM1145.13 546.904V502.624H1100.36V275.32H1145.13V230.548H1283.87V275.32H1329.14V368.8H1278.95V280.24H1150.05V497.704H1278.95V457.852H1234.67V413.08H1189.41V364.372H1239.59V408.16H1329.14V502.624H1283.87V546.904H1145.13Z" fill="#EFF3EB"/>
<path d="M1433.41 546.904V502.624H1388.64V275.32H1433.41V230.548H1572.15V275.32H1617.42V502.624H1572.15V546.904H1433.41ZM1438.33 497.704H1567.23V280.24H1438.33V497.704Z" fill="#FB8B08"/>
<path d="M245.122 546.904H233.122V558.904H245.122V546.904ZM245.122 230.548V218.548H233.122V230.548H245.122ZM428.638 230.548H440.638V218.548H428.638V230.548ZM428.638 275.32H416.638V287.32H428.638V275.32ZM473.902 275.32H485.902V263.32H473.902V275.32ZM473.902 324.52V336.52H485.902V324.52H473.902ZM423.718 324.52H411.718V336.52H423.718V324.52ZM423.718 280.24H435.718V268.24H423.718V280.24ZM294.814 280.24V268.24H282.814V280.24H294.814ZM294.814 364.372H282.814V376.372H294.814V364.372ZM384.358 364.372H396.358V352.372H384.358V364.372ZM384.358 413.08V425.08H396.358V413.08H384.358ZM294.814 413.08V401.08H282.814V413.08H294.814ZM294.814 546.904V558.904H306.814V546.904H294.814ZM257.122 546.904V230.548H233.122V546.904H257.122ZM245.122 242.548H428.638V218.548H245.122V242.548ZM416.638 230.548V275.32H440.638V230.548H416.638ZM428.638 287.32H473.902V263.32H428.638V287.32ZM461.902 275.32V324.52H485.902V275.32H461.902ZM473.902 312.52H423.718V336.52H473.902V312.52ZM435.718 324.52V280.24H411.718V324.52H435.718ZM423.718 268.24H294.814V292.24H423.718V268.24ZM282.814 280.24V364.372H306.814V280.24H282.814ZM294.814 376.372H384.358V352.372H294.814V376.372ZM372.358 364.372V413.08H396.358V364.372H372.358ZM384.358 401.08H294.814V425.08H384.358V401.08ZM282.814 413.08V546.904H306.814V413.08H282.814ZM294.814 534.904H245.122V558.904H294.814V534.904ZM568.565 546.904H556.565V558.904H568.565V546.904ZM568.565 502.624H580.565V490.624H568.565V502.624ZM523.793 502.624H511.793V514.624H523.793V502.624ZM523.793 230.548V218.548H511.793V230.548H523.793ZM573.485 230.548H585.485V218.548H573.485V230.548ZM573.485 497.704H561.485V509.704H573.485V497.704ZM702.389 497.704V509.704H714.389V497.704H702.389ZM702.389 230.548V218.548H690.389V230.548H702.389ZM752.573 230.548H764.573V218.548H752.573V230.548ZM752.573 502.624V514.624H764.573V502.624H752.573ZM707.309 502.624V490.624H695.309V502.624H707.309ZM707.309 546.904V558.904H719.309V546.904H707.309ZM580.565 546.904V502.624H556.565V546.904H580.565ZM568.565 490.624H523.793V514.624H568.565V490.624ZM535.793 502.624V230.548H511.793V502.624H535.793ZM523.793 242.548H573.485V218.548H523.793V242.548ZM561.485 230.548V497.704H585.485V230.548H561.485ZM573.485 509.704H702.389V485.704H573.485V509.704ZM714.389 497.704V230.548H690.389V497.704H714.389ZM702.389 242.548H752.573V218.548H702.389V242.548ZM740.573 230.548V502.624H764.573V230.548H740.573ZM752.573 490.624H707.309V514.624H752.573V490.624ZM695.309 502.624V546.904H719.309V502.624H695.309ZM707.309 534.904H568.565V558.904H707.309V534.904ZM856.847 546.904H844.847V558.904H856.847V546.904ZM856.847 502.624H868.847V490.624H856.847V502.624ZM812.075 502.624H800.075V514.624H812.075V502.624ZM812.075 275.32V263.32H800.075V275.32H812.075ZM856.847 275.32V287.32H868.847V275.32H856.847ZM856.847 230.548V218.548H844.847V230.548H856.847ZM995.591 230.548H1007.59V218.548H995.591V230.548ZM995.591 275.32H983.591V287.32H995.591V275.32ZM1040.85 275.32H1052.85V263.32H1040.85V275.32ZM1040.85 324.52V336.52H1052.85V324.52H1040.85ZM990.671 324.52H978.671V336.52H990.671V324.52ZM990.671 280.24H1002.67V268.24H990.671V280.24ZM861.767 280.24V268.24H849.767V280.24H861.767ZM861.767 364.372H849.767V376.372H861.767V364.372ZM951.311 364.372H963.311V352.372H951.311V364.372ZM951.311 413.08V425.08H963.311V413.08H951.311ZM861.767 413.08V401.08H849.767V413.08H861.767ZM861.767 497.704H849.767V509.704H861.767V497.704ZM990.671 497.704V509.704H1002.67V497.704H990.671ZM990.671 452.932V440.932H978.671V452.932H990.671ZM1040.85 452.932H1052.85V440.932H1040.85V452.932ZM1040.85 502.624V514.624H1052.85V502.624H1040.85ZM995.591 502.624V490.624H983.591V502.624H995.591ZM995.591 546.904V558.904H1007.59V546.904H995.591ZM868.847 546.904V502.624H844.847V546.904H868.847ZM856.847 490.624H812.075V514.624H856.847V490.624ZM824.075 502.624V275.32H800.075V502.624H824.075ZM812.075 287.32H856.847V263.32H812.075V287.32ZM868.847 275.32V230.548H844.847V275.32H868.847ZM856.847 242.548H995.591V218.548H856.847V242.548ZM983.591 230.548V275.32H1007.59V230.548H983.591ZM995.591 287.32H1040.85V263.32H995.591V287.32ZM1028.85 275.32V324.52H1052.85V275.32H1028.85ZM1040.85 312.52H990.671V336.52H1040.85V312.52ZM1002.67 324.52V280.24H978.671V324.52H1002.67ZM990.671 268.24H861.767V292.24H990.671V268.24ZM849.767 280.24V364.372H873.767V280.24H849.767ZM861.767 376.372H951.311V352.372H861.767V376.372ZM939.311 364.372V413.08H963.311V364.372H939.311ZM951.311 401.08H861.767V425.08H951.311V401.08ZM849.767 413.08V497.704H873.767V413.08H849.767ZM861.767 509.704H990.671V485.704H861.767V509.704ZM1002.67 497.704V452.932H978.671V497.704H1002.67ZM990.671 464.932H1040.85V440.932H990.671V464.932ZM1028.85 452.932V502.624H1052.85V452.932H1028.85ZM1040.85 490.624H995.591V514.624H1040.85V490.624ZM983.591 502.624V546.904H1007.59V502.624H983.591ZM995.591 534.904H856.847V558.904H995.591V534.904ZM1145.13 546.904H1133.13V558.904H1145.13V546.904ZM1145.13 502.624H1157.13V490.624H1145.13V502.624ZM1100.36 502.624H1088.36V514.624H1100.36V502.624ZM1100.36 275.32V263.32H1088.36V275.32H1100.36ZM1145.13 275.32V287.32H1157.13V275.32H1145.13ZM1145.13 230.548V218.548H1133.13V230.548H1145.13ZM1283.87 230.548H1295.87V218.548H1283.87V230.548ZM1283.87 275.32H1271.87V287.32H1283.87V275.32ZM1329.14 275.32H1341.14V263.32H1329.14V275.32ZM1329.14 368.8V380.8H1341.14V368.8H1329.14ZM1278.95 368.8H1266.95V380.8H1278.95V368.8ZM1278.95 280.24H1290.95V268.24H1278.95V280.24ZM1150.05 280.24V268.24H1138.05V280.24H1150.05ZM1150.05 497.704H1138.05V509.704H1150.05V497.704ZM1278.95 497.704V509.704H1290.95V497.704H1278.95ZM1278.95 457.852H1290.95V445.852H1278.95V457.852ZM1234.67 457.852H1222.67V469.852H1234.67V457.852ZM1234.67 413.08H1246.67V401.08H1234.67V413.08ZM1189.41 413.08H1177.41V425.08H1189.41V413.08ZM1189.41 364.372V352.372H1177.41V364.372H1189.41ZM1239.59 364.372H1251.59V352.372H1239.59V364.372ZM1239.59 408.16H1227.59V420.16H1239.59V408.16ZM1329.14 408.16H1341.14V396.16H1329.14V408.16ZM1329.14 502.624V514.624H1341.14V502.624H1329.14ZM1283.87 502.624V490.624H1271.87V502.624H1283.87ZM1283.87 546.904V558.904H1295.87V546.904H1283.87ZM1157.13 546.904V502.624H1133.13V546.904H1157.13ZM1145.13 490.624H1100.36V514.624H1145.13V490.624ZM1112.36 502.624V275.32H1088.36V502.624H1112.36ZM1100.36 287.32H1145.13V263.32H1100.36V287.32ZM1157.13 275.32V230.548H1133.13V275.32H1157.13ZM1145.13 242.548H1283.87V218.548H1145.13V242.548ZM1271.87 230.548V275.32H1295.87V230.548H1271.87ZM1283.87 287.32H1329.14V263.32H1283.87V287.32ZM1317.14 275.32V368.8H1341.14V275.32H1317.14ZM1329.14 356.8H1278.95V380.8H1329.14V356.8ZM1290.95 368.8V280.24H1266.95V368.8H1290.95ZM1278.95 268.24H1150.05V292.24H1278.95V268.24ZM1138.05 280.24V497.704H1162.05V280.24H1138.05ZM1150.05 509.704H1278.95V485.704H1150.05V509.704ZM1290.95 497.704V457.852H1266.95V497.704H1290.95ZM1278.95 445.852H1234.67V469.852H1278.95V445.852ZM1246.67 457.852V413.08H1222.67V457.852H1246.67ZM1234.67 401.08H1189.41V425.08H1234.67V401.08ZM1201.41 413.08V364.372H1177.41V413.08H1201.41ZM1189.41 376.372H1239.59V352.372H1189.41V376.372ZM1227.59 364.372V408.16H1251.59V364.372H1227.59ZM1239.59 420.16H1329.14V396.16H1239.59V420.16ZM1317.14 408.16V502.624H1341.14V408.16H1317.14ZM1329.14 490.624H1283.87V514.624H1329.14V490.624ZM1271.87 502.624V546.904H1295.87V502.624H1271.87ZM1283.87 534.904H1145.13V558.904H1283.87V534.904ZM1433.41 546.904H1421.41V558.904H1433.41V546.904ZM1433.41 502.624H1445.41V490.624H1433.41V502.624ZM1388.64 502.624H1376.64V514.624H1388.64V502.624ZM1388.64 275.32V263.32H1376.64V275.32H1388.64ZM1433.41 275.32V287.32H1445.41V275.32H1433.41ZM1433.41 230.548V218.548H1421.41V230.548H1433.41ZM1572.15 230.548H1584.15V218.548H1572.15V230.548ZM1572.15 275.32H1560.15V287.32H1572.15V275.32ZM1617.42 275.32H1629.42V263.32H1617.42V275.32ZM1617.42 502.624V514.624H1629.42V502.624H1617.42ZM1572.15 502.624V490.624H1560.15V502.624H1572.15ZM1572.15 546.904V558.904H1584.15V546.904H1572.15ZM1438.33 497.704H1426.33V509.704H1438.33V497.704ZM1567.23 497.704V509.704H1579.23V497.704H1567.23ZM1567.23 280.24H1579.23V268.24H1567.23V280.24ZM1438.33 280.24V268.24H1426.33V280.24H1438.33ZM1445.41 546.904V502.624H1421.41V546.904H1445.41ZM1433.41 490.624H1388.64V514.624H1433.41V490.624ZM1400.64 502.624V275.32H1376.64V502.624H1400.64ZM1388.64 287.32H1433.41V263.32H1388.64V287.32ZM1445.41 275.32V230.548H1421.41V275.32H1445.41ZM1433.41 242.548H1572.15V218.548H1433.41V242.548ZM1560.15 230.548V275.32H1584.15V230.548H1560.15ZM1572.15 287.32H1617.42V263.32H1572.15V287.32ZM1605.42 275.32V502.624H1629.42V275.32H1605.42ZM1617.42 490.624H1572.15V514.624H1617.42V490.624ZM1560.15 502.624V546.904H1584.15V502.624H1560.15ZM1572.15 534.904H1433.41V558.904H1572.15V534.904ZM1438.33 509.704H1567.23V485.704H1438.33V509.704ZM1579.23 497.704V280.24H1555.23V497.704H1579.23ZM1567.23 268.24H1438.33V292.24H1567.23V268.24ZM1426.33 280.24V497.704H1450.33V280.24H1426.33Z" fill="#EFF3EB" mask="url(#path-1-outside-1_922_1568)"/>
</g>
<mask id="path-3-outside-2_922_1568" maskUnits="userSpaceOnUse" x="1376" y="218" width="254" height="341" fill="black">
<rect fill="white" x="1376" y="218" width="254" height="341"/>
<path d="M1433.01 546.904V502.624H1388.24V275.32H1433.01V230.548H1571.75V275.32H1617.02V502.624H1571.75V546.904H1433.01ZM1437.93 497.704H1566.83V280.24H1437.93V497.704Z"/>
</mask>
<path d="M1433.01 546.904V502.624H1388.24V275.32H1433.01V230.548H1571.75V275.32H1617.02V502.624H1571.75V546.904H1433.01ZM1437.93 497.704H1566.83V280.24H1437.93V497.704Z" fill="#FB8B08"/>
<path d="M1433.01 546.904H1421.01V558.904H1433.01V546.904ZM1433.01 502.624H1445.01V490.624H1433.01V502.624ZM1388.24 502.624H1376.24V514.624H1388.24V502.624ZM1388.24 275.32V263.32H1376.24V275.32H1388.24ZM1433.01 275.32V287.32H1445.01V275.32H1433.01ZM1433.01 230.548V218.548H1421.01V230.548H1433.01ZM1571.75 230.548H1583.75V218.548H1571.75V230.548ZM1571.75 275.32H1559.75V287.32H1571.75V275.32ZM1617.02 275.32H1629.02V263.32H1617.02V275.32ZM1617.02 502.624V514.624H1629.02V502.624H1617.02ZM1571.75 502.624V490.624H1559.75V502.624H1571.75ZM1571.75 546.904V558.904H1583.75V546.904H1571.75ZM1437.93 497.704H1425.93V509.704H1437.93V497.704ZM1566.83 497.704V509.704H1578.83V497.704H1566.83ZM1566.83 280.24H1578.83V268.24H1566.83V280.24ZM1437.93 280.24V268.24H1425.93V280.24H1437.93ZM1445.01 546.904V502.624H1421.01V546.904H1445.01ZM1433.01 490.624H1388.24V514.624H1433.01V490.624ZM1400.24 502.624V275.32H1376.24V502.624H1400.24ZM1388.24 287.32H1433.01V263.32H1388.24V287.32ZM1445.01 275.32V230.548H1421.01V275.32H1445.01ZM1433.01 242.548H1571.75V218.548H1433.01V242.548ZM1559.75 230.548V275.32H1583.75V230.548H1559.75ZM1571.75 287.32H1617.02V263.32H1571.75V287.32ZM1605.02 275.32V502.624H1629.02V275.32H1605.02ZM1617.02 490.624H1571.75V514.624H1617.02V490.624ZM1559.75 502.624V546.904H1583.75V502.624H1559.75ZM1571.75 534.904H1433.01V558.904H1571.75V534.904ZM1437.93 509.704H1566.83V485.704H1437.93V509.704ZM1578.83 497.704V280.24H1554.83V497.704H1578.83ZM1566.83 268.24H1437.93V292.24H1566.83V268.24ZM1425.93 280.24V497.704H1449.93V280.24H1425.93Z" fill="#FB8B08" mask="url(#path-3-outside-2_922_1568)"/>
<defs>
<filter id="filter0_d_922_1568" x="213.122" y="218.548" width="1416.3" height="364.356" filterUnits="userSpaceOnUse" color-interpolation-filters="sRGB">
<feFlood flood-opacity="0" result="BackgroundImageFix"/>
<feColorMatrix in="SourceAlpha" type="matrix" values="0 0 0 0 0 0 0 0 0 0 0 0 0 0 0 0 0 0 127 0" result="hardAlpha"/>
<feOffset dx="-20" dy="24"/>
<feComposite in2="hardAlpha" operator="out"/>
<feColorMatrix type="matrix" values="0 0 0 0 0 0 0 0 0 0 0 0 0 0 0 0 0 0 0.25 0"/>
<feBlend mode="normal" in2="BackgroundImageFix" result="effect1_dropShadow_922_1568"/>
<feBlend mode="normal" in="SourceGraphic" in2="effect1_dropShadow_922_1568" result="shape"/>
</filter>
</defs>
</svg>
