<svg width="36" height="43" viewBox="0 0 36 43" fill="none" xmlns="http://www.w3.org/2000/svg">
<path d="M30.5814 12.6961L18.0764 0.346069L5.5801 12.6961C-1.32227 19.5128 -1.32227 30.5706 5.5801 37.3874C12.4825 44.2042 23.6791 44.2042 30.5814 37.3874C37.4838 30.5706 37.4838 19.5128 30.5814 12.6961ZM26.8756 34.8549C23.9162 37.1966 20.544 37.5348 18.8404 37.5348C18.2081 37.5348 17.8041 37.4915 17.7427 37.4828C16.3025 37.3006 15.275 35.9997 15.4594 34.5687C15.6439 33.1464 16.9435 32.149 18.3837 32.3138C18.4803 32.3225 21.3519 32.5827 23.6176 30.7527C25.4003 29.3217 26.4628 26.9107 26.779 23.589C26.9195 22.158 28.2104 21.1086 29.6506 21.2387C31.0995 21.3688 32.1621 22.6437 32.0304 24.0747C31.5737 28.8881 29.835 32.5133 26.8756 34.8549Z" fill="#FBFEFF"/>
</svg>
